<svg xmlns="http://www.w3.org/2000/svg" width="89.054" height="70.184" viewBox="0 0 89.054 70.184">
  <path id="Path_3" data-name="Path 3" d="M23.162,0c10.2,0,18.865,9.139,21.952,21.821q-1.163,1.022-2.283,2.138c-6.783,6.783-10.951,14.951-12.19,22.655A25.4,25.4,0,0,0,32.366,61.5a18.362,18.362,0,0,1-6.3,2.384c4.29-16.937,2.218-25.358-.993-33.156C21.966,23.177,17.748,15.081,22.51.007c.21,0,.435-.007.652-.007ZM83.756,19.531c9.045,9.045,6.225,26.532-6.3,39.055C65.9,70.146,50.115,73.436,40.642,66.769c15.009-8.943,19.5-16.364,22.742-24.148,3.138-7.537,5.885-16.248,19.908-23.532.152.138.312.29.464.442ZM39.121,65.558q-.37-.326-.717-.674c-9.045-9.045-6.225-26.532,6.3-39.055,11.8-11.8,28-14.98,37.4-7.755-15.038,7.6-19.1,13.973-22.408,21.908-3.1,7.436-6.457,16.966-20.568,25.575ZM24.14,64.109c-.326.022-.652.029-.978.029C10.371,64.138,0,49.781,0,32.069,0,15.386,9.2,1.674,20.966.145c-5.269,16-3.631,23.387-.362,31.33,3.066,7.457,7.428,16.567,3.537,32.634Z" fill="#fed5b9" fill-rule="evenodd"/>
</svg>
