<svg xmlns="http://www.w3.org/2000/svg" width="80" height="70" viewBox="0 0 80 70">
  <path id="Icon_awesome-gift" data-name="Icon awesome-gift" d="M5,67.25a5,5,0,0,0,5,5H35v-25H5Zm40,5H70a5,5,0,0,0,5-5v-20H45Zm30-50H68.422A13.624,13.624,0,0,0,70,16,13.77,13.77,0,0,0,56.25,2.25c-6.5,0-10.7,3.328-16.094,10.672C34.766,5.578,30.562,2.25,24.063,2.25A13.77,13.77,0,0,0,10.313,16a13.433,13.433,0,0,0,1.578,6.25H5a5,5,0,0,0-5,5v12.5a2.507,2.507,0,0,0,2.5,2.5h75a2.507,2.507,0,0,0,2.5-2.5V27.25A5,5,0,0,0,75,22.25Zm-50.953,0a6.25,6.25,0,1,1,0-12.5c3.109,0,5.406.516,13.453,12.5Zm32.2,0H42.8C50.828,10.3,53.063,9.75,56.25,9.75a6.25,6.25,0,1,1,0,12.5Z" transform="translate(0 -2.25)" fill="#fed5b9"/>
</svg>
