<svg xmlns="http://www.w3.org/2000/svg" width="234.437" height="19.533" viewBox="0 0 234.437 19.533">
  <g id="Group_1" data-name="Group 1" transform="translate(-1319.209 -7856.225)">
    <path id="Path_2" data-name="Path 2" d="M10.354-13.6a8.587,8.587,0,0,1,3.7.839,3.428,3.428,0,0,0,1.167.393,3.942,3.942,0,0,0,.76-.118,1.694,1.694,0,0,1,.38-.039,1.506,1.506,0,0,1,1.193.629A5.724,5.724,0,0,1,18.81-8.124,2.6,2.6,0,0,1,17.721-5.8,2.334,2.334,0,0,1,16.4-5.41,1.882,1.882,0,0,1,15.309-5.7,2.856,2.856,0,0,1,14.5-6.721a11.623,11.623,0,0,0-.918-1.488,4.194,4.194,0,0,0-.865-.819,4.568,4.568,0,0,0-2.661-.891,2.616,2.616,0,0,0-2.143.977,4.025,4.025,0,0,0-.793,2.615A7.794,7.794,0,0,0,8.256-2.2a4.919,4.919,0,0,0,4.431,2.5,6.5,6.5,0,0,0,2.1-.354A4.228,4.228,0,0,0,16.41-.966a1.379,1.379,0,0,1,.813-.472.968.968,0,0,1,.787.426A1.638,1.638,0,0,1,18.338.018a3.962,3.962,0,0,1-.459,1.7,4.405,4.405,0,0,1-1.1,1.481,2.891,2.891,0,0,1-1.141.393,5.733,5.733,0,0,0-1.324.485,9.228,9.228,0,0,1-4.038.931,10.522,10.522,0,0,1-4.366-.983,8.935,8.935,0,0,1-4-3.5,8.884,8.884,0,0,1-1.442-4.8,8.614,8.614,0,0,1,1.809-5.31,10.064,10.064,0,0,1,4.1-3.186A9.855,9.855,0,0,1,10.354-13.6ZM27.777-8.412a7.239,7.239,0,0,1,4.208,1.245,6.67,6.67,0,0,1,2.084,2.32,6.444,6.444,0,0,1,.813,3.12,5.92,5.92,0,0,1-2.609,4.838,9.148,9.148,0,0,1-5.7,1.9A7.2,7.2,0,0,1,21.5,3.23a5.833,5.833,0,0,1-1.888-4.51,6.345,6.345,0,0,1,2.307-5.06A8.688,8.688,0,0,1,27.777-8.412ZM26.728-5.384a1.132,1.132,0,0,0-.924.426,1.74,1.74,0,0,0-.347,1.134,10.728,10.728,0,0,0,.295,2.143,16.229,16.229,0,0,0,.7,2.406A1.4,1.4,0,0,0,27.777,1.8q1.167,0,1.167-1.481a12.314,12.314,0,0,0-.295-2.5,10.3,10.3,0,0,0-.714-2.281A1.388,1.388,0,0,0,26.728-5.384Zm16.82-.577h1.626a1.042,1.042,0,0,1,.583.125.419.419,0,0,1,.151.413l-.1,1.56a1.053,1.053,0,0,1-.144.6.757.757,0,0,1-.524.125q-.092,0-.433-.026-.236-.013-.393-.013a.773.773,0,0,0-.747.361,3.214,3.214,0,0,0-.2,1.37,7.708,7.708,0,0,0,.3,2.32,1.2,1.2,0,0,0,.341.6,1.993,1.993,0,0,0,.734.334q1.154.341,1.154,1.272,0,.983-1.344,1.416a15.9,15.9,0,0,1-4.411.433q-4.549,0-4.549-1.809a.955.955,0,0,1,.19-.655,2.606,2.606,0,0,1,.832-.485A1.45,1.45,0,0,0,37.452.8a16.114,16.114,0,0,0,.223-2.753,1.378,1.378,0,0,0-.229-.911,1.057,1.057,0,0,0-.832-.243,3.394,3.394,0,0,1-.9-.072q-.2-.072-.184-.347l.1-1.652a.8.8,0,0,1,.138-.5A1.255,1.255,0,0,1,36.39-5.8q.485-.026.485-.472a2.641,2.641,0,0,0-.354-.839,4.455,4.455,0,0,1-.6-2.176,3.377,3.377,0,0,1,1.1-2.609,6.6,6.6,0,0,1,4.628-1.481,6.223,6.223,0,0,1,3.959,1.167,2.625,2.625,0,0,1,1.141,2.084,1.987,1.987,0,0,1-.564,1.436,1.871,1.871,0,0,1-1.4.583,2.955,2.955,0,0,1-1.809-.655,14.117,14.117,0,0,1-1-1.036,1.586,1.586,0,0,0-1.127-.6.858.858,0,0,0-.629.262.874.874,0,0,0-.262.642q0,1.036,1.966,2.216a5.134,5.134,0,0,1,.819.577,1.891,1.891,0,0,1,.387.59Q43.22-5.96,43.548-5.96Zm11.393,0h1.626a1.042,1.042,0,0,1,.583.125.419.419,0,0,1,.151.413l-.1,1.56a1.053,1.053,0,0,1-.144.6.757.757,0,0,1-.524.125q-.092,0-.433-.026-.236-.013-.393-.013a.773.773,0,0,0-.747.361,3.214,3.214,0,0,0-.2,1.37,7.709,7.709,0,0,0,.3,2.32,1.2,1.2,0,0,0,.341.6,1.992,1.992,0,0,0,.734.334q1.154.341,1.154,1.272,0,.983-1.344,1.416a15.9,15.9,0,0,1-4.411.433q-4.549,0-4.549-1.809a.955.955,0,0,1,.19-.655,2.606,2.606,0,0,1,.832-.485A1.45,1.45,0,0,0,48.844.8a16.114,16.114,0,0,0,.223-2.753,1.378,1.378,0,0,0-.229-.911,1.057,1.057,0,0,0-.832-.243,3.394,3.394,0,0,1-.9-.072q-.2-.072-.184-.347l.1-1.652a.8.8,0,0,1,.138-.5,1.255,1.255,0,0,1,.623-.125q.485-.026.485-.472a2.641,2.641,0,0,0-.354-.839,4.455,4.455,0,0,1-.6-2.176,3.377,3.377,0,0,1,1.1-2.609,6.6,6.6,0,0,1,4.628-1.481A6.223,6.223,0,0,1,57-12.214a2.625,2.625,0,0,1,1.141,2.084,1.987,1.987,0,0,1-.564,1.436,1.871,1.871,0,0,1-1.4.583,2.955,2.955,0,0,1-1.809-.655,14.116,14.116,0,0,1-1-1.036,1.586,1.586,0,0,0-1.127-.6.858.858,0,0,0-.629.262.874.874,0,0,0-.262.642q0,1.036,1.966,2.216a5.134,5.134,0,0,1,.819.577,1.891,1.891,0,0,1,.387.59Q54.613-5.96,54.941-5.96ZM70.725-1.215H64.563q-.406,0-.406.354A2.107,2.107,0,0,0,65.081.745a3.085,3.085,0,0,0,1.986.754,4.671,4.671,0,0,0,1.4-.243,4.546,4.546,0,0,0,1.265-.6,1.386,1.386,0,0,1,.708-.315.891.891,0,0,1,.669.42,1.392,1.392,0,0,1,.328.865,2.388,2.388,0,0,1-1.18,1.822,7.813,7.813,0,0,1-4.811,1.56,6.833,6.833,0,0,1-4.615-1.6,6.553,6.553,0,0,1-1.495-1.9,6.65,6.65,0,0,1-.773-3.12A6.371,6.371,0,0,1,59.9-5.567a7.03,7.03,0,0,1,2.937-2.268,7.382,7.382,0,0,1,2.9-.564,6.5,6.5,0,0,1,4.235,1.416A5.664,5.664,0,0,1,71.38-5.3,4.39,4.39,0,0,1,72-3.155a2.516,2.516,0,0,1-.354,1.4A1.06,1.06,0,0,1,70.725-1.215ZM64.9-3.666h1.324q.839,0,.839-.773a1.646,1.646,0,0,0-.406-1.154A1.37,1.37,0,0,0,65.6-6.039a1.349,1.349,0,0,0-1.154.577,1.83,1.83,0,0,0-.393,1.088.682.682,0,0,0,.19.551A1.058,1.058,0,0,0,64.9-3.666ZM84.962-1.215H78.8q-.406,0-.406.354A2.107,2.107,0,0,0,79.319.745,3.085,3.085,0,0,0,81.3,1.5a4.671,4.671,0,0,0,1.4-.243,4.546,4.546,0,0,0,1.265-.6,1.386,1.386,0,0,1,.708-.315.891.891,0,0,1,.669.42,1.392,1.392,0,0,1,.328.865,2.387,2.387,0,0,1-1.18,1.822,7.813,7.813,0,0,1-4.811,1.56,6.833,6.833,0,0,1-4.615-1.6,6.553,6.553,0,0,1-1.495-1.9,6.65,6.65,0,0,1-.773-3.12,6.371,6.371,0,0,1,1.337-3.959A7.03,7.03,0,0,1,77.07-7.835a7.382,7.382,0,0,1,2.9-.564A6.5,6.5,0,0,1,84.2-6.983,5.664,5.664,0,0,1,85.618-5.3a4.39,4.39,0,0,1,.616,2.15,2.516,2.516,0,0,1-.354,1.4A1.06,1.06,0,0,1,84.962-1.215ZM79.142-3.666h1.324q.839,0,.839-.773A1.646,1.646,0,0,0,80.9-5.593a1.37,1.37,0,0,0-1.062-.446,1.349,1.349,0,0,0-1.154.577,1.83,1.83,0,0,0-.393,1.088.682.682,0,0,0,.19.551A1.058,1.058,0,0,0,79.142-3.666ZM93.209-8.32q.695,0,.846.2a3.511,3.511,0,0,1,.269,1.259q.066.577.406.577.262,0,.5-.38a3.147,3.147,0,0,1,2.74-1.639,2.62,2.62,0,0,1,1.953.773,2.947,2.947,0,0,1,.6.977,3.114,3.114,0,0,1,.236,1.147,3.1,3.1,0,0,1-.288,1.265,3.165,3.165,0,0,1-.747,1.068,2.871,2.871,0,0,1-2.058.8,2.4,2.4,0,0,1-1.121-.236,5.647,5.647,0,0,1-1.186-.957.767.767,0,0,0-.511-.275.475.475,0,0,0-.479.413,8.36,8.36,0,0,0-.111,1.737,16.428,16.428,0,0,0,.144,2.7,1.068,1.068,0,0,0,.256.544,1.951,1.951,0,0,0,.7.308q1.18.354,1.18,1.232a1.317,1.317,0,0,1-.38.937,1.88,1.88,0,0,1-1.009.531,19.466,19.466,0,0,1-3.7.262,11.664,11.664,0,0,1-3.527-.406A1.326,1.326,0,0,1,86.85,3.243a1.5,1.5,0,0,1,.787-1.219,1.979,1.979,0,0,0,.524-.452,1.283,1.283,0,0,0,.2-.557,30.353,30.353,0,0,0,.21-4.418,1.983,1.983,0,0,0-.131-.846.95.95,0,0,0-.524-.413q-.931-.367-.931-1.062a1.306,1.306,0,0,1,.642-1.082,7.807,7.807,0,0,1,2.15-.9A12.772,12.772,0,0,1,93.209-8.32Zm16.348-.092a7.239,7.239,0,0,1,4.208,1.245,6.67,6.67,0,0,1,2.084,2.32,6.444,6.444,0,0,1,.813,3.12,5.92,5.92,0,0,1-2.609,4.838,9.148,9.148,0,0,1-5.7,1.9,7.2,7.2,0,0,1-5.074-1.783,5.833,5.833,0,0,1-1.888-4.51,6.345,6.345,0,0,1,2.307-5.06A8.688,8.688,0,0,1,109.557-8.412Zm-1.049,3.028a1.132,1.132,0,0,0-.924.426,1.74,1.74,0,0,0-.347,1.134,10.728,10.728,0,0,0,.295,2.143,16.229,16.229,0,0,0,.7,2.406A1.4,1.4,0,0,0,109.557,1.8q1.167,0,1.167-1.481a12.313,12.313,0,0,0-.295-2.5,10.3,10.3,0,0,0-.714-2.281A1.388,1.388,0,0,0,108.508-5.384Zm16.584-3.028a6.4,6.4,0,0,1,3.867,1.154,3.41,3.41,0,0,1,1.173,1.409,5.763,5.763,0,0,1,.334,2.183l-.026,1.953a7.464,7.464,0,0,0,.288,2.635.9.9,0,0,0,.275.367,1.79,1.79,0,0,0,.551.144.48.48,0,0,1,.42.551,2.225,2.225,0,0,1-.5,1.311,4.191,4.191,0,0,1-1.3,1.141,4.009,4.009,0,0,1-2.058.577,2.7,2.7,0,0,1-2.176-.944.733.733,0,0,0-.511-.341,1.3,1.3,0,0,0-.695.328,4.92,4.92,0,0,1-2.976.957,4.793,4.793,0,0,1-2.779-.734,3.472,3.472,0,0,1-1.1-1.265,3.487,3.487,0,0,1-.406-1.632,3.243,3.243,0,0,1,1.1-2.412A7.192,7.192,0,0,1,123.7-2.7a1.867,1.867,0,0,0,.957-.151q.2-.151.2-.7a5.13,5.13,0,0,0-.288-2.012.976.976,0,0,0-.944-.623,1.123,1.123,0,0,0-.7.236,4.4,4.4,0,0,0-.767.865,3.163,3.163,0,0,1-2.438,1.665,1.474,1.474,0,0,1-1.049-.38,1.3,1.3,0,0,1-.406-1,2.012,2.012,0,0,1,.5-1.259,4.465,4.465,0,0,1,1.37-1.1A10.438,10.438,0,0,1,125.092-8.412Zm-.878,7.591a1.311,1.311,0,0,0-1,.472,1.625,1.625,0,0,0-.426,1.127,1.606,1.606,0,0,0,.3,1.016.964.964,0,0,0,.8.387q1.049,0,1.049-1.77a2.1,2.1,0,0,0-.151-.97A.637.637,0,0,0,124.214-.821ZM138.071-8.4a12.758,12.758,0,0,1,2.137.288,3.016,3.016,0,0,0,.5.052,3.214,3.214,0,0,0,.865-.236,1.454,1.454,0,0,1,.511-.118,1.663,1.663,0,0,1,1.219.773,5.723,5.723,0,0,1,.813,1.35,3.322,3.322,0,0,1,.315,1.272,1.15,1.15,0,0,1-.367.872,1.283,1.283,0,0,1-.918.347,1.526,1.526,0,0,1-.819-.223A8.724,8.724,0,0,1,141.165-5a2.309,2.309,0,0,0-1.39-.813.869.869,0,0,0-.636.269.869.869,0,0,0-.269.636q0,.642,1.232,1.206a11.386,11.386,0,0,1,3.4,2.176,3.316,3.316,0,0,1,1,2.438,3.69,3.69,0,0,1-1.6,3.042,5.351,5.351,0,0,1-3.369,1.062,17.784,17.784,0,0,1-1.862-.17q-1.272-.144-1.429-.144a2.3,2.3,0,0,0-.393.039,4.561,4.561,0,0,1-.551.052,1.408,1.408,0,0,1-.97-.315,4.477,4.477,0,0,1-1-1.527,4.591,4.591,0,0,1-.459-1.79q0-1.206.944-1.206a1.068,1.068,0,0,1,.675.243,16.524,16.524,0,0,1,1.291,1.291,4.73,4.73,0,0,0,.891.793,1.433,1.433,0,0,0,.76.216,1.017,1.017,0,0,0,.695-.229.77.77,0,0,0,.262-.61q0-.59-1.009-1.075a9.475,9.475,0,0,1-3.048-2.137,3.808,3.808,0,0,1-.937-2.543,4.018,4.018,0,0,1,.957-2.688A4.618,4.618,0,0,1,138.071-8.4ZM153.41-4.964V-.533A2.035,2.035,0,0,0,153.8.752a1.2,1.2,0,0,0,.99.5,3,3,0,0,0,1.35-.472A.759.759,0,0,1,156.53.66a.724.724,0,0,1,.577.38,1.425,1.425,0,0,1,.262.826,2.082,2.082,0,0,1-.891,1.56,6.719,6.719,0,0,1-4.51,1.586A4.74,4.74,0,0,1,148.6,3.826,4.076,4.076,0,0,1,147.326.7V-5.357a.6.6,0,0,0-.072-.374.6.6,0,0,0-.374-.072h-1.35q-.38,0-.485-.125a1.031,1.031,0,0,1-.1-.583v-.577a.662.662,0,0,1,.3-.577l6-3.776a1.166,1.166,0,0,1,.551-.118h1.062a.52.52,0,0,1,.439.151,1.092,1.092,0,0,1,.111.6v1.77a.731.731,0,0,0,.125.511.819.819,0,0,0,.531.118h2.425a.812.812,0,0,1,.629.177,1.312,1.312,0,0,1,.144.754v.773a1.51,1.51,0,0,1-.184.872.792.792,0,0,1-.669.243h-2.373a.71.71,0,0,0-.5.131A.71.71,0,0,0,153.41-4.964Zm16.755,3.749H164q-.406,0-.406.354A2.107,2.107,0,0,0,164.52.745a3.085,3.085,0,0,0,1.986.754,4.671,4.671,0,0,0,1.4-.243,4.546,4.546,0,0,0,1.265-.6,1.386,1.386,0,0,1,.708-.315.891.891,0,0,1,.669.42,1.392,1.392,0,0,1,.328.865,2.388,2.388,0,0,1-1.18,1.822,7.813,7.813,0,0,1-4.811,1.56,6.833,6.833,0,0,1-4.615-1.6,6.553,6.553,0,0,1-1.495-1.9A6.65,6.65,0,0,1,158-1.608a6.371,6.371,0,0,1,1.337-3.959,7.031,7.031,0,0,1,2.937-2.268,7.382,7.382,0,0,1,2.9-.564A6.5,6.5,0,0,1,169.4-6.983,5.664,5.664,0,0,1,170.82-5.3a4.39,4.39,0,0,1,.616,2.15,2.516,2.516,0,0,1-.354,1.4A1.06,1.06,0,0,1,170.164-1.215Zm-5.821-2.452h1.324q.839,0,.839-.773a1.646,1.646,0,0,0-.406-1.154,1.37,1.37,0,0,0-1.062-.446,1.349,1.349,0,0,0-1.154.577,1.83,1.83,0,0,0-.393,1.088.682.682,0,0,0,.19.551A1.058,1.058,0,0,0,164.343-3.666ZM178.41-8.32q.695,0,.846.2a3.511,3.511,0,0,1,.269,1.259q.066.577.406.577.262,0,.5-.38a3.147,3.147,0,0,1,2.74-1.639,2.62,2.62,0,0,1,1.953.773,2.946,2.946,0,0,1,.6.977,3.114,3.114,0,0,1,.236,1.147,3.1,3.1,0,0,1-.288,1.265,3.166,3.166,0,0,1-.747,1.068,2.871,2.871,0,0,1-2.058.8,2.4,2.4,0,0,1-1.121-.236,5.647,5.647,0,0,1-1.186-.957.767.767,0,0,0-.511-.275.475.475,0,0,0-.479.413,8.361,8.361,0,0,0-.111,1.737,16.43,16.43,0,0,0,.144,2.7,1.068,1.068,0,0,0,.256.544,1.951,1.951,0,0,0,.7.308q1.18.354,1.18,1.232a1.317,1.317,0,0,1-.38.937,1.88,1.88,0,0,1-1.009.531,19.467,19.467,0,0,1-3.7.262,11.664,11.664,0,0,1-3.527-.406,1.326,1.326,0,0,1-1.075-1.272,1.5,1.5,0,0,1,.787-1.219,1.979,1.979,0,0,0,.524-.452,1.283,1.283,0,0,0,.2-.557,30.351,30.351,0,0,0,.21-4.418,1.983,1.983,0,0,0-.131-.846.95.95,0,0,0-.524-.413q-.931-.367-.931-1.062a1.306,1.306,0,0,1,.642-1.082,7.806,7.806,0,0,1,2.15-.9A12.772,12.772,0,0,1,178.41-8.32ZM191.887-8.4a12.758,12.758,0,0,1,2.137.288,3.016,3.016,0,0,0,.5.052,3.214,3.214,0,0,0,.865-.236,1.453,1.453,0,0,1,.511-.118,1.662,1.662,0,0,1,1.219.773,5.723,5.723,0,0,1,.813,1.35,3.322,3.322,0,0,1,.315,1.272,1.15,1.15,0,0,1-.367.872,1.283,1.283,0,0,1-.918.347,1.526,1.526,0,0,1-.819-.223A8.725,8.725,0,0,1,194.981-5a2.308,2.308,0,0,0-1.39-.813.869.869,0,0,0-.636.269.869.869,0,0,0-.269.636q0,.642,1.232,1.206a11.386,11.386,0,0,1,3.4,2.176,3.316,3.316,0,0,1,1,2.438,3.69,3.69,0,0,1-1.6,3.042,5.351,5.351,0,0,1-3.369,1.062,17.785,17.785,0,0,1-1.862-.17q-1.272-.144-1.429-.144a2.3,2.3,0,0,0-.393.039,4.56,4.56,0,0,1-.551.052,1.408,1.408,0,0,1-.97-.315,4.477,4.477,0,0,1-1-1.527,4.591,4.591,0,0,1-.459-1.79q0-1.206.944-1.206a1.068,1.068,0,0,1,.675.243,16.522,16.522,0,0,1,1.291,1.291,4.73,4.73,0,0,0,.891.793,1.433,1.433,0,0,0,.76.216,1.017,1.017,0,0,0,.695-.229.77.77,0,0,0,.262-.61q0-.59-1.009-1.075a9.475,9.475,0,0,1-3.048-2.137,3.808,3.808,0,0,1-.937-2.543,4.018,4.018,0,0,1,.957-2.688A4.618,4.618,0,0,1,191.887-8.4Z" transform="translate(1355.335 7870.059)" fill="#fff"/>
    <g id="coffee-bean" transform="translate(1319.209 7856.225)">
      <path id="Path_1" data-name="Path 1" d="M6.446,0c2.84,0,5.25,2.543,6.109,6.073q-.324.284-.635.6a11.791,11.791,0,0,0-3.393,6.305,7.069,7.069,0,0,0,.48,4.143,5.11,5.11,0,0,1-1.753.664c1.194-4.714.617-7.057-.276-9.228C6.113,6.45,4.94,4.2,6.265,0l.182,0ZM23.31,5.436c2.517,2.517,1.733,7.384-1.753,10.87-3.217,3.217-7.61,4.133-10.246,2.277,4.177-2.489,5.426-4.554,6.329-6.721.873-2.1,1.638-4.522,5.541-6.549.042.038.087.081.129.123ZM10.888,18.246q-.1-.091-.2-.188c-2.517-2.517-1.733-7.384,1.753-10.87C15.724,3.9,20.232,3.019,22.848,5.03c-4.185,2.114-5.317,3.889-6.237,6.1a12.77,12.77,0,0,1-5.724,7.118Zm-4.169-.4c-.091.006-.182.008-.272.008-3.56,0-6.446-4-6.446-8.925C0,4.282,2.562.466,5.835.04c-1.466,4.454-1.011,6.509-.1,8.719a12.772,12.772,0,0,1,.984,9.082Z" fill="#0e8685" fill-rule="evenodd"/>
    </g>
  </g>
</svg>
