<svg xmlns="http://www.w3.org/2000/svg" width="174.633" height="14.55" viewBox="0 0 174.633 14.55">
  <g id="Group_1" data-name="Group 1" transform="translate(-1319.209 -7856.225)">
    <path id="Path_2" data-name="Path 2" d="M7.832-13.6a6.4,6.4,0,0,1,2.754.625,2.553,2.553,0,0,0,.869.293,2.936,2.936,0,0,0,.566-.088A1.262,1.262,0,0,1,12.3-12.8a1.122,1.122,0,0,1,.889.469,4.264,4.264,0,0,1,.938,2.813,1.936,1.936,0,0,1-.811,1.729,1.738,1.738,0,0,1-.986.293,1.4,1.4,0,0,1-.811-.215,2.128,2.128,0,0,1-.605-.762,8.658,8.658,0,0,0-.684-1.108,3.124,3.124,0,0,0-.645-.61,3.4,3.4,0,0,0-1.982-.664,1.949,1.949,0,0,0-1.6.728A3,3,0,0,0,5.42-8.184a5.805,5.805,0,0,0,.85,3.076,3.664,3.664,0,0,0,3.3,1.865,4.845,4.845,0,0,0,1.567-.264,3.15,3.15,0,0,0,1.206-.684,1.027,1.027,0,0,1,.605-.352.721.721,0,0,1,.586.317,1.22,1.22,0,0,1,.244.767,2.951,2.951,0,0,1-.342,1.27,3.281,3.281,0,0,1-.82,1.1,2.154,2.154,0,0,1-.85.293,4.271,4.271,0,0,0-.986.361A6.874,6.874,0,0,1,7.773.264,7.838,7.838,0,0,1,4.521-.469,6.656,6.656,0,0,1,1.543-3.076,6.618,6.618,0,0,1,.469-6.65a6.416,6.416,0,0,1,1.348-3.955,7.5,7.5,0,0,1,3.057-2.373A7.341,7.341,0,0,1,7.832-13.6ZM20.811-9.736a5.392,5.392,0,0,1,3.135.928A4.968,4.968,0,0,1,25.5-7.08,4.8,4.8,0,0,1,26.1-4.756a4.41,4.41,0,0,1-1.943,3.6A6.814,6.814,0,0,1,19.912.264a5.366,5.366,0,0,1-3.779-1.328,4.345,4.345,0,0,1-1.406-3.359,4.727,4.727,0,0,1,1.719-3.77A6.472,6.472,0,0,1,20.811-9.736ZM20.029-7.48a.844.844,0,0,0-.688.317,1.3,1.3,0,0,0-.259.845,7.992,7.992,0,0,0,.22,1.6,12.089,12.089,0,0,0,.522,1.792,1.039,1.039,0,0,0,.986.8q.869,0,.869-1.1A9.173,9.173,0,0,0,21.46-5.1a7.676,7.676,0,0,0-.532-1.7A1.034,1.034,0,0,0,20.029-7.48Zm12.529-.43H33.77a.776.776,0,0,1,.435.093.312.312,0,0,1,.112.308l-.078,1.162a.785.785,0,0,1-.107.444.564.564,0,0,1-.391.093q-.068,0-.322-.02-.176-.01-.293-.01a.576.576,0,0,0-.557.269,2.394,2.394,0,0,0-.146,1.021,5.742,5.742,0,0,0,.225,1.729.9.9,0,0,0,.254.444,1.484,1.484,0,0,0,.547.249q.859.254.859.947,0,.732-1,1.055A11.845,11.845,0,0,1,30.02.2q-3.389,0-3.389-1.348a.711.711,0,0,1,.142-.488A1.941,1.941,0,0,1,27.393-2a1.08,1.08,0,0,0,.625-.869,12,12,0,0,0,.166-2.051,1.027,1.027,0,0,0-.171-.679.787.787,0,0,0-.62-.181,2.528,2.528,0,0,1-.674-.054q-.146-.054-.137-.259l.078-1.23a.6.6,0,0,1,.1-.376.935.935,0,0,1,.464-.093q.361-.02.361-.352a1.967,1.967,0,0,0-.264-.625,3.318,3.318,0,0,1-.449-1.621,2.516,2.516,0,0,1,.82-1.943,4.917,4.917,0,0,1,3.447-1.1,4.635,4.635,0,0,1,2.949.869,1.955,1.955,0,0,1,.85,1.553,1.48,1.48,0,0,1-.42,1.069,1.394,1.394,0,0,1-1.045.435A2.2,2.2,0,0,1,32.129-10a10.516,10.516,0,0,1-.742-.771,1.182,1.182,0,0,0-.84-.449.639.639,0,0,0-.469.2.651.651,0,0,0-.2.479q0,.771,1.465,1.65a3.824,3.824,0,0,1,.61.43,1.409,1.409,0,0,1,.288.439Q32.314-7.91,32.559-7.91Zm8.486,0h1.211a.776.776,0,0,1,.435.093.312.312,0,0,1,.112.308l-.078,1.162a.785.785,0,0,1-.107.444.564.564,0,0,1-.391.093q-.068,0-.322-.02-.176-.01-.293-.01a.576.576,0,0,0-.557.269,2.394,2.394,0,0,0-.146,1.021,5.742,5.742,0,0,0,.225,1.729.9.9,0,0,0,.254.444,1.484,1.484,0,0,0,.547.249q.859.254.859.947,0,.732-1,1.055A11.845,11.845,0,0,1,38.506.2q-3.389,0-3.389-1.348a.711.711,0,0,1,.142-.488A1.941,1.941,0,0,1,35.879-2a1.08,1.08,0,0,0,.625-.869,12,12,0,0,0,.166-2.051A1.027,1.027,0,0,0,36.5-5.6a.787.787,0,0,0-.62-.181,2.528,2.528,0,0,1-.674-.054q-.146-.054-.137-.259l.078-1.23a.6.6,0,0,1,.1-.376.935.935,0,0,1,.464-.093q.361-.02.361-.352a1.967,1.967,0,0,0-.264-.625,3.318,3.318,0,0,1-.449-1.621,2.516,2.516,0,0,1,.82-1.943,4.917,4.917,0,0,1,3.447-1.1,4.635,4.635,0,0,1,2.949.869,1.955,1.955,0,0,1,.85,1.553,1.48,1.48,0,0,1-.42,1.069,1.394,1.394,0,0,1-1.045.435A2.2,2.2,0,0,1,40.615-10a10.516,10.516,0,0,1-.742-.771,1.182,1.182,0,0,0-.84-.449.639.639,0,0,0-.469.2.651.651,0,0,0-.2.479q0,.771,1.465,1.65a3.824,3.824,0,0,1,.61.43,1.409,1.409,0,0,1,.288.439Q40.8-7.91,41.045-7.91ZM52.8-4.375h-4.59q-.3,0-.3.264a1.569,1.569,0,0,0,.688,1.2,2.3,2.3,0,0,0,1.479.562,3.479,3.479,0,0,0,1.04-.181,3.386,3.386,0,0,0,.942-.444,1.033,1.033,0,0,1,.527-.234.664.664,0,0,1,.5.313,1.037,1.037,0,0,1,.244.645A1.778,1.778,0,0,1,52.451-.9,5.82,5.82,0,0,1,48.867.264,5.09,5.09,0,0,1,45.43-.928a4.882,4.882,0,0,1-1.113-1.416,4.954,4.954,0,0,1-.576-2.324,4.746,4.746,0,0,1,1-2.949,5.237,5.237,0,0,1,2.188-1.689,5.5,5.5,0,0,1,2.158-.42,4.844,4.844,0,0,1,3.154,1.055,4.219,4.219,0,0,1,1.055,1.25,3.27,3.27,0,0,1,.459,1.6,1.874,1.874,0,0,1-.264,1.04A.789.789,0,0,1,52.8-4.375ZM48.467-6.2h.986q.625,0,.625-.576a1.226,1.226,0,0,0-.3-.859,1.02,1.02,0,0,0-.791-.332,1,1,0,0,0-.859.43,1.363,1.363,0,0,0-.293.811.508.508,0,0,0,.142.41A.788.788,0,0,0,48.467-6.2ZM63.408-4.375h-4.59q-.3,0-.3.264a1.569,1.569,0,0,0,.688,1.2,2.3,2.3,0,0,0,1.479.562,3.479,3.479,0,0,0,1.04-.181,3.386,3.386,0,0,0,.942-.444,1.033,1.033,0,0,1,.527-.234.664.664,0,0,1,.5.313,1.037,1.037,0,0,1,.244.645A1.778,1.778,0,0,1,63.057-.9,5.82,5.82,0,0,1,59.473.264,5.09,5.09,0,0,1,56.035-.928a4.882,4.882,0,0,1-1.113-1.416,4.954,4.954,0,0,1-.576-2.324,4.746,4.746,0,0,1,1-2.949,5.237,5.237,0,0,1,2.188-1.689,5.5,5.5,0,0,1,2.158-.42,4.844,4.844,0,0,1,3.154,1.055A4.219,4.219,0,0,1,63.9-7.422a3.27,3.27,0,0,1,.459,1.6,1.874,1.874,0,0,1-.264,1.04A.789.789,0,0,1,63.408-4.375ZM59.072-6.2h.986q.625,0,.625-.576a1.226,1.226,0,0,0-.3-.859,1.02,1.02,0,0,0-.791-.332,1,1,0,0,0-.859.43,1.363,1.363,0,0,0-.293.811.508.508,0,0,0,.142.41A.788.788,0,0,0,59.072-6.2ZM69.551-9.668q.518,0,.63.146a2.616,2.616,0,0,1,.2.938q.049.43.3.43.2,0,.371-.283A2.344,2.344,0,0,1,73.1-9.658a1.952,1.952,0,0,1,1.455.576A2.195,2.195,0,0,1,75-8.354a2.319,2.319,0,0,1,.176.854,2.312,2.312,0,0,1-.215.942,2.358,2.358,0,0,1-.557.8,2.138,2.138,0,0,1-1.533.6,1.791,1.791,0,0,1-.835-.176,4.207,4.207,0,0,1-.884-.713.572.572,0,0,0-.381-.205.354.354,0,0,0-.356.308,6.227,6.227,0,0,0-.083,1.294,12.238,12.238,0,0,0,.107,2.012.8.8,0,0,0,.19.405,1.453,1.453,0,0,0,.522.229q.879.264.879.918a.981.981,0,0,1-.283.7A1.4,1.4,0,0,1,71,0a14.5,14.5,0,0,1-2.754.2,8.689,8.689,0,0,1-2.627-.3.988.988,0,0,1-.8-.947,1.119,1.119,0,0,1,.586-.908,1.474,1.474,0,0,0,.391-.337.955.955,0,0,0,.146-.415,22.61,22.61,0,0,0,.156-3.291,1.477,1.477,0,0,0-.1-.63.708.708,0,0,0-.391-.308q-.693-.273-.693-.791a.973.973,0,0,1,.479-.806,5.815,5.815,0,0,1,1.6-.669A9.514,9.514,0,0,1,69.551-9.668Zm12.178-.068a5.392,5.392,0,0,1,3.135.928A4.968,4.968,0,0,1,86.416-7.08a4.8,4.8,0,0,1,.605,2.324,4.41,4.41,0,0,1-1.943,3.6A6.814,6.814,0,0,1,80.83.264a5.366,5.366,0,0,1-3.779-1.328,4.345,4.345,0,0,1-1.406-3.359,4.727,4.727,0,0,1,1.719-3.77A6.472,6.472,0,0,1,81.729-9.736ZM80.947-7.48a.844.844,0,0,0-.688.317A1.3,1.3,0,0,0,80-6.318a7.992,7.992,0,0,0,.22,1.6,12.089,12.089,0,0,0,.522,1.792,1.039,1.039,0,0,0,.986.8q.869,0,.869-1.1a9.173,9.173,0,0,0-.22-1.865,7.676,7.676,0,0,0-.532-1.7A1.034,1.034,0,0,0,80.947-7.48ZM93.3-9.736a4.765,4.765,0,0,1,2.881.859,2.54,2.54,0,0,1,.874,1.05A4.293,4.293,0,0,1,97.3-6.2l-.02,1.455A5.56,5.56,0,0,0,97.5-2.783a.666.666,0,0,0,.205.273,1.333,1.333,0,0,0,.41.107.358.358,0,0,1,.313.41,1.657,1.657,0,0,1-.376.977,3.122,3.122,0,0,1-.972.85,2.986,2.986,0,0,1-1.533.43,2.013,2.013,0,0,1-1.621-.7.546.546,0,0,0-.381-.254.969.969,0,0,0-.518.244,3.665,3.665,0,0,1-2.217.713,3.57,3.57,0,0,1-2.07-.547,2.586,2.586,0,0,1-.82-.942,2.6,2.6,0,0,1-.3-1.216,2.416,2.416,0,0,1,.82-1.8,5.357,5.357,0,0,1,3.828-1.24,1.391,1.391,0,0,0,.713-.112q.146-.112.146-.522a3.821,3.821,0,0,0-.215-1.5.727.727,0,0,0-.7-.464.836.836,0,0,0-.522.176,3.28,3.28,0,0,0-.571.645A2.356,2.356,0,0,1,89.3-6.016a1.1,1.1,0,0,1-.781-.283.969.969,0,0,1-.3-.742,1.5,1.5,0,0,1,.376-.937,3.326,3.326,0,0,1,1.021-.82A7.775,7.775,0,0,1,93.3-9.736Zm-.654,5.654a.977.977,0,0,0-.747.352,1.211,1.211,0,0,0-.317.84,1.2,1.2,0,0,0,.225.757.718.718,0,0,0,.6.288q.781,0,.781-1.318a1.561,1.561,0,0,0-.112-.723A.474.474,0,0,0,92.646-4.082Zm10.322-5.645a9.5,9.5,0,0,1,1.592.215,2.247,2.247,0,0,0,.371.039,2.394,2.394,0,0,0,.645-.176,1.083,1.083,0,0,1,.381-.088,1.238,1.238,0,0,1,.908.576,4.262,4.262,0,0,1,.605,1.006,2.474,2.474,0,0,1,.234.947.857.857,0,0,1-.273.649.956.956,0,0,1-.684.259,1.137,1.137,0,0,1-.61-.166,6.5,6.5,0,0,1-.864-.732,1.72,1.72,0,0,0-1.035-.605.647.647,0,0,0-.474.2.647.647,0,0,0-.2.474q0,.479.918.9a8.482,8.482,0,0,1,2.529,1.621,2.47,2.47,0,0,1,.742,1.816,2.749,2.749,0,0,1-1.191,2.266,3.986,3.986,0,0,1-2.51.791,13.248,13.248,0,0,1-1.387-.127Q101.719.029,101.6.029a1.71,1.71,0,0,0-.293.029A3.4,3.4,0,0,1,100.9.1a1.049,1.049,0,0,1-.723-.234,3.335,3.335,0,0,1-.742-1.138,3.42,3.42,0,0,1-.342-1.333q0-.9.7-.9a.8.8,0,0,1,.5.181,12.308,12.308,0,0,1,.962.962,3.524,3.524,0,0,0,.664.591,1.067,1.067,0,0,0,.566.161.758.758,0,0,0,.518-.171.574.574,0,0,0,.2-.454q0-.439-.752-.8a7.058,7.058,0,0,1-2.271-1.592,2.836,2.836,0,0,1-.7-1.895,2.993,2.993,0,0,1,.713-2A3.44,3.44,0,0,1,102.969-9.727Zm11.426,2.559v3.3a1.516,1.516,0,0,0,.288.957.894.894,0,0,0,.737.371,2.232,2.232,0,0,0,1.006-.352.565.565,0,0,1,.293-.088.539.539,0,0,1,.43.283,1.062,1.062,0,0,1,.2.615,1.551,1.551,0,0,1-.664,1.162A5,5,0,0,1,113.32.264a3.531,3.531,0,0,1-2.51-.884,3.036,3.036,0,0,1-.947-2.329V-7.461a.448.448,0,0,0-.054-.278.448.448,0,0,0-.278-.054h-1.006q-.283,0-.361-.093a.768.768,0,0,1-.078-.435v-.43a.493.493,0,0,1,.225-.43l4.473-2.812a.869.869,0,0,1,.41-.088h.791a.388.388,0,0,1,.327.112.813.813,0,0,1,.083.444v1.318a.545.545,0,0,0,.093.381.61.61,0,0,0,.4.088h1.807a.6.6,0,0,1,.469.132.977.977,0,0,1,.107.562v.576a1.124,1.124,0,0,1-.137.649.59.59,0,0,1-.5.181h-1.768a.529.529,0,0,0-.371.1A.529.529,0,0,0,114.395-7.168Zm12.48,2.793h-4.59q-.3,0-.3.264a1.569,1.569,0,0,0,.688,1.2,2.3,2.3,0,0,0,1.479.562,3.479,3.479,0,0,0,1.04-.181,3.386,3.386,0,0,0,.942-.444,1.033,1.033,0,0,1,.527-.234.664.664,0,0,1,.5.313,1.037,1.037,0,0,1,.244.645A1.778,1.778,0,0,1,126.523-.9,5.82,5.82,0,0,1,122.939.264,5.09,5.09,0,0,1,119.5-.928a4.882,4.882,0,0,1-1.113-1.416,4.954,4.954,0,0,1-.576-2.324,4.746,4.746,0,0,1,1-2.949A5.237,5.237,0,0,1,121-9.307a5.5,5.5,0,0,1,2.158-.42,4.844,4.844,0,0,1,3.154,1.055,4.219,4.219,0,0,1,1.055,1.25,3.27,3.27,0,0,1,.459,1.6,1.874,1.874,0,0,1-.264,1.04A.789.789,0,0,1,126.875-4.375ZM122.539-6.2h.986q.625,0,.625-.576a1.226,1.226,0,0,0-.3-.859,1.02,1.02,0,0,0-.791-.332,1,1,0,0,0-.859.43,1.363,1.363,0,0,0-.293.811.508.508,0,0,0,.142.41A.788.788,0,0,0,122.539-6.2Zm10.479-3.467q.518,0,.63.146a2.616,2.616,0,0,1,.2.938q.049.43.3.43.2,0,.371-.283a2.344,2.344,0,0,1,2.041-1.221,1.952,1.952,0,0,1,1.455.576,2.195,2.195,0,0,1,.449.728,2.319,2.319,0,0,1,.176.854,2.312,2.312,0,0,1-.215.942,2.358,2.358,0,0,1-.557.8,2.138,2.138,0,0,1-1.533.6,1.791,1.791,0,0,1-.835-.176,4.207,4.207,0,0,1-.884-.713.572.572,0,0,0-.381-.205.354.354,0,0,0-.356.308,6.227,6.227,0,0,0-.083,1.294,12.238,12.238,0,0,0,.107,2.012.8.8,0,0,0,.19.405,1.453,1.453,0,0,0,.522.229q.879.264.879.918a.981.981,0,0,1-.283.7,1.4,1.4,0,0,1-.752.4,14.5,14.5,0,0,1-2.754.2,8.689,8.689,0,0,1-2.627-.3.988.988,0,0,1-.8-.947,1.119,1.119,0,0,1,.586-.908,1.474,1.474,0,0,0,.391-.337.956.956,0,0,0,.146-.415,22.609,22.609,0,0,0,.156-3.291,1.477,1.477,0,0,0-.1-.63.708.708,0,0,0-.391-.308q-.693-.273-.693-.791a.973.973,0,0,1,.479-.806,5.815,5.815,0,0,1,1.6-.669A9.514,9.514,0,0,1,133.018-9.668Zm10.039-.059a9.5,9.5,0,0,1,1.592.215,2.247,2.247,0,0,0,.371.039,2.394,2.394,0,0,0,.645-.176,1.083,1.083,0,0,1,.381-.088,1.238,1.238,0,0,1,.908.576,4.263,4.263,0,0,1,.605,1.006,2.474,2.474,0,0,1,.234.947.857.857,0,0,1-.273.649.956.956,0,0,1-.684.259,1.137,1.137,0,0,1-.61-.166,6.5,6.5,0,0,1-.864-.732,1.72,1.72,0,0,0-1.035-.605.647.647,0,0,0-.474.2.647.647,0,0,0-.2.474q0,.479.918.9A8.482,8.482,0,0,1,147.1-4.609a2.47,2.47,0,0,1,.742,1.816A2.749,2.749,0,0,1,146.65-.527a3.986,3.986,0,0,1-2.51.791,13.248,13.248,0,0,1-1.387-.127q-.947-.107-1.064-.107a1.71,1.71,0,0,0-.293.029,3.4,3.4,0,0,1-.41.039,1.049,1.049,0,0,1-.723-.234,3.335,3.335,0,0,1-.742-1.138,3.42,3.42,0,0,1-.342-1.333q0-.9.7-.9a.8.8,0,0,1,.5.181,12.306,12.306,0,0,1,.962.962,3.523,3.523,0,0,0,.664.591,1.067,1.067,0,0,0,.566.161.758.758,0,0,0,.518-.171.574.574,0,0,0,.2-.454q0-.439-.752-.8a7.058,7.058,0,0,1-2.271-1.592,2.836,2.836,0,0,1-.7-1.895,2.993,2.993,0,0,1,.713-2A3.44,3.44,0,0,1,143.057-9.727Z" transform="translate(1346 7870)" fill="#2e373c"/>
    <g id="coffee-bean" transform="translate(1319.209 7856.225)">
      <path id="Path_1" data-name="Path 1" d="M4.8,0C6.917,0,8.713,1.895,9.353,4.524q-.241.212-.473.443a8.783,8.783,0,0,0-2.527,4.7A5.266,5.266,0,0,0,6.71,12.75a3.807,3.807,0,0,1-1.306.494c.889-3.511.46-5.257-.206-6.874A7.887,7.887,0,0,1,4.667,0L4.8,0ZM17.364,4.049c1.875,1.875,1.291,5.5-1.306,8.1-2.4,2.4-5.669,3.079-7.632,1.7,3.112-1.854,4.042-3.393,4.715-5.006a7.881,7.881,0,0,1,4.127-4.878c.032.029.065.06.1.092ZM8.11,13.591q-.077-.068-.149-.14c-1.875-1.875-1.291-5.5,1.306-8.1,2.446-2.446,5.8-3.106,7.753-1.608-3.118,1.575-3.96,2.9-4.646,4.542a9.512,9.512,0,0,1-4.264,5.3ZM5,13.291c-.068,0-.135.006-.2.006C2.15,13.3,0,10.32,0,6.648,0,3.19,1.908.347,4.347.03c-1.092,3.317-.753,4.848-.075,6.5A9.514,9.514,0,0,1,5,13.291Z" fill="#0e8685" fill-rule="evenodd"/>
    </g>
  </g>
</svg>
