<?xml version="1.0" standalone="no"?>
<!DOCTYPE svg PUBLIC "-//W3C//DTD SVG 1.1//EN" "http://www.w3.org/Graphics/SVG/1.1/DTD/svg11.dtd" >
<svg xmlns="http://www.w3.org/2000/svg" xmlns:xlink="http://www.w3.org/1999/xlink" version="1.1">
<metadata>
Created by FontForge 20170731 at Fri Jan  1 02:30:17 1904
 By Aleksey,,,
Converted by ALLTYPE
</metadata>
<defs>
<font id="Cooper" horiz-adv-x="278" >
  <font-face 
    font-family="Cooper"
    font-weight="5"
    font-stretch="normal"
    units-per-em="1000"
    panose-1="0 0 0 0 0 0 0 0 0 0"
    ascent="800"
    descent="-200"
    x-height="482"
    cap-height="676"
    bbox="-168 -250 1236 918"
    underline-thickness="50"
    underline-position="-155"
    unicode-range="U+0020-F002"
  />
<missing-glyph horiz-adv-x="369" 
d="M303 445v-433q0 -67 -10 -102.5t-35 -55.5q-24 -19 -58.5 -31t-70.5 -15q-5 -1 -10 -1h-10q-47 0 -79 19t-32 46q0 13 8.5 23t20.5 10q2 0 4 -0.5t4 -0.5t4 -0.5t4 -0.5q5 -1 7 -1h2q12 0 19.5 8t7.5 20q0 6 -1 11.5t-1 11.5q-1 5 -2 11t-1 12v310q0 23 -9.5 34t-21.5 17
q-2 1 -3.5 1.5t-2.5 1.5q-10 5 -17.5 12t-7.5 21q0 35 43 57.5t95 35.5q37 9 70.5 13t51.5 4q17 0 24 -8.5t7 -30.5v1zM196 667q7 -1 15.5 -1.5t16.5 -1.5q24 -4 44 -17t20 -40q0 -40 -52 -67t-129 -27q-38 0 -62 16.5t-24 43.5q0 37 49.5 64t121.5 29v1z" />
    <glyph glyph-name=".notdef" horiz-adv-x="369" 
d="M303 445v-433q0 -67 -10 -102.5t-35 -55.5q-24 -19 -58.5 -31t-70.5 -15q-5 -1 -10 -1h-10q-47 0 -79 19t-32 46q0 13 8.5 23t20.5 10q2 0 4 -0.5t4 -0.5t4 -0.5t4 -0.5q5 -1 7 -1h2q12 0 19.5 8t7.5 20q0 6 -1 11.5t-1 11.5q-1 5 -2 11t-1 12v310q0 23 -9.5 34t-21.5 17
q-2 1 -3.5 1.5t-2.5 1.5q-10 5 -17.5 12t-7.5 21q0 35 43 57.5t95 35.5q37 9 70.5 13t51.5 4q17 0 24 -8.5t7 -30.5v1zM196 667q7 -1 15.5 -1.5t16.5 -1.5q24 -4 44 -17t20 -40q0 -40 -52 -67t-129 -27q-38 0 -62 16.5t-24 43.5q0 37 49.5 64t121.5 29v1z" />
    <glyph glyph-name="glyph1" horiz-adv-x="0" 
 />
    <glyph glyph-name="glyph2" 
 />
    <glyph glyph-name="space" unicode=" " 
 />
    <glyph glyph-name="space" unicode="&#xa0;" 
 />
    <glyph glyph-name="exclam" unicode="!" horiz-adv-x="308" 
d="M152 198q46 -1 77 -31t31 -75q0 -44 -31.5 -74.5t-76.5 -30.5q-41 0 -72 30.5t-31 70.5q0 46 30 77.5t73 31.5v1zM153 660q50 -1 82.5 -41t32.5 -102q0 -14 -1 -28t-3 -29q-8 -51 -29 -100.5t-52 -87.5q-8 -10 -16 -15t-15 -5q-12 0 -30 23.5t-38 66.5q-7 15 -13 30
t-11 31q-10 30 -15 60t-5 56q0 63 31 101.5t82 38.5v1z" />
    <glyph glyph-name="quotedbl" unicode="&#x22;" horiz-adv-x="506" 
d="M162 388h-24q-22 -1 -28 3.5t-8 27.5v1.5v1.5l-20 210q-1 6 -1 10.5v5.5q0 11 6 14t25 3l76 1q20 -1 25.5 -4t5.5 -14v-5.5t-1 -11.5l-20 -208v-2.5v-1.5q-2 -23 -8 -27.5t-28 -4.5v1zM368 388h-24q-22 -1 -28 3.5t-8 27.5v1.5v1.5l-20 210q-1 6 -1 10.5v5.5q0 11 5.5 14
t25.5 3l76 1q20 -1 25.5 -4t5.5 -14v-5.5t-1 -11.5l-20 -208v-2.5v-1.5q-2 -23 -8 -27.5t-28 -4.5v1z" />
    <glyph glyph-name="numbersign" unicode="#" horiz-adv-x="600" 
d="M118 302l14 -1q10 -1 15 10.5t8 25.5q1 9 1.5 17t0.5 13q0 6 -4.5 8t-18.5 2l-25 1q-18 -1 -26.5 5.5t-8.5 20.5v44q0 16 9.5 22.5t33.5 6.5l29 1q19 -1 24 2t8 20q0 2 0.5 3t0.5 3l20 126q3 16 11 25t21 9l56 1q11 -1 17 -6.5t6 -16.5v-3v-3q0 -2 -0.5 -3.5t-0.5 -3.5
l-21 -134l-1.5 -7.5t-0.5 -3.5q0 -6 4 -7.5t14 -1.5l38 1q13 -1 16.5 1.5t5.5 13.5q1 1 1 1.5v1.5l21 136q3 16 11 25t22 9l56 1q11 -1 16.5 -6.5t5.5 -16.5v-3v-3q0 -2 -0.5 -3.5t-0.5 -3.5l-20 -124q-1 -8 -1.5 -12.5t-0.5 -6.5q0 -7 3 -9t13 -2l18 1q28 -1 37 -8.5
t9 -28.5v-36q0 -17 -8 -22.5t-36 -5.5l-27 1q-18 -1 -22.5 -3t-6.5 -13q-1 -1 -1 -2v-2q-1 -4 -1.5 -8.5t-1.5 -9.5q-2 -7 -3 -14.5t-1 -15.5q0 -6 3 -7.5t13 -1.5l18 1q28 -1 37.5 -8.5t9.5 -28.5v-36q0 -17 -8.5 -22.5t-36.5 -5.5l-27 1q-18 -1 -22.5 -3.5t-6.5 -14.5
q-1 -1 -1 -2v-2l-24 -145q-2 -19 -10 -27t-22 -8h-56q-11 0 -17 5.5t-6 16.5v2.5t1 2.5v3.5v3.5l24 147v3t1 3v3v1q0 6 -3 8t-14 2l-39 1q-11 -1 -15 -3t-6 -12q-1 -1 -1.5 -3t-0.5 -4l-23 -145q-2 -19 -10 -27t-22 -8h-56q-11 0 -17 5.5t-6 16.5v2.5t1 2.5v3.5v3.5l23 147
q1 3 1.5 6t0.5 4q0 6 -4.5 8t-18.5 2l-25 1q-18 -1 -26.5 5.5t-8.5 20.5v44q0 16 9.5 22.5t33.5 6.5l29 1v0zM266 359l-2 -10l-2 -10v-2.5t-1 -2.5l-2 -12t-1 -12t3.5 -7.5t14.5 -1.5l38 1q13 -1 16.5 1t5.5 12q0 1 0.5 2.5t0.5 2.5q1 4 1.5 8.5t1.5 8.5q2 8 3 15.5t1 14.5
q0 6 -3 8t-14 2l-39 1q-12 -1 -15.5 -3t-5.5 -12q0 -1 -0.5 -2.5t-0.5 -2.5v1z" />
    <glyph glyph-name="dollar" unicode="$" horiz-adv-x="600" 
d="M237 593v23q0 19 6.5 25t25.5 6l41 1q20 -1 26 -7t6 -26v-22q0 -8 0.5 -11t2.5 -5l3.5 -3.5l3.5 -3.5q3 -1 10 -3t16 -4q2 0 4 -0.5t5 -1.5q11 -2 21.5 -4t13.5 -2t6.5 0.5t6.5 2.5q1 0 3 0.5t3 1.5q5 2 10 3.5t10 1.5q23 0 45 -24t35 -53q6 -14 10 -28t4 -25
q0 -28 -14 -43.5t-37 -15.5q-8 0 -15.5 2.5t-14.5 7.5q-12 7 -23 17t-24 21q-20 17 -44 32t-55 15q-24 0 -38 -11.5t-14 -31.5q0 -12 3 -20t15 -15q12 -8 36 -16t66 -20q89 -27 130 -70.5t41 -111.5q0 -79 -63.5 -136.5t-140.5 -62.5q-14 -2 -17.5 -5.5t-3.5 -17.5v-23
q0 -20 -6 -26t-26 -6h-41q-19 0 -25.5 6t-6.5 26v23q0 13 -2.5 17t-11.5 5q-41 5 -77 15.5t-56 22.5q-5 3 -8.5 5.5t-5.5 5.5q-11 14 -21 38t-16 50q-3 13 -4.5 26t-1.5 24q0 20 9 32.5t23 12.5q15 0 25.5 -8.5t20.5 -21.5q7 -8 13 -17.5t14 -18.5q19 -25 48.5 -46t82.5 -21
q29 0 48.5 12.5t19.5 30.5q0 8 -1.5 14t-8.5 12q-9 7 -32 16.5t-70 25.5q-86 31 -131.5 80.5t-45.5 113.5q0 62 29 99.5t64 57.5q34 20 62 28t31 11l0.5 0.5l0.5 0.5q1 2 1.5 5t0.5 11v1z" />
    <glyph glyph-name="percent" unicode="%" horiz-adv-x="811" 
d="M309 243l148 250q24 40 44.5 77t34.5 67q3 6 6 11t6 9q9 13 19 17.5t26 4.5q24 0 35 -6t11 -18q0 -9 -17.5 -39.5t-39.5 -64.5q-1 -2 -2.5 -4t-2.5 -3q-17 -27 -32.5 -51.5t-23.5 -37.5l-151 -255q-8 -16 -16.5 -30.5t-16.5 -29.5t-16.5 -29.5t-16.5 -29.5
q-4 -7 -8 -16.5t-9 -18.5q-10 -20 -22.5 -35.5t-32.5 -15.5q-25 0 -40.5 7t-15.5 19q0 4 20 38t45 74q0 1 1 2t1 2q22 35 41.5 65.5t24.5 39.5v1zM613 334q3 -1 6.5 -1h7.5q64 -5 117.5 -48t53.5 -113q0 -73 -60.5 -125t-145.5 -52q-79 0 -129.5 44t-50.5 112q0 78 55.5 128
t145.5 54v1zM588 258q-13 -1 -21 -10.5t-8 -26.5q0 -10 2.5 -28.5t7.5 -38.5q7 -28 19 -51.5t30 -23.5q14 0 21.5 9.5t7.5 28.5q0 55 -18 97.5t-41 42.5v1zM214 676q3 -1 6.5 -1h7.5q64 -5 117.5 -48t53.5 -113q0 -73 -60.5 -125.5t-145.5 -52.5q-79 0 -129 44.5t-50 113.5
q0 77 55 127t145 54v1zM190 601q-13 -1 -21.5 -11t-8.5 -27q0 -9 2.5 -28t7.5 -40q7 -28 19 -51t31 -23q14 0 21 10t7 28q0 55 -17.5 98t-40.5 43v1z" />
    <glyph glyph-name="ampersand" unicode="&#x26;" horiz-adv-x="869" 
d="M412 551q-3 1 -6 3l-6 4q-14 10 -29.5 18t-33.5 8q-25 0 -41 -18.5t-16 -46.5q0 -34 16 -44.5t36 -14.5q1 -1 2.5 -1t2.5 -1q18 -3 32 -10.5t14 -31.5q0 -38 -26.5 -53t-57.5 -20h-1.5h-1.5q-11 -1 -17 -12.5t-6 -31.5q0 -73 57 -134.5t131 -61.5q59 0 102 34t43 80
q0 25 -18 41.5t-45 16.5q-22 0 -35 -11t-23 -24q-3 -4 -5.5 -8t-4.5 -8q-7 -8 -13.5 -14t-15.5 -6q-16 0 -28.5 21t-12.5 46q0 62 42 108.5t122 76.5q29 11 48 19t30 16t15 16.5t4 18.5q0 11 -7 18t-16 7q-3 0 -6 -1l-6 -2l-6 -2t-6 -1q-9 0 -15 6t-6 15q0 24 20.5 40
t45.5 25q16 6 31.5 9t24.5 3q66 0 107.5 -34.5t41.5 -88.5q0 -45 -22.5 -75t-48.5 -50q-27 -20 -49 -33t-23 -25v-0.5v-0.5q0 -6 11.5 -14t24.5 -21q14 -12 25 -30.5t11 -46.5q0 -97 -116.5 -167t-278.5 -70q-70 0 -133.5 13.5t-114.5 39.5q-53 27 -90 74t-48 98
q-2 9 -3 18.5t-1 18.5q0 50 22.5 87.5t64.5 58.5q5 3 8.5 5t5.5 5q2 2 3 4t1 5q0 5 -5.5 15.5t-11.5 24.5q-4 8 -8 17t-6 18q-2 7 -3 13t-1 12q0 70 70.5 124t161.5 54q74 0 123.5 -26.5t49.5 -64.5q0 -22 -17 -39t-39 -17q-6 0 -11 1.5t-9 3.5v1z" />
    <glyph glyph-name="quotesingle" unicode="'" horiz-adv-x="300" 
d="M162 388h-24q-22 -1 -28 3.5t-8 27.5v1.5v1.5l-20 210q-1 6 -1 10.5v5.5q0 11 6 14t25 3l76 1q20 -1 25.5 -4t5.5 -14v-5.5t-1 -11.5l-20 -208v-2.5v-1.5q-2 -23 -8 -27.5t-28 -4.5v1z" />
    <glyph glyph-name="parenleft" unicode="(" horiz-adv-x="498" 
d="M436 580q-5 0 -10 0.5t-10 1.5q-5 0 -10 0.5t-10 0.5q-51 0 -76.5 -57.5t-36.5 -126.5q-7 -46 -9 -88.5t-2 -68.5q0 -25 2 -68.5t10 -89.5q12 -69 40 -126t83 -57h6t9 1h7t4 1q10 1 13.5 1h5.5h1v0q17 0 26 -12.5t9 -35.5t-25 -34.5t-73 -11.5q-140 0 -232 126t-92 318
q0 191 84.5 306.5t224.5 115.5q59 0 85.5 -12t26.5 -39q0 -22 -8.5 -35t-23.5 -13q-4 0 -9 0.5t-10 1.5v1z" />
    <glyph glyph-name="parenright" unicode=")" horiz-adv-x="498" 
d="M62 -92q2 0 4.5 -0.5t5.5 -1.5q7 -1 14.5 -2t14.5 -1q52 0 78 56.5t36 125.5q7 47 8.5 90t1.5 68q0 26 -2 68.5t-10 89.5q-12 69 -39.5 126.5t-82.5 57.5q-6 0 -11.5 -0.5t-11.5 -0.5q-6 -1 -11.5 -1.5t-11.5 -0.5q-17 0 -26 12.5t-9 35.5t25 34.5t73 11.5
q140 0 232 -126t92 -319q0 -191 -84.5 -306t-224.5 -115q-58 0 -85.5 12.5t-27.5 38.5q0 22 9 35t24 13h8.5t10.5 -1v0z" />
    <glyph glyph-name="asterisk" unicode="*" horiz-adv-x="600" 
d="M167 568q5 -3 12.5 -6.5t16.5 -6.5l4 -2t5 -2q10 -4 20 -7t16 -3q5 0 6.5 3t1.5 10q0 9 -0.5 18.5t-0.5 19.5t-0.5 19.5t-0.5 18.5q0 29 8.5 37.5t39.5 8.5q40 0 49.5 -7.5t9.5 -38.5q0 -9 -0.5 -18.5t-0.5 -19.5q-1 -10 -1.5 -19.5t-0.5 -18.5q0 -7 2 -10t6 -3q6 0 16 3
t21 7l4 2l4 2q9 3 16.5 6.5t12.5 5.5q2 1 5 1.5t5 1.5q7 2 13.5 3.5t10.5 1.5q10 0 17.5 -12.5t12.5 -26.5t7.5 -25.5t2.5 -13.5q0 -10 -7 -16.5t-24 -12.5q-2 0 -4.5 -1t-5.5 -2l-64 -17l-3 -1.5l-3 -1.5q-4 -1 -6 -3t-2 -6q0 -7 10.5 -19.5t23.5 -27.5q1 -1 2 -2.5t3 -3.5
q11 -13 19.5 -25.5t8.5 -20.5q0 -5 -4 -11.5t-11 -13.5q-6 -6 -13 -11.5t-15 -10.5t-15.5 -8t-13.5 -3t-13.5 6.5t-15.5 15.5q-4 6 -8.5 11.5t-8.5 11.5q-8 13 -14.5 24t-10.5 17q-3 4 -5 6l-3 3t-2 1h-2h-2t-2 -1l-3 -3t-5 -6q-4 -6 -10.5 -17t-14.5 -24q-5 -8 -11 -16
t-12 -15q-6 -6 -12 -10t-11 -4q-6 0 -14 3.5t-17 9.5q-7 4 -13.5 9.5t-12.5 11.5q-6 7 -10 13t-4 11q0 4 4.5 12.5t11.5 18.5q1 1 1.5 2t1.5 2l41 54q4 3 5 6t1 4q0 4 -7.5 7.5t-18.5 7.5l-16 4t-17 4q-22 6 -40.5 15t-18.5 23q0 4 1.5 10t2.5 13l2 6l2 6q1 4 2.5 8t3.5 9
q3 10 9 18t17 8q4 0 11 -1.5t14 -3.5q2 -1 4 -1.5t4 -1.5v1z" />
    <glyph glyph-name="plus" unicode="+" horiz-adv-x="600" 
d="M103 343h105q15 -1 20 -0.5t8 2.5l1.5 1.5l0.5 0.5l1.5 1.5t0.5 1.5q2 3 2.5 8t0.5 19v108q0 16 7 24.5t20 8.5l61 1q14 -1 20.5 -9.5t6.5 -25.5v-106q0 -16 0.5 -21t2.5 -8l1.5 -1.5l0.5 -0.5l0.5 -0.5l1.5 -1.5q3 -2 8 -2.5t20 -0.5l104 1q25 -1 34.5 -7.5t9.5 -23.5
v-54q0 -17 -9.5 -24t-34.5 -7l-104 1q-15 -1 -20 -1.5t-8 -2.5l-1.5 -1.5l-0.5 -0.5l-1.5 -1.5t-0.5 -1.5q-2 -3 -2.5 -8t-0.5 -19v-105q0 -19 -6.5 -27.5t-20.5 -8.5l-61 1q-13 -1 -20 7.5t-7 26.5v107q0 14 -0.5 19t-2.5 8l-1.5 1.5l-0.5 0.5l-1.5 1.5t-1.5 0.5
q-3 2 -8 2.5t-19 0.5l-105 1q-24 -1 -33.5 6t-9.5 23v56q0 16 9.5 22.5t33.5 6.5v1z" />
    <glyph glyph-name="comma" unicode="," horiz-adv-x="300" 
d="M116 -5q-39 16 -63.5 42t-24.5 72t33.5 80t78.5 34q56 0 91.5 -45t35.5 -115q0 -19 -5.5 -47.5t-15.5 -59.5q-17 -49 -45.5 -90.5t-67.5 -41.5q-3 0 -5.5 0.5t-4.5 0.5q-14 3 -25.5 12t-11.5 24q0 9 7 21.5t16 27.5q5 8 9.5 17t8.5 18q2 6 3.5 13t1.5 13q0 10 -3 15
t-13 9v0z" />
    <glyph glyph-name="hyphen" unicode="-" horiz-adv-x="284" 
d="M0 194q0 11 3.5 29.5t10.5 38.5q10 32 28.5 58.5t42.5 26.5q15 0 29.5 -1t29.5 -3q14 -1 28.5 -2.5t29.5 -1.5q8 0 16.5 1t16.5 2q8 0 16.5 1t16.5 1t12 -5.5t4 -16.5q0 -10 -4 -31t-11 -44q-9 -30 -24 -55.5t-34 -25.5q-15 0 -30.5 1.5t-30.5 3.5t-30.5 3.5t-30.5 1.5
q-9 0 -17.5 -0.5t-16.5 -0.5q-8 -1 -16.5 -1.5t-17.5 -0.5q-10 0 -15.5 5t-5.5 15v1z" />
    <glyph glyph-name="period" unicode="." horiz-adv-x="300" 
d="M265 102q0 -48 -34 -81.5t-81 -33.5t-81 33.5t-34 80.5q0 48 34 82t81 34t81 -34t34 -82v1z" />
    <glyph glyph-name="slash" unicode="/" horiz-adv-x="472" 
d="M232 463q4 8 7.5 17.5t6.5 18.5q8 19 15.5 37.5t15.5 36.5q0 1 0.5 1.5t0.5 1.5q4 10 7.5 20t6.5 19q9 26 21 43.5t41 17.5q37 0 58 -10.5t21 -28.5q0 -8 -3 -18t-9 -21q-23 -43 -44 -87t-41 -88l-176 -399q-17 -40 -29.5 -69t-18.5 -46q-13 -34 -21.5 -54t-15.5 -30
q-8 -10 -16.5 -12.5t-22.5 -2.5q-32 0 -54 12.5t-22 29.5q0 10 6 25t14 31l4 8l4 8q7 13 12.5 23.5t9.5 18.5l46 95l176 402v0z" />
    <glyph glyph-name="zero" unicode="0" horiz-adv-x="600" 
d="M284 564q122 -1 206.5 -87t84.5 -210q0 -118 -80 -199t-197 -81t-195 83t-78 208q0 126 72 205.5t187 79.5v1zM276 418q-21 -1 -32 -21t-11 -58q0 -14 2.5 -42t8.5 -59q9 -42 25 -76.5t43 -34.5q22 0 33 20.5t11 60.5q0 15 -2 41.5t-8 55.5q-7 42 -24 77t-46 35v1z" />
    <glyph glyph-name="one" unicode="1" horiz-adv-x="600" 
d="M183 226l1 138q0 27 -10.5 37t-39.5 10q-4 0 -8.5 -0.5t-9.5 -0.5q-4 0 -8.5 -0.5t-9.5 -0.5q-16 0 -26.5 8.5t-10.5 21.5q0 37 57.5 61.5t126.5 38.5q53 11 101.5 15.5t69.5 4.5q40 0 59.5 -10t19.5 -31q0 -10 -2.5 -16t-10.5 -11q-3 -2 -8 -4.5l-11 -5.5
q-23 -10 -31 -25t-9 -50v-26.5v-27.5q-1 -13 -1 -26.5v-27.5q0 -83 4 -127.5t13 -59.5q8 -13 23 -17t31 -6h3.5h2.5q21 -2 38 -8t17 -29q0 -20 -14.5 -31.5t-49.5 -18.5q-30 -5 -61.5 -8.5t-62.5 -4.5q-15 -1 -30.5 -1.5t-31.5 -0.5q-15 0 -51 1.5t-77 7.5q-51 5 -93.5 19.5
t-42.5 41.5q0 16 12.5 27t30.5 11q6 0 12.5 -1t12.5 -2l12 -2t12 -1q31 0 40.5 26t10.5 111v1z" />
    <glyph glyph-name="two" unicode="2" horiz-adv-x="600" 
d="M385 0h-332q-22 0 -33 5.5t-11 18.5q0 18 36.5 52.5t80.5 77.5q24 25 47.5 51t40.5 53q13 21 20.5 41t7.5 40q0 25 -14 39.5t-39 14.5q-20 0 -34.5 -8.5t-26.5 -18.5l-3.5 -3.5l-3.5 -3.5q-10 -8 -21 -14.5t-25 -6.5q-3 0 -6.5 0.5t-6.5 1.5q-18 4 -33.5 19t-15.5 34
q0 12 5.5 24.5t15.5 25.5q8 10 19 20t25 20q41 30 88.5 48.5t96.5 24.5q12 2 23.5 2.5t22.5 0.5q104 0 166 -40.5t62 -108.5q0 -45 -25 -82t-55 -66q-30 -30 -55 -52t-25 -37q0 -16 12 -25.5t31 -9.5q24 0 41 9t29 20q10 8 18.5 15.5t15.5 10.5q3 1 5 1.5t4 0.5
q21 0 30.5 -15.5t12.5 -33.5q1 -6 1.5 -12t0.5 -11q0 -14 -3 -32.5t-10 -38.5q-12 -37 -35.5 -67.5t-58.5 -30.5q-8 0 -13.5 2t-10.5 6q-3 3 -6 7t-7 10q-1 2 -2 3.5t-2 2.5q-7 9 -16 12t-29 3v0z" />
    <glyph glyph-name="three" unicode="3" horiz-adv-x="600" 
d="M75 25q4 -2 8.5 -3t8.5 -2q18 -4 35.5 -7t35.5 -3q60 0 96.5 26t36.5 69q0 33 -28 55t-72 22q-10 0 -19.5 -1.5t-18.5 -3.5q-8 -2 -16 -3.5t-15 -1.5q-10 0 -18.5 12.5t-13.5 27.5q-4 11 -6 21t-2 15q0 12 9 17.5t19 8.5l6 2l6 2q2 0 3.5 0.5t3.5 1.5q23 8 43 24t30 33
q4 7 6 14t2 13q0 31 -21.5 50.5t-55.5 19.5q-16 0 -29 -5t-24 -11t-20.5 -11t-18.5 -5q-12 0 -20 10t-12 23q-2 5 -3 10.5t-1 9.5q0 32 39.5 54t87.5 34q33 8 64 12t48 4q110 0 174 -34.5t64 -94.5q0 -27 -11 -45.5t-24 -30.5q-12 -11 -22.5 -19t-12.5 -16q-1 0 -1 -1v-2
q0 -7 7 -11t19 -8q11 -4 25 -8t29 -10q29 -13 54 -42t25 -89q0 -112 -99.5 -180.5t-260.5 -68.5q-96 0 -156 21.5t-60 56.5q0 22 15 36t37 14q6 0 12 -0.5t12 -2.5v1z" />
    <glyph glyph-name="four" unicode="4" horiz-adv-x="600" 
d="M299 -60v51q0 19 -7.5 27t-27.5 8l-190 1q-34 -1 -48 13.5t-14 48.5q0 42 12.5 72t32.5 58q10 13 21.5 26.5t23.5 28.5l124 150q10 11 21 24.5t22 26.5q39 46 86.5 84t108.5 38q26 0 37 -12t11 -41v-336q0 -16 4 -22t15 -6l20 1q13 -1 18.5 -7.5t5.5 -21.5v-98
q0 -15 -6 -21.5t-20 -8.5q-18 -1 -22 -5.5t-4 -20.5v-58q0 -17 -6.5 -24.5t-21.5 -7.5h-167q-14 0 -21.5 5t-7.5 15v12v0zM221 168l34 -1q32 -1 40 5.5t9 31.5q2 28 2.5 55.5t0.5 55.5q0 22 -6 33t-19 11q-2 0 -4.5 -0.5t-4.5 -0.5q-7 -3 -13.5 -7.5t-12.5 -11.5l-75 -92
q-18 -23 -25.5 -36t-7.5 -23t11.5 -14.5t39.5 -6.5l31 1v0z" />
    <glyph glyph-name="five" unicode="5" horiz-adv-x="600" 
d="M182 553h347q20 -1 26.5 -9.5t6.5 -32.5q0 -54 -23.5 -92t-57.5 -38l-221 1q-19 -1 -28 -8t-9 -23q0 -12 9 -16.5t37 -7.5q140 -14 219.5 -67.5t79.5 -133.5q0 -97 -99.5 -163.5t-245.5 -66.5q-87 0 -136 20t-49 55q0 23 8 39t19 16q8 0 20.5 -3t26.5 -6q8 -2 15.5 -4
t15.5 -3q7 -1 15 -2t15 -1q42 0 67 18t25 47q0 34 -36.5 59t-101.5 35q-18 3 -31.5 5.5t-24.5 4.5q-26 7 -33 14.5t-7 22.5q0 25 10 65.5t25 84.5q5 14 10 28.5t10 28.5q11 28 21 52.5t18 41.5q1 3 2.5 5.5t2.5 5.5q9 16 20 21.5t32 5.5v1z" />
    <glyph glyph-name="six" unicode="6" horiz-adv-x="600" 
d="M360 556q-6 -8 -13 -15t-14 -15q-19 -22 -35.5 -47t-16.5 -53q0 -7 4.5 -12t10.5 -5q9 0 21.5 4t26.5 9q11 3 22.5 6.5t23.5 4.5q3 1 6.5 1h6.5q81 0 133.5 -54.5t52.5 -137.5q0 -15 -2.5 -30t-6.5 -31q-10 -33 -29.5 -65.5t-45.5 -57.5q-39 -37 -86 -54t-109 -17
q-119 0 -206 77t-87 201q0 18 2 35.5t6 35.5q8 39 24.5 77.5t40.5 72.5q8 12 21 29.5t29 36.5q8 10 17 20t18 19q18 19 35.5 31.5t31.5 12.5q9 0 25.5 -3.5t34.5 -9.5q19 -6 36.5 -14t26.5 -17q3 -3 5 -6t2 -6q0 -2 -1.5 -6.5t-4.5 -8.5q-1 -3 -2.5 -5t-3.5 -4v1zM295 297
q-21 -1 -33.5 -16.5t-12.5 -42.5q0 -9 2 -20t6 -22q10 -29 31.5 -53.5t50.5 -24.5q18 0 30 12.5t12 31.5q0 51 -26.5 92.5t-59.5 41.5v1z" />
    <glyph glyph-name="seven" unicode="7" horiz-adv-x="600" 
d="M572 496l-199 -601q-4 -12 -14.5 -16.5t-36.5 -4.5q-7 0 -28 2t-44 7q-29 5 -52.5 16t-23.5 28q0 2 1 5t3 7l182 349q10 19 15 31.5t5 19.5q0 20 -22 26.5t-84 6.5q-66 0 -93 -5.5t-39 -22.5q-4 -6 -8.5 -11t-7.5 -8q-8 -7 -16.5 -9.5t-21.5 -2.5q-33 0 -51 28.5
t-18 79.5q0 65 25 111.5t60 46.5q7 0 13.5 -1.5t13.5 -4.5q12 -5 19.5 -8.5t14.5 -5.5q9 -3 19.5 -4.5t30.5 -1.5l314 1q23 -1 35 -10.5t12 -26.5q0 -5 -1 -10.5t-3 -11.5v1z" />
    <glyph glyph-name="eight" unicode="8" horiz-adv-x="600" 
d="M276 619q140 -1 221.5 -43t81.5 -113q0 -30 -13 -49t-28 -31q-14 -11 -25.5 -18.5t-15.5 -14.5q0 -1 -0.5 -2.5t-0.5 -2.5q0 -4 14.5 -15t32.5 -29q17 -19 31.5 -45.5t14.5 -63.5q0 -9 -1 -17.5t-3 -17.5q-8 -33 -29.5 -64.5t-51.5 -54.5q-35 -25 -80 -38t-101 -13
q-140 0 -226.5 52.5t-86.5 138.5q0 29 12.5 50.5t27.5 37.5q15 15 27.5 24.5t12.5 14.5q0 3 -10 14t-22 29q-13 17 -23 39t-10 48q0 77 72.5 130t178.5 53v1zM359 132q0 14 -6.5 26t-21.5 23q-11 8 -26 15.5t-35 16.5q-34 14 -48.5 19t-24.5 5q-11 0 -17.5 -10.5t-6.5 -28.5
q0 -45 37 -79t86 -34q27 0 45 13.5t18 32.5v1zM263 489q0 -6 2 -11.5t5 -10.5q8 -12 21.5 -23.5t28.5 -19.5q12 -7 23.5 -11t19.5 -4q13 0 23 17t10 39q0 28 -23 45.5t-60 17.5q-22 0 -36 -11.5t-14 -28.5v1z" />
    <glyph glyph-name="nine" unicode="9" horiz-adv-x="600" 
d="M180 -39q6 4 12.5 8.5t12.5 9.5q28 21 51 51t23 64q0 9 -5 14t-15 5q-6 0 -11.5 -0.5t-10.5 -1.5t-10.5 -1.5t-11.5 -0.5q-93 0 -148 67t-55 156q0 115 86 171t190 56q134 0 213.5 -62.5t79.5 -167.5q0 -24 -3 -47.5t-8 -46.5q-9 -33 -23.5 -66.5t-35.5 -69.5
q-9 -16 -29.5 -45t-46.5 -60q-12 -14 -25 -29t-26 -28q-27 -26 -52 -44t-44 -18q-7 0 -24 4.5t-36 12.5q-18 8 -34.5 17.5t-24.5 19.5q-2 2 -3 5t-1 6q0 2 0.5 3.5t1.5 3.5q1 4 4.5 7.5t8.5 6.5v0zM290 421q-21 -1 -35 -18.5t-14 -43.5q0 -50 24 -86.5t58 -36.5
q20 0 32.5 14.5t12.5 37.5q0 51 -24 91.5t-54 40.5v1z" />
    <glyph glyph-name="colon" unicode=":" horiz-adv-x="300" 
d="M150 218q49 -1 82 -34.5t33 -83.5q0 -46 -34 -79.5t-81 -33.5t-81 33.5t-34 79.5q0 50 33 83.5t82 33.5v1zM150 500q49 -1 82 -34.5t33 -83.5q0 -46 -34 -80t-81 -34t-81 34t-34 80q0 50 33 83.5t82 33.5v1z" />
    <glyph glyph-name="semicolon" unicode=";" horiz-adv-x="300" 
d="M115 -5q-39 16 -63.5 42t-24.5 72t33.5 80t78.5 34q56 0 91.5 -45t35.5 -115q0 -19 -5.5 -47.5t-15.5 -59.5q-17 -49 -45.5 -90.5t-67.5 -41.5q-3 0 -5.5 0.5t-4.5 0.5q-14 3 -25.5 12t-11.5 24q0 9 7 21.5t16 27.5q5 8 9.5 17t8.5 18q2 6 3.5 13t1.5 13q0 10 -3 15
t-13 9v0zM148 500q49 -1 82 -34.5t33 -83.5q0 -46 -34 -80t-81 -34t-81 34t-34 80q0 50 33 83.5t82 33.5v1z" />
    <glyph glyph-name="less" unicode="&#x3c;" horiz-adv-x="500" 
d="M493 598v-109l-357 -156l357 -135v-109l-487 188v110l487 211v0z" />
    <glyph glyph-name="equal" unicode="=" horiz-adv-x="600" 
d="M490 148h-388q-18 -1 -26.5 6t-8.5 20v52q0 16 9.5 22.5t33.5 6.5l378 1q27 -1 36.5 -8.5t9.5 -27.5v-44q0 -18 -8.5 -23.5t-35.5 -5.5v1zM490 315h-388q-18 -1 -26.5 5.5t-8.5 20.5v52q0 16 9.5 22.5t33.5 6.5l378 1q27 -1 36.5 -8.5t9.5 -28.5v-44q0 -18 -8.5 -23
t-35.5 -5v1z" />
    <glyph glyph-name="greater" unicode="&#x3e;" horiz-adv-x="500" 
d="M6 89v109l357 156l-357 135v109l487 -187v-111l-487 -211v0z" />
    <glyph glyph-name="question" unicode="?" horiz-adv-x="482" 
d="M222 198q46 -1 77 -31t31 -75q0 -44 -31.5 -74.5t-76.5 -30.5q-41 0 -72 30.5t-31 70.5q0 46 30 77.5t73 31.5v1zM399 371l-45 -22q-18 -9 -28 -20t-17 -22q-4 -5 -6.5 -10.5t-5.5 -10.5q-8 -16 -21 -28t-44 -12q-30 0 -47 17t-17 46q0 30 13 54.5t28 48.5q15 23 28 47.5
t13 54.5q0 22 -9.5 35.5t-24.5 13.5t-21.5 -9.5t-8.5 -35.5q-5 -49 -33 -75.5t-75 -26.5q-31 0 -51 19.5t-20 49.5q0 75 67 127.5t163 52.5q97 0 166 -54.5t69 -130.5q0 -34 -19.5 -63.5t-53.5 -46.5v1z" />
    <glyph glyph-name="at" unicode="@" horiz-adv-x="785" 
d="M664 132h10q20 -1 25 -3t5 -10v-2t-1 -2q0 -2 -2 -4l-7 -7l-1.5 -1.5t-3.5 -4.5q-51 -55 -118 -83t-148 -28q-198 0 -297.5 81.5t-99.5 243.5q0 159 111.5 263t280.5 104q148 0 245 -80.5t97 -202.5q0 -106 -80.5 -178t-184.5 -72q-36 0 -54 10t-21 31v2.5t-1 3.5v2.5
v2.5q-1 5 -2.5 8.5t-4.5 3.5t-13.5 -9.5t-27.5 -21.5q-16 -12 -38 -21.5t-46 -9.5q-44 0 -69.5 31.5t-25.5 84.5q0 15 2 30.5t6 31.5q18 71 72 131t129 60q13 0 23.5 -4.5t20.5 -9.5q6 -4 11.5 -7.5t11.5 -5.5q2 -1 5 -1.5t6 -0.5q7 0 17 4.5t22 10.5q11 5 24 9.5t26 4.5
q19 0 28 -7.5t9 -22.5q0 -23 -7 -51.5t-15 -58.5q-2 -6 -4 -12.5t-4 -13.5q-6 -24 -10.5 -47.5t-4.5 -44.5q0 -12 6.5 -18.5t19.5 -6.5q33 0 57.5 28t35.5 62q5 14 7.5 27.5t2.5 25.5q0 100 -75 165t-190 65q-135 0 -217.5 -81t-82.5 -214q0 -63 15.5 -107t46.5 -72
q41 -35 103 -55t135 -20q51 0 85 11.5t59 25.5q15 8 28 16t26 13q8 3 16 5t16 2l10 1v0zM371 264q7 -1 17 9.5t21 27.5q4 8 9 16.5t9 18.5q11 23 16.5 44t5.5 35q0 9 -3 14t-8 5q-4 0 -8.5 -2t-8.5 -5q-13 -10 -25 -30.5t-21 -43.5q-8 -20 -12.5 -37.5t-4.5 -29.5
q0 -11 3.5 -17t9.5 -6v1z" />
    <glyph glyph-name="A" unicode="A" horiz-adv-x="827" 
d="M650 338l93 -198q5 -11 8.5 -18.5t7.5 -12.5q6 -9 13.5 -12.5t18.5 -5.5q17 -2 26.5 -11t9.5 -23q0 -37 -42.5 -52t-140.5 -15h-7.5h-7.5q-45 0 -86.5 3t-63.5 6q-23 4 -38 17t-15 30q0 15 5 22t19 13q3 2 6 3l6 2q11 4 17 10.5t6 14.5q0 20 -12.5 30t-40.5 11
q-25 2 -49.5 3.5t-49.5 1.5q-68 0 -86 -9t-18 -43q0 -9 7 -13.5t17 -7.5q1 -1 3 -1.5t4 -1.5q11 -4 20.5 -11t9.5 -23q0 -29 -35 -43t-106 -14q-82 0 -115.5 12t-33.5 42q0 15 6 23t23 15q1 0 2.5 0.5t3.5 1.5q16 5 27.5 12t21.5 21q10 12 20.5 32.5t24.5 52.5l69 152
q33 70 47 109.5t17 72.5q0 6 0.5 11t0.5 11q1 63 27.5 93.5t80.5 30.5q39 0 73 -20t61 -58q29 -40 65.5 -107t79.5 -160v1zM310 276h96q14 -1 20 1.5t6 8.5q0 9 -7 25.5t-17 35.5q-4 8 -9 16t-10 15q-11 16 -20.5 26t-15.5 10q-8 0 -14 -5t-12 -17q-1 -3 -2 -5.5t-2 -5.5
q-3 -5 -7 -13.5t-8 -18.5l-4 -8t-3 -8q-6 -13 -9.5 -25t-3.5 -20q0 -7 4.5 -10t17.5 -3v1z" />
    <glyph glyph-name="B" unicode="B" horiz-adv-x="717" 
d="M363 -2q-10 0 -20 0.5t-19 0.5q-10 1 -20 1h-20q-23 0 -45.5 -0.5t-45.5 -1.5q-28 -1 -56.5 -2t-56.5 -1q-30 0 -48.5 14t-18.5 36q0 10 5 18.5t14 15.5q6 4 11 8t9 8q14 13 18 28.5t6 37.5q1 4 1.5 8t0.5 9q3 37 5.5 73.5t4.5 73.5q1 36 2 72.5t1 73.5q0 57 -7 76.5
t-33 31.5q-1 0 -1.5 0.5t-1.5 0.5q-16 7 -24 17t-8 23q0 22 19 35.5t49 13.5q17 0 34 -0.5t35 -1.5q17 -1 34 -1.5t34 -0.5q25 0 50 0.5t51 1.5q25 1 50 1.5t50 0.5q12 0 24 -0.5t25 -1.5q66 -6 121 -37t55 -113q0 -35 -11 -59t-24 -40t-24 -26.5t-11 -18.5q0 -5 3 -9t10 -7
q1 -1 3.5 -2t4.5 -2q47 -19 76.5 -59.5t29.5 -86.5q0 -97 -69.5 -154.5t-185.5 -57.5h-21.5t-21.5 1q-11 0 -21.5 0.5t-21.5 1.5v0zM318 249v-46q0 -65 9.5 -86t38.5 -21q36 0 54.5 21.5t18.5 64.5q0 53 -21 81t-61 28q-22 0 -30.5 -9t-8.5 -34v1zM318 531v-101
q0 -25 6 -34.5t21 -9.5q37 0 54 22t17 69t-18 72t-51 25q-16 0 -22.5 -10t-6.5 -34v1z" />
    <glyph glyph-name="C" unicode="C" horiz-adv-x="720" 
d="M588 636q2 -1 3.5 -0.5t3.5 1.5l10 2t10 1q36 0 63.5 -50.5t27.5 -115.5q0 -45 -25 -72.5t-66 -27.5q-27 0 -43.5 16.5t-31.5 39.5q-4 7 -8.5 14t-9.5 15q-20 31 -51 57.5t-89 26.5q-52 0 -81.5 -36t-29.5 -100v-2.5v-3.5q2 -90 55.5 -165t151.5 -75q41 0 69.5 10.5
t47.5 22.5q20 12 32.5 22.5t20.5 10.5q17 0 29 -16t12 -39q0 -10 -2 -22t-6 -24q-10 -29 -30 -54t-47 -30q-24 -5 -42.5 -11t-35.5 -13q-3 -2 -7 -3.5t-7 -2.5q-25 -10 -53.5 -17.5t-72.5 -7.5q-148 0 -255.5 101.5t-107.5 240.5q0 140 108 245t250 105q39 0 70 -7t55 -16
q23 -9 40 -16t27 -7h2.5h2.5q3 1 5.5 1.5t4.5 0.5v1z" />
    <glyph glyph-name="D" unicode="D" horiz-adv-x="802" 
d="M379 -4q-23 1 -45.5 1.5t-45.5 1.5q-23 0 -45.5 0.5t-45.5 0.5q-13 0 -26.5 -1t-26.5 -2q-14 0 -27 -1t-27 -1q-35 0 -56 14t-21 39q0 23 8.5 29t19.5 8q3 1 5.5 1.5t5.5 1.5q13 4 25 19t13 62q3 42 4.5 83.5t2.5 82.5t1.5 82.5t0.5 83.5t-6 55.5t-28 21.5q-1 0 -1.5 0.5
l-0.5 0.5q-16 6 -25 17t-9 26q0 25 23 38t66 13q11 0 22 -0.5t23 -0.5q11 0 22 -0.5t22 -0.5q25 0 50 1l50 2l50 2t50 1q91 0 148.5 -15t103.5 -50q59 -44 89.5 -114.5t30.5 -159.5q0 -154 -93.5 -249t-242.5 -95h-16t-16 1q-8 0 -16 0.5t-16 0.5v0zM327 529v-378
q0 -32 13 -45t46 -13q68 0 104.5 54t36.5 157q0 137 -38 201t-119 64q-24 0 -33.5 -9t-9.5 -32v1z" />
    <glyph glyph-name="E" unicode="E" horiz-adv-x="691" 
d="M120 667h252q65 -1 97.5 0.5t58.5 8.5q6 1 11.5 2.5t11.5 3.5q4 1 7 2t5 1h2h2q30 0 53.5 -41t23.5 -94q0 -32 -13.5 -50t-38.5 -18q-17 0 -25 6.5t-14 16.5q-3 5 -6.5 11t-8.5 12q-13 17 -45.5 31t-107.5 14q-48 0 -64 -12t-16 -47l-1 -81q0 -31 10 -38t51 -7
q27 0 34.5 16.5t10.5 36.5v0.5t1 0.5q3 20 9.5 35.5t30.5 15.5q29 0 44 -38t15 -107q0 -70 -17.5 -111.5t-46.5 -41.5q-18 0 -23.5 11.5t-8.5 27.5q-1 3 -1.5 5.5t-1.5 5.5q-4 19 -15.5 34.5t-46.5 15.5q-22 0 -30 -14t-8 -52q0 -93 14 -113t81 -20q78 0 115.5 18.5
t62.5 68.5q5 10 9 17.5t8 12.5q8 10 16 14t20 4q21 0 34 -18t13 -47q0 -12 -5 -35t-15 -49q-12 -35 -30.5 -63.5t-39.5 -28.5q-13 0 -26.5 1.5t-26.5 3.5q-14 2 -28.5 3.5t-28.5 1.5h-414q-25 0 -38.5 10.5t-13.5 30.5q0 15 7 21.5t16 11.5q3 1 6 2.5t6 2.5q9 6 18 15t13 27
q8 38 12 86.5t4 111.5q0 93 -6 153.5t-18 85.5q-4 8 -11 12t-15 7q-2 1 -4.5 2t-4.5 2q-14 4 -21 13.5t-7 22.5q0 30 21 39.5t86 9.5v1z" />
    <glyph glyph-name="F" unicode="F" horiz-adv-x="661" 
d="M578 486q-8 9 -15.5 17.5t-15.5 15.5q-20 20 -43 31t-61 13q-16 1 -32.5 1.5t-33.5 0.5q-34 0 -45.5 -28t-11.5 -106q0 -18 11.5 -25t41.5 -7q29 0 38.5 13.5t14.5 30.5v2t1 2q4 15 11 27t28 12q31 0 46 -36.5t15 -110.5q0 -73 -18.5 -113.5t-51.5 -40.5
q-18 0 -23.5 12.5t-9.5 29.5q0 3 -0.5 6t-1.5 6q-4 20 -15.5 37t-46.5 17q-24 0 -31.5 -6.5t-7.5 -28.5v-38q0 -68 8.5 -95t30.5 -30h1.5t1.5 -1q19 -3 34.5 -10.5t15.5 -31.5q0 -19 -11 -30.5t-34 -17.5q-29 -6 -76.5 -10t-101.5 -4q-101 0 -139 12.5t-38 46.5
q0 23 12.5 32.5t30.5 16.5q22 9 30 38.5t9 107.5l2 156v25q0 90 -6.5 117.5t-30.5 37.5q-9 4 -15.5 7t-10.5 6q-8 6 -11 12.5t-3 15.5q0 22 21 36.5t52 14.5q10 0 24 -0.5t33 -2.5q26 -2 51.5 -3t51.5 -2t52 -1h51h20.5h21.5q17 0 34.5 0.5t35.5 0.5q27 1 55 3t56 6h4t4 1
h2.5h2.5q21 0 38 -25t26 -55q6 -17 9 -33t3 -28q0 -30 -14.5 -48t-37.5 -18q-10 0 -20 4.5t-18 13.5v1z" />
    <glyph glyph-name="G" unicode="G" horiz-adv-x="794" 
d="M570 658l21 7l10 2t9 1q37 0 65.5 -46.5t28.5 -105.5q0 -37 -22 -62t-55 -25q-27 0 -46 14.5t-36 33.5q-4 5 -8 9.5t-7 8.5q-22 25 -50 45.5t-75 20.5q-61 0 -98.5 -46.5t-37.5 -123.5q0 -109 51.5 -187.5t123.5 -78.5q26 0 42 17t16 45q0 25 -15.5 31t-34.5 8t-34.5 9
t-15.5 34q0 38 48 58t138 20q98 0 147 -18.5t49 -56.5q0 -19 -12 -32t-32 -16h-1.5h-0.5q-13 -2 -18.5 -5.5t-9.5 -15.5q-1 -3 -1.5 -5.5t-1.5 -6.5q-25 -94 -109.5 -149t-203.5 -55q-154 0 -262.5 100.5t-108.5 242.5q0 150 106 250t266 100q32 0 62 -4.5t58 -13.5
q14 -4 20.5 -6t11.5 -2h1h2q5 0 10.5 1t9.5 2v1z" />
    <glyph glyph-name="H" unicode="H" horiz-adv-x="802" 
d="M357 407l58 -1q40 -1 56 1.5t20 8.5q2 3 3.5 8.5t1.5 12.5v10q0 56 -6 80.5t-23 34.5q-9 5 -15.5 9t-10.5 8q-5 6 -7 12t-2 14q0 37 44 54t139 17q89 0 131.5 -16.5t42.5 -50.5q0 -20 -9.5 -28.5t-20.5 -15.5h-1h-1q-9 -5 -16.5 -11t-10.5 -17q0 -1 -0.5 -2.5t-1.5 -2.5
q-3 -12 -4.5 -28.5t-2.5 -55.5q0 -7 -0.5 -15.5t-0.5 -17.5l-3 -153v-7q0 -77 5.5 -110t18.5 -41q2 -1 3.5 -2t3.5 -2h0.5t0.5 -1q13 -6 23 -14.5t10 -25.5q0 -37 -44 -53t-139 -16q-88 0 -129 15t-41 48q0 17 5 24t13 12q3 3 7 5.5t8 6.5q12 12 22.5 40.5t10.5 98.5
q0 34 -8.5 41t-48.5 7q-49 0 -80.5 -3.5t-36.5 -10.5q-4 -4 -6 -24t-2 -47q0 -42 7 -65.5t23 -32.5q13 -8 22.5 -18.5t9.5 -27.5q0 -34 -47.5 -51.5t-136.5 -17.5q-85 0 -131 17t-46 48q0 20 13 30.5t29 17.5q21 11 28 52.5t7 149.5q0 22 -0.5 43.5t-0.5 43.5t-0.5 43.5
t-0.5 43.5q0 43 -10.5 59.5t-23.5 22.5q-3 1 -6 2.5t-6 2.5q-9 3 -15.5 9t-6.5 21q0 33 35 49.5t77 23.5q29 4 56 5.5t42 1.5q74 0 113 -16t39 -48q0 -11 -3 -18.5t-11 -14.5q-4 -4 -10 -8t-14 -9q-1 0 -1.5 -0.5l-0.5 -0.5q-17 -12 -22 -31t-5 -75q0 -29 8 -39t33 -10v1z
" />
    <glyph glyph-name="I" unicode="I" horiz-adv-x="413" 
d="M378 579l-18 -10q-22 -12 -29.5 -50t-7.5 -149v-19.5t1 -18.5l2 -124q1 -55 7.5 -74t29.5 -31q1 0 2.5 -0.5t2.5 -1.5q17 -8 24.5 -17.5t7.5 -23.5q0 -32 -35.5 -46t-78.5 -19q-28 -4 -54 -4.5t-42 -0.5q-85 0 -125.5 14t-40.5 44q0 10 2.5 16.5t9.5 12.5q3 3 7.5 6.5
t10.5 6.5q22 14 28.5 37t7.5 94l2 121v27q0 106 -8 141t-37 54q-10 6 -16 11t-10 9q-5 6 -6.5 11.5t-1.5 12.5q0 27 35.5 41t77.5 20q32 4 60.5 5.5t42.5 1.5q83 0 127 -16.5t44 -47.5q0 -12 -5.5 -20.5t-16.5 -13.5v1z" />
    <glyph glyph-name="J" unicode="J" horiz-adv-x="627" 
d="M541 376l-2 -144q-1 -120 -74.5 -182.5t-190.5 -62.5q-126 0 -203 50t-77 132q0 49 30 81t76 32q47 0 78.5 -27t31.5 -68q0 -6 -1 -11.5t-2 -10.5q-2 -5 -3 -10.5t-1 -11.5q0 -16 11 -26t29 -10q32 0 53 28.5t21 72.5v22.5t-1 27.5l-1 121l-4 96q-1 46 -14 62t-28 21
l-6 2t-6 1q-13 4 -22 10t-9 27q0 34 33 50t72 22q27 4 51.5 5t39.5 1q94 0 146 -18t52 -50q0 -9 -2 -15.5t-8 -11.5q-5 -4 -12 -8.5t-17 -9.5q-22 -11 -29 -27t-8 -54l-3 -106v0z" />
    <glyph glyph-name="K" unicode="K" horiz-adv-x="827" 
d="M584 533q-7 -7 -16 -15t-19 -18q-10 -9 -19.5 -19t-15.5 -20q-5 -7 -8 -14.5t-3 -14.5q0 -3 0.5 -5.5t0.5 -5.5q2 -9 9 -19.5t21 -26.5l183 -211q14 -17 22 -25.5t15 -14.5l6 -4t7 -4l5 -2.5t6 -2.5q27 -11 38 -24.5t11 -35.5q0 -25 -19.5 -38t-54.5 -13h-185
q-8 0 -14 0.5t-11 3.5q-8 5 -17 15t-23 29q-7 10 -24.5 33t-38.5 48l-10 12t-10 11q-23 26 -44 45t-32 19q-13 0 -21 -14t-8 -39q0 -26 6.5 -41.5t20.5 -24.5q8 -5 13.5 -9.5t9.5 -8.5q6 -7 8.5 -14.5t2.5 -16.5q0 -31 -43 -44.5t-140 -13.5q-100 0 -138 12t-38 45
q0 14 7 24t22 20q23 15 31 62t8 163q0 80 -2 118.5t-7 68.5q0 2 -0.5 3.5t-0.5 3.5q-4 21 -12.5 32t-17.5 19l-6 4t-6 5q-8 6 -14 13t-6 21q0 29 23 45t74 21q29 3 53 4.5t47 1.5q79 0 113 -14.5t34 -49.5q0 -10 -4 -19t-12 -15l-7.5 -7.5l-6.5 -6.5q-14 -17 -18.5 -35.5
t-4.5 -45.5q0 -22 4.5 -32.5t13.5 -10.5h2.5h2.5q11 3 26.5 19t50.5 62q10 13 14.5 22.5t4.5 16.5t-2.5 13t-4.5 12q-3 6 -5.5 12t-2.5 13q0 36 39 51t133 15q87 0 121 -13.5t34 -48.5q0 -23 -15 -36.5t-43 -13.5q-34 0 -47.5 -1.5t-22.5 -8.5q-5 -4 -10 -9l-13 -13v1z" />
    <glyph glyph-name="L" unicode="L" horiz-adv-x="633" 
d="M334 454v-224q0 -79 15 -102t65 -23q57 0 89 24.5t45 76.5q5 17 12.5 24t21.5 7q25 0 41.5 -23t16.5 -58q0 -13 -4 -33.5t-12 -42.5q-12 -35 -33 -64t-48 -29q-13 0 -26.5 1.5t-26.5 4.5h-3t-3 1q-12 2 -24 3.5t-24 2.5h-341q-35 0 -51.5 9.5t-16.5 31.5q0 12 6.5 18.5
t16.5 12.5q4 2 8.5 4.5t8.5 5.5q15 10 27.5 28t12.5 58l1 50q0 32 -1 65.5t-1 67.5q-1 34 -2 67.5t-1 66.5q-1 40 -6.5 54t-25.5 21q-11 4 -19 7t-15 6q-13 7 -18 14.5t-5 18.5q0 34 51 52t145 18q112 0 156 -14t44 -50q0 -15 -10.5 -24t-23.5 -14q-3 -2 -6.5 -3.5
t-6.5 -2.5q-19 -7 -24 -27.5t-5 -87.5v1z" />
    <glyph glyph-name="M" unicode="M" horiz-adv-x="884" 
d="M503 202l-59 -131q-9 -21 -15 -32.5t-12 -16.5q-5 -5 -9.5 -6.5t-9.5 -1.5q-12 0 -28 25.5t-46 92.5l-65 146q-6 14 -13 21.5t-15 7.5q-13 0 -16.5 -25t-3.5 -106q0 -52 5 -69t21 -25q1 0 1.5 -0.5t1.5 -0.5q0 -1 1 -1.5t2 -0.5q11 -6 20 -13.5t9 -22.5
q0 -26 -35.5 -39.5t-103.5 -13.5q-60 0 -90 13t-30 39q0 11 5 18t15 12q35 15 42 34t8 51q0 4 0.5 8.5t0.5 8.5q5 77 7.5 139.5t2.5 121.5q0 71 -7.5 94.5t-35.5 36.5q-17 8 -26 19t-9 24q0 32 44.5 49.5t121.5 17.5q56 0 79 -7t39 -32q3 -4 5.5 -9t5.5 -10l101 -186
q11 -20 17 -29.5t11 -12.5q2 -2 5 -2.5t7 -0.5q7 0 12 2.5t9 7.5q4 4 7.5 10t7.5 14l69 136q9 17 17 32t15 27q22 34 50 47t86 13q74 0 108.5 -15t34.5 -48q0 -8 -1.5 -13.5t-5.5 -11.5q-3 -4 -8 -8.5t-12 -10.5q-23 -16 -31.5 -62t-8.5 -151q0 -20 0.5 -42.5t1.5 -45.5
q2 -38 4.5 -73t5.5 -58q2 -16 7.5 -27t13.5 -16q1 -1 2.5 -1.5t2.5 -1.5q12 -8 21.5 -17t9.5 -25q0 -32 -39.5 -45.5t-130.5 -13.5q-92 0 -132 12.5t-40 41.5q0 14 8.5 23.5t19.5 18.5q1 0 2 1l2 2t2 1.5t2 1.5q13 11 17.5 40t4.5 100q0 39 -3.5 51t-15.5 12q-3 0 -5.5 -0.5
t-5.5 -2.5q-10 -6 -21.5 -26t-31.5 -65v1z" />
    <glyph glyph-name="N" unicode="N" horiz-adv-x="830" 
d="M617 25l-290 260q-14 12 -27 19t-23 7q-15 0 -22.5 -20.5t-7.5 -61.5q0 -68 7.5 -93t31.5 -37q2 -1 3.5 -2t3.5 -2q14 -8 19.5 -16.5t5.5 -22.5q0 -33 -37.5 -49.5t-111.5 -16.5q-63 0 -99 17t-36 48q0 20 11.5 30t25.5 18q22 13 29 59.5t7 170.5q0 69 -5.5 124t-15.5 78
q-4 12 -14 19t-21 13q-1 0 -1.5 0.5l-0.5 0.5q-14 8 -25 16.5t-11 25.5q0 37 38 51.5t133 14.5q30 0 46.5 -2.5t30.5 -10.5q7 -3 13 -8t14 -12l243 -212q17 -16 29 -24t19 -8q14 0 20.5 13.5t6.5 41.5q0 62 -7.5 84t-30.5 33q-19 9 -27 19.5t-8 24.5q0 35 29.5 48t105.5 13
q85 0 117 -13t32 -47q0 -17 -9 -28.5t-28 -19.5q-26 -11 -34.5 -40.5t-8.5 -107.5v-159v-94q0 -101 -13 -139t-45 -38q-17 0 -30 8.5t-25 18.5q-1 2 -3 3.5t-4 3.5v1z" />
    <glyph glyph-name="O" unicode="O" horiz-adv-x="778" 
d="M380 680q74 -1 130 -18t103 -54q61 -48 98.5 -119.5t42.5 -148.5q1 -5 1 -10.5v-10.5q0 -140 -110 -236t-270 -96q-148 0 -250 100.5t-102 248.5q0 143 104 243t253 100v1zM345 541q-34 -1 -57.5 -31t-23.5 -76q0 -23 7 -61t20 -78q20 -62 54 -114t80 -52q38 0 60.5 28
t22.5 74q0 25 -5.5 61.5t-16.5 75.5q-18 64 -53 118t-88 54v1z" />
    <glyph glyph-name="P" unicode="P" horiz-adv-x="684" 
d="M101 230v257q0 46 -6 60.5t-32 21.5q-2 1 -3.5 1.5t-2.5 0.5q-22 6 -33 17t-11 26q0 23 18.5 35t54.5 12q7 0 14.5 -0.5t14.5 -0.5t14.5 -0.5t14.5 -0.5q34 0 68 2t69 5l68 4t68 2q113 0 183.5 -58t70.5 -152q0 -97 -70.5 -158t-181.5 -61q-11 0 -21.5 1t-21.5 2
q-11 0 -21.5 1t-21.5 1q-8 0 -11.5 -3.5t-3.5 -12.5q0 -10 0.5 -20.5t0.5 -20.5q0 -4 0.5 -7.5t0.5 -6.5q0 -7 0.5 -14t0.5 -14q1 -18 5.5 -28.5t15.5 -19.5q4 -2 8.5 -5t10.5 -6t10.5 -6t7.5 -6q7 -5 10 -11t3 -13q0 -32 -46.5 -48t-138.5 -16q-85 0 -130 15.5t-45 45.5
q0 11 7 20t20 16q6 3 11 6t8 5q17 12 20 26t3 37v7.5v7.5v54v0zM321 549v-166q0 -18 9 -24.5t34 -6.5q41 0 64.5 28t23.5 77q0 51 -25.5 80.5t-69.5 29.5q-17 0 -26.5 -5t-9.5 -14v1z" />
    <glyph glyph-name="Q" unicode="Q" horiz-adv-x="781" 
d="M249 -91q-5 2 -10 4.5l-9 4.5q-37 18 -75 32.5t-79 14.5q-3 0 -5.5 -0.5t-4.5 -1.5q-2 0 -4.5 -0.5t-5.5 -0.5q-10 0 -16 8t-6 21q0 25 21.5 42.5t53.5 17.5h5.5h4.5q2 -1 4.5 -1h5.5q7 0 10.5 3t3.5 7q0 5 -18.5 27.5t-41.5 59.5q-22 36 -41 83t-19 100q0 79 28 143.5
t83 110.5q31 26 70 46.5t80 32.5q25 8 50 12t48 4h12t13 -1q55 -3 108 -20.5t92 -45.5q53 -37 91 -100t50 -131q2 -14 3.5 -27.5t1.5 -27.5q0 -111 -63.5 -200.5t-161.5 -116.5q-7 -1 -9.5 -4t-2.5 -6q0 -17 43.5 -30t98.5 -13q14 0 25.5 2.5t21.5 5.5q9 4 16.5 6.5
t12.5 2.5q7 0 12.5 -7t8.5 -15l2 -8t1 -7q0 -5 -1 -10t-3 -9t-4 -7l-4 -6q-31 -38 -87 -60t-124 -22q-28 0 -59 5.5t-62 14.5q-35 11 -69 24t-64 27l-16 8l-16 8v0zM341 538q-34 -1 -56 -27.5t-22 -69.5q0 -25 5.5 -62.5t17.5 -77.5q18 -66 53.5 -121t89.5 -55
q38 0 62.5 27.5t24.5 70.5q0 27 -5.5 59.5t-15.5 65.5q-9 32 -21 62.5t-27 56.5q-19 35 -46 52.5t-60 17.5v1z" />
    <glyph glyph-name="R" unicode="R" horiz-adv-x="776" 
d="M84 231l1 148v57q0 76 -6.5 100.5t-29.5 36.5q-8 4 -14 7.5t-10 6.5q-7 6 -9.5 12t-2.5 14q0 29 28 43.5t82 14.5q15 0 29.5 -1t28.5 -2t28.5 -2t29.5 -1q24 0 47.5 1.5t46.5 3.5q23 1 46.5 2.5t46.5 1.5q105 0 169 -48t64 -127q0 -45 -15 -72.5t-33 -43.5
q-15 -13 -29 -21.5t-18 -14.5q0 -2 -0.5 -3t-0.5 -2q0 -6 2.5 -10t9.5 -8q3 -1 5.5 -2.5t6.5 -2.5q62 -23 81.5 -67.5t27.5 -103.5q4 -29 11 -40.5t26 -16.5q14 -4 25 -12t11 -25q0 -34 -41 -53.5t-110 -19.5q-50 0 -84.5 12.5t-54.5 37.5q-17 21 -27 48t-18 55
q-2 7 -3.5 13.5t-3.5 13.5q-13 47 -30 82.5t-58 35.5q-19 0 -24 -11t-5 -53q0 -66 6.5 -89.5t27.5 -34.5q14 -8 21.5 -18.5t7.5 -23.5q0 -33 -40 -46t-138 -13q-92 0 -136.5 16.5t-44.5 50.5q0 13 5 19.5t12 10.5q4 3 8.5 5.5t9.5 6.5q13 11 24 38.5t11 92.5v1zM310 529
l-5 -114q0 -17 4.5 -25.5t22.5 -8.5q42 0 61.5 22.5t19.5 69.5q0 48 -16.5 71.5t-50.5 23.5q-19 0 -26.5 -8.5t-9.5 -31.5v1z" />
    <glyph glyph-name="S" unicode="S" horiz-adv-x="645" 
d="M472 655q2 0 4.5 0.5t4.5 1.5q1 1 1.5 1h1.5q6 3 12 4.5t12 1.5q27 0 51 -27.5t38 -60.5q8 -18 12 -34t4 -29q0 -27 -16 -46t-40 -19q-12 0 -23.5 5t-22.5 13t-21 17.5t-21 19.5q-23 20 -50 37t-62 17q-28 0 -44.5 -12.5t-16.5 -35.5q0 -26 26 -41t64 -27q17 -6 36 -12
t39 -13q61 -23 112.5 -64.5t51.5 -128.5q0 -104 -86 -170t-221 -66q-13 0 -26.5 0.5t-26.5 1.5q-64 6 -119.5 21t-73.5 34q-14 13 -26.5 42.5t-18.5 61.5q-4 15 -5.5 29t-1.5 27q0 26 10.5 40t29.5 14q20 0 35.5 -16t27.5 -36q6 -10 11 -19.5t10 -16.5q18 -27 55.5 -44.5
t79.5 -18.5h2.5h2.5q35 0 57.5 13t22.5 33q0 23 -21 36.5t-54 25.5q-18 7 -39 14.5t-43 16.5q-24 10 -48 23.5t-44 31.5q-25 23 -43 49.5t-26 54.5q-4 12 -6 24t-2 23q0 96 79.5 162t195.5 66q25 0 47.5 -4.5t41.5 -9.5t34.5 -9.5t25.5 -4.5h2.5t2.5 1q1 0 2.5 0.5t2.5 0.5
v1z" />
    <glyph glyph-name="T" unicode="T" horiz-adv-x="701" 
d="M228 667h257q9 -1 16.5 -0.5t14.5 0.5q9 2 20 4t25 6q2 0 3.5 0.5t3.5 0.5q5 2 10 2.5t9 0.5q33 0 58.5 -33t39.5 -72q8 -21 12 -41t4 -35q0 -34 -19.5 -54.5t-53.5 -20.5q-25 0 -44.5 14.5t-37.5 47.5q-10 18 -16.5 28t-12.5 15q-4 3 -8.5 4.5t-10.5 1.5q-18 0 -26 -15
t-8 -50v-272q0 -44 9 -62.5t33 -29.5q7 -3 13 -5.5t10 -5.5q13 -8 18 -16.5t5 -21.5q0 -35 -47.5 -51.5t-146.5 -16.5q-118 0 -173.5 17.5t-55.5 54.5q0 19 12.5 27.5t27.5 12.5l6 2l6 2q21 6 29 28t11 82l6 118q1 22 1.5 47t0.5 53q0 62 -6 82t-23 20q-7 0 -13.5 -4
t-12.5 -11q-8 -8 -15.5 -19t-15.5 -22q-15 -21 -34.5 -38.5t-46.5 -17.5t-44.5 19t-17.5 50q0 15 4.5 35.5t13.5 41.5q16 40 44 74t61 34q7 0 13 -0.5t11 -1.5t9.5 -2t8.5 -2q12 -2 26.5 -4t36.5 -2v1z" />
    <glyph glyph-name="U" unicode="U" horiz-adv-x="820" 
d="M737 423v-119q0 -76 -7 -115.5t-24 -68.5q-35 -61 -98 -90.5t-131 -37.5q-19 -3 -38 -4t-37 -1q-73 0 -137 19t-109 55q-47 38 -64 86t-17 145q0 23 0.5 46t1.5 46t1.5 46t0.5 46q0 38 -4 54t-20 28q-2 1 -4 2.5t-5 3.5q-12 8 -19.5 17t-10.5 18q-1 3 -1.5 6t-0.5 6
q0 34 45 49.5t140 15.5q99 0 143.5 -15t44.5 -50q0 -21 -13 -30.5t-29 -16.5q-1 0 -1.5 -0.5t-1.5 -0.5q-16 -7 -21.5 -25t-5.5 -59v-38t-1 -31l-3 -106q0 -76 34 -125t116 -49q80 0 109 45t29 115v109l-1 85q-1 49 -7.5 65.5t-29.5 26.5q-10 5 -17.5 9t-12.5 8q-8 6 -11 12
t-3 14q0 30 34.5 43.5t109.5 13.5q78 0 112 -13t34 -42q0 -7 -1 -12t-5 -9q-3 -4 -10.5 -9t-19.5 -12l-4 -2t-4 -3q-16 -10 -20.5 -24.5t-5.5 -47.5v-79v0z" />
    <glyph glyph-name="V" unicode="V" horiz-adv-x="803" 
d="M692 516l-224 -454q-6 -14 -12 -24.5t-12 -18.5q-14 -18 -28 -24.5t-34 -6.5q-28 0 -45 10.5t-32 37.5q-2 4 -4 8.5t-4 8.5l-199 442q-6 12 -11 21.5t-10 16.5q-9 14 -20 20t-28 9q-13 2 -21 11.5t-8 22.5q0 41 51 60.5t155 19.5q94 0 140 -15t46 -47q0 -13 -7 -20.5
t-16 -13.5q-1 -1 -2 -1.5t-2 -1.5q-7 -5 -13 -11.5t-6 -15.5q0 -4 3 -11.5t7 -18.5l60 -136q4 -9 7 -14.5t6 -8.5q4 -5 8 -7t9 -2q6 0 11.5 2t10.5 6q8 8 17.5 25t23.5 47l38 84q8 17 11 25t3 14q0 12 -7.5 18.5t-16.5 11.5q-10 5 -17.5 11.5t-7.5 18.5q0 32 37 46.5
t119 14.5q78 0 110 -12.5t32 -43.5q0 -16 -11.5 -27t-31.5 -13t-31 -6t-20 -16q-5 -7 -11 -17.5t-13 -25.5v1z" />
    <glyph glyph-name="W" unicode="W" horiz-adv-x="1040" 
d="M885 264l-61 -153q-15 -39 -27 -62.5t-22 -37.5q-11 -12 -23.5 -17t-28.5 -5q-30 0 -48 12t-30 42l-97 230q-4 9 -7 15t-5 9q-3 2 -5 3t-6 1q-3 0 -5 -0.5t-4 -1.5q-6 -5 -13.5 -20t-22.5 -53l-67 -164q-4 -10 -7.5 -18t-6.5 -15q-14 -25 -29.5 -33t-42.5 -8
q-31 0 -48.5 14.5t-32.5 51.5l-180 460q-5 13 -8.5 21t-6.5 12q-2 3 -4 4.5t-5 2.5q-17 9 -29.5 20.5t-12.5 33.5q0 32 43 49.5t123 17.5q96 0 132.5 -13t36.5 -48q0 -9 -3.5 -16.5t-7.5 -14.5l-0.5 -0.5l-0.5 -0.5q-4 -7 -7 -14t-3 -15q0 -5 8.5 -33.5t20.5 -61.5
q4 -12 8.5 -23.5t9.5 -22.5q9 -21 18 -35t16 -14q10 0 20 13.5t20 40.5l20 56q1 2 1.5 5t0.5 5t-0.5 4t-2.5 5l-14 35q-5 13 -13 22t-17 15l-6 4l-6 4q-10 7 -17.5 15.5t-7.5 26.5q0 30 47.5 45.5t138.5 15.5q94 0 137 -13.5t43 -43.5q0 -12 -6.5 -19.5t-14.5 -14.5
q0 -1 -0.5 -1h-0.5q-8 -7 -14 -14t-6 -18q0 -12 4 -25.5t10 -26.5q3 -7 6.5 -13.5t6.5 -12.5q5 -10 10 -19.5t9 -17.5q14 -29 21.5 -42.5t13.5 -17.5q3 -2 5.5 -2.5t5.5 -0.5q4 0 7.5 2t7.5 6q5 6 10.5 19.5t13.5 35.5l24 69q5 15 7.5 25.5t2.5 17.5q0 11 -4 16.5t-16 9.5
q-19 6 -30.5 18.5t-11.5 28.5q0 29 32 42t104 13q56 0 83.5 -15t27.5 -44q0 -5 -1 -9.5t-3 -8.5q-3 -7 -10 -14.5t-19 -18.5q-3 -2 -5 -4l-4 -4q-3 -3 -5.5 -6t-4.5 -7q-5 -7 -10 -19.5t-14 -35.5l-85 -226v0z" />
    <glyph glyph-name="X" unicode="X" horiz-adv-x="795" 
d="M139 486l-23 30q-8 10 -19.5 16.5t-23.5 11.5q-3 2 -6.5 3.5t-6.5 2.5q-18 7 -31 16.5t-13 30.5q0 35 39.5 51.5t86.5 22.5q33 4 63 4.5t47 0.5q97 0 130.5 -13t33.5 -50q0 -12 -4.5 -19.5t-9.5 -11.5q-6 -4 -10 -6.5t-5 -4.5v-1v0q-2 -1 -3 -4t-1 -7t3.5 -11.5
t9.5 -15.5q3 -4 6.5 -8.5t6.5 -8.5q5 -5 10 -9t9 -4q2 0 5 1.5t6 5.5q20 21 29 33.5t9 18.5q0 4 -2.5 7.5t-6.5 6.5q-2 2 -4.5 3.5t-4.5 3.5q-7 5 -12.5 13t-5.5 21q0 32 37 46t125 14q76 0 108 -14.5t32 -48.5q0 -22 -14.5 -31.5t-53.5 -12.5q-3 0 -6 -0.5t-6 -1.5
q-21 -4 -44.5 -24t-53.5 -58q0 -1 -10 -13t-22 -27q-1 0 -1.5 -1l-0.5 -1q-12 -15 -21 -27t-9 -15v-0.5v-1.5t1.5 -3t5.5 -6l186 -233q20 -26 39 -35.5t33 -14.5q13 -6 21 -14.5t8 -29.5v-4t-1 -4q-3 -14 -15 -26.5t-28 -19.5q-28 -10 -72.5 -14.5t-125.5 -4.5
q-92 0 -133 12.5t-41 41.5q0 12 4.5 21.5t14.5 15.5q8 5 12 8.5t6 5.5q1 2 1.5 4t0.5 5q0 7 -6.5 21t-16.5 30q-3 6 -7 11.5t-7 10.5q-10 14 -19 24t-14 10t-14 -10.5t-27 -37.5q-16 -24 -22.5 -35t-6.5 -16q0 -6 3.5 -10t8.5 -9q2 -1 4 -3l4 -4q8 -6 14 -14t6 -20
q0 -33 -39 -47.5t-125 -14.5q-79 0 -116.5 15t-37.5 48q0 21 14.5 33.5t41.5 13.5q10 0 18 1.5t16 4.5q18 8 39 30.5t60 70.5l75 96q4 4 5.5 7t1.5 4v0.5v1.5t-1.5 3l-4.5 6l-126 161v0z" />
    <glyph glyph-name="Y" unicode="Y" horiz-adv-x="780" 
d="M505 577q-8 8 -15 18t-7 23q0 31 35.5 44.5t117.5 13.5q88 0 116 -11.5t28 -46.5q0 -19 -12.5 -29t-42.5 -15q-8 -1 -14.5 -3t-13.5 -6q-17 -8 -37.5 -27t-57.5 -60q-36 -40 -56.5 -65t-30.5 -47q-8 -20 -10.5 -41.5t-2.5 -54.5q0 -10 0.5 -19.5t0.5 -18.5q0 -4 0.5 -7
t0.5 -6q0 -7 0.5 -13t0.5 -13q1 -44 7 -60.5t26 -27.5q2 0 3.5 -1t3.5 -2q18 -10 26.5 -20.5t8.5 -24.5q0 -35 -49 -51t-154 -16q-13 0 -40.5 0.5t-58.5 4.5q-40 5 -73.5 19t-33.5 42q0 17 9 27.5t28 16.5q32 12 41 43.5t9 136.5q0 25 -2 41t-8 30q-4 11 -12 23t-20 28
q-11 14 -25.5 32.5t-31.5 38.5q-11 13 -22 25t-22 23q-16 15 -32 27t-30 17q-13 5 -22 9t-15 7q-10 6 -13 13t-3 18q0 28 26.5 41.5t89.5 18.5q13 1 25 2t25 1q12 1 24 1h25q107 0 151.5 -12.5t44.5 -42.5q0 -9 -4 -15.5t-9 -13.5l-0.5 -0.5l-0.5 -0.5q-5 -6 -8.5 -12.5
t-3.5 -14.5q0 -6 3.5 -16t9.5 -20q6 -12 14.5 -22t16.5 -16q5 -4 9 -5.5t8 -1.5t12.5 5t18.5 12q10 9 19.5 20.5t12.5 23.5q1 3 1.5 6t0.5 6q0 6 -1.5 11t-4.5 9v1z" />
    <glyph glyph-name="Z" unicode="Z" horiz-adv-x="686" 
d="M443 669q10 0 20 0.5t20 1.5q8 0 15.5 1t15.5 1q18 1 35.5 2t35.5 1q20 0 32.5 -12t12.5 -32v-2v-2q-1 -7 -4.5 -15.5t-12.5 -24.5l-216 -371q-19 -35 -27.5 -52.5t-8.5 -23.5q0 -13 16 -18t54 -5q53 0 81 17t51 63q1 2 2 4.5t2 4.5q3 6 6 11.5t5 8.5q7 10 14.5 13.5
t18.5 3.5q35 0 52 -19.5t17 -58.5q0 -14 -3.5 -35.5t-11.5 -44.5q-11 -36 -31.5 -65.5t-49.5 -29.5q-11 0 -22 1.5t-21 2.5q-11 2 -22 3.5t-22 1.5h-424q-37 0 -46.5 5.5t-9.5 28.5v6t1 5q1 5 4 11.5t9 16.5l251 427q6 10 8.5 16t2.5 10q0 14 -14.5 20.5t-41.5 6.5
q-34 0 -53.5 -7t-35.5 -29q-7 -9 -13.5 -21.5t-14.5 -28.5q-10 -22 -21.5 -32t-25.5 -10q-26 0 -46 23.5t-20 54.5q0 29 13.5 63t38.5 74q10 16 19.5 24t17.5 8q2 0 5.5 -0.5t7.5 -2.5q17 -6 45 -8t86 -2q23 0 44 0.5t40 1.5l119 8v0z" />
    <glyph glyph-name="bracketleft" unicode="[" horiz-adv-x="499" 
d="M306 513v-548q0 -47 10.5 -58.5t51.5 -11.5q8 0 15 0.5t15 1.5q7 1 14.5 1.5t14.5 0.5q21 0 33.5 -9t12.5 -25q0 -32 -37.5 -43.5t-144.5 -11.5q-60 0 -91.5 3t-42.5 11q-17 11 -25.5 46.5t-8.5 94.5v554q0 116 29.5 136.5t132.5 20.5q107 0 146 -11t39 -41
q0 -18 -12.5 -27t-38.5 -9q-7 0 -15 0.5t-15 1.5q-8 0 -15.5 0.5t-15.5 0.5q-36 0 -44 -12t-8 -67v1z" />
    <glyph glyph-name="backslash" unicode="\" horiz-adv-x="472" 
d="M240 463l176 -402l46 -95q4 -8 10 -19.5t13 -23.5q1 -3 2.5 -6t3.5 -5q8 -18 15 -34.5t7 -25.5q0 -17 -22.5 -29.5t-54.5 -12.5q-14 0 -22.5 2.5t-16.5 12.5q-7 10 -15.5 30t-21.5 54q-7 17 -19 46t-29 68l-176 401l-19 38t-28 55l-2.5 5l-2.5 5q-18 35 -31.5 66.5
t-13.5 43.5q0 18 21 28.5t58 10.5q20 0 30 -5.5t18 -24.5q2 -3 3.5 -7t2.5 -8q8 -21 16.5 -42t17.5 -42t17.5 -42.5t16.5 -42.5v1z" />
    <glyph glyph-name="bracketright" unicode="]" horiz-adv-x="499" 
d="M193 -26v548q0 46 -11 57.5t-52 11.5q-7 0 -14.5 -0.5t-14.5 -1.5t-14.5 -1.5t-14.5 -0.5q-21 0 -33.5 9t-12.5 25q0 32 37.5 43.5t144.5 11.5q59 0 90.5 -3t42.5 -11q17 -12 26 -47t9 -94v-553q0 -110 -25 -134t-138 -24q-106 0 -145.5 11t-39.5 40q0 18 13.5 27.5
t38.5 9.5q8 0 15.5 -0.5t14.5 -1.5q8 0 15.5 -0.5t14.5 -0.5q37 0 45 12t8 67v0z" />
    <glyph glyph-name="asciicircum" unicode="^" horiz-adv-x="500" 
d="M110 367h-109l192 299h113l193 -299h-109l-140 209l-140 -209v0z" />
    <glyph glyph-name="underscore" unicode="_" horiz-adv-x="500" 
d="M500 -67v-119h-500v119h500v0z" />
    <glyph glyph-name="grave" unicode="`" horiz-adv-x="500" 
d="M342 614q2 -3 4.5 -4.5t4.5 -3.5q10 -7 18 -16t8 -22q0 -19 -12.5 -27.5t-38.5 -8.5q-43 0 -85 14.5t-78 42.5q-19 15 -30 29t-11 24q0 23 32.5 39t80.5 16q38 0 60.5 -8t22.5 -21q0 -3 -1 -5.5t-3 -4.5q-1 -3 -2.5 -5.5t-1.5 -5.5q0 -8 6 -14.5t13 -10.5q4 -3 7 -5l6 -4
v1z" />
    <glyph glyph-name="a" unicode="a" horiz-adv-x="567" 
d="M498 304v-17.5v-16.5q-1 -8 -1 -16.5v-16.5q0 -61 7.5 -87t23.5 -29q11 -1 18.5 -5t7.5 -17q0 -38 -30.5 -66t-67.5 -38q-12 -4 -23.5 -6t-21.5 -2q-25 0 -41 7t-26 16q-9 7 -15 13t-12 9q-2 1 -3.5 1.5t-3.5 0.5q-6 0 -18 -7.5t-30 -16.5q-17 -9 -39 -16t-49 -7
q-70 0 -115 36t-45 93q0 72 52 106.5t115 45.5q16 2 32.5 3.5t32.5 1.5q29 1 36 6t7 27q0 50 -11 73.5t-34 23.5q-17 0 -29.5 -11t-24.5 -26q-2 -3 -5 -7t-6 -7q-15 -20 -33 -36t-46 -16q-24 0 -40 14t-16 34q0 45 43.5 74.5t95.5 45.5q29 9 57.5 13.5t48.5 4.5
q49 0 86.5 -10.5t66.5 -32.5l1.5 -1.5t1.5 -0.5q31 -24 42 -52.5t11 -85.5v1zM212 144q0 -23 11.5 -38t29.5 -15q20 0 29.5 16.5t9.5 50.5q0 26 -5.5 36t-21.5 10q-22 0 -37.5 -18t-15.5 -43v1z" />
    <glyph glyph-name="b" unicode="b" horiz-adv-x="633" 
d="M279 447l-1 -10q0 -5 2 -8t5 -3q2 0 15 9.5t33 20.5q19 10 41.5 19t45.5 11h4.5h4.5q80 0 133.5 -60.5t53.5 -150.5q0 -126 -82 -207t-209 -81q-34 0 -66.5 9t-58.5 21t-42.5 21.5t-18.5 9.5q-7 0 -13.5 -1.5t-12.5 -4.5q-1 0 -2 -0.5t-2 -0.5q-8 -3 -15.5 -5t-15.5 -2
q-15 0 -22 5t-7 15q0 9 2 18.5t5 19.5q2 9 4.5 19t2.5 20q2 41 3.5 82t1.5 82v136q0 46 -3.5 59.5t-18.5 20.5q-1 1 -2 1.5t-2 0.5q-5 2 -9 4t-7 4q-16 8 -22 17t-6 22q0 31 42.5 52.5t93.5 34.5q38 10 73 14.5t52 4.5q14 0 19.5 -6.5t5.5 -22.5l-5 -190v0zM279 259l2 -72
q2 -68 11.5 -91t36.5 -23q35 0 54 30.5t19 87.5q0 69 -21 108.5t-56 39.5q-26 0 -35 -18t-10 -40q-1 -6 -1 -11.5v-11.5v1z" />
    <glyph glyph-name="c" unicode="c" horiz-adv-x="526" 
d="M417 154q1 0 2 0.5t2 0.5q7 4 14.5 7.5t16.5 3.5q17 0 30 -15.5t13 -37.5q0 -50 -66.5 -88t-152.5 -38q-109 0 -184 70.5t-75 173.5q0 110 79 182.5t199 72.5q92 0 155 -42.5t63 -103.5q0 -40 -26.5 -67t-66.5 -27q-38 0 -52.5 18.5t-22.5 40.5q-1 2 -2 4.5t-2 4.5
q-7 19 -17 34t-34 15q-28 0 -46.5 -23t-18.5 -58q0 -57 37.5 -99t89.5 -42q5 0 11 0.5t12 1.5q12 1 23.5 4t18.5 6v1z" />
    <glyph glyph-name="d" unicode="d" horiz-adv-x="650" 
d="M589 628v-446q0 -33 2 -45t11 -20q2 -1 4 -2.5t4 -3.5q7 -5 12.5 -9.5t8.5 -8.5q5 -6 7 -12t2 -14q0 -27 -37 -43.5t-81 -23.5q-30 -6 -57.5 -8t-43.5 -2q-20 0 -24 8.5t-5 18.5v1v0v1.5v0.5q-1 8 -3.5 14.5t-13.5 6.5q-5 0 -17 -8.5t-30 -18.5q-18 -11 -41 -19t-50 -8
q-84 0 -152.5 75t-68.5 167q0 105 69.5 181t164.5 76q21 0 39.5 -4.5t33.5 -9.5l24.5 -10.5t15.5 -4.5q8 0 11.5 11t3.5 31t-11 28t-23 13q-1 0 -1.5 0.5t-1.5 0.5q-12 5 -22 12t-10 23q0 20 16.5 33t53.5 23q5 1 9.5 2.5t8.5 2.5q49 12 91.5 21t58.5 9q20 0 31 -10t11 -30
v1zM324 383q-34 -1 -54.5 -43.5t-20.5 -111.5q0 -56 18.5 -89.5t49.5 -33.5q33 0 47.5 35.5t14.5 117.5q0 65 -13 94.5t-42 29.5v1z" />
    <glyph glyph-name="e" unicode="e" horiz-adv-x="530" 
d="M470 219h-229q-8 -1 -11.5 -4t-3.5 -10q0 -30 24 -52t52 -31q8 -2 16.5 -3.5t15.5 -1.5q9 0 19.5 1.5t21.5 4.5q16 4 31.5 10.5t26.5 14.5l12 7.5t8 3.5q1 1 2.5 1h3.5q12 0 21 -10t14 -22q1 -5 2 -9t1 -8q0 -17 -11 -33.5t-33 -33.5q-39 -29 -84.5 -43t-98.5 -14
q-106 0 -179.5 69.5t-73.5 169.5q0 109 76 184.5t185 75.5q50 0 90.5 -13t73.5 -40q23 -18 40 -42.5t26 -49.5q4 -13 6.5 -25t2.5 -23q0 -34 -12.5 -54.5t-34.5 -20.5v1zM253 310h50q16 -1 23.5 6t7.5 22q0 26 -15 43t-39 17q-23 0 -40.5 -18.5t-17.5 -43.5q0 -15 7 -21
t24 -6v1z" />
    <glyph glyph-name="f" unicode="f" horiz-adv-x="425" 
d="M306 395h60q16 -1 22 -5.5t6 -15.5l-4 -57q-1 -18 -5.5 -23t-19.5 -5q-4 0 -7.5 0.5t-6.5 0.5q-4 0 -7.5 0.5t-7.5 0.5q-22 0 -29.5 -13t-7.5 -50q0 -62 11 -88t40 -35q23 -7 33 -18.5t10 -31.5q0 -34 -50 -49.5t-159 -15.5q-91 0 -133 16t-42 50q0 19 6.5 25t15.5 10
q4 1 8.5 3t8.5 4q15 9 27 38t12 106q0 23 -9 34.5t-32 11.5q-25 0 -32 2.5t-7 11.5v2l4 62q1 13 8 17.5t15 5.5h2h2q8 1 14 3.5t6 13.5q0 6 -5.5 17t-12.5 26t-12.5 33t-5.5 37q0 69 57.5 110.5t153.5 41.5q84 0 138 -34.5t54 -88.5q0 -30 -21.5 -51.5t-51.5 -21.5
q-22 0 -43.5 10t-38.5 28q-3 4 -6.5 8t-7.5 8q-10 12 -22.5 22t-28.5 10q-13 0 -23 -10.5t-10 -24.5q0 -27 18.5 -43t41.5 -29q1 -1 2.5 -1.5t2.5 -1.5q18 -11 33 -22.5t20 -28.5l0.5 -0.5l0.5 -0.5q2 -3 5 -4t10 -1v1z" />
    <glyph glyph-name="g" unicode="g" horiz-adv-x="578" 
d="M536 513q14 -1 23 -14.5t9 -33.5q0 -21 -8.5 -37.5t-17.5 -28.5q-10 -13 -18.5 -21.5t-8.5 -14.5q0 -3 0.5 -6t0.5 -6t0.5 -6t0.5 -6q0 -80 -69 -128.5t-182 -48.5q-6 0 -12.5 0.5t-12.5 1.5q-7 0 -13.5 0.5t-12.5 0.5q-12 0 -19.5 -7t-7.5 -19q0 -16 17 -25.5t46 -9.5
q22 0 44 2.5t44 5.5t44 5.5t44 2.5q68 0 106 -31t38 -88q0 -84 -89 -139t-227 -55q-109 0 -175.5 34.5t-66.5 92.5q0 18 8 30t18 20q10 7 18 11.5t8 8.5q0 5 -8 12.5t-17 18.5q-10 10 -18 23t-8 27q0 23 12 40t27 30q14 13 26 20.5t12 10.5q0 4 -10 14.5t-22 26.5
q-13 16 -23 37t-10 47q0 69 70.5 118.5t169.5 49.5q20 0 38.5 -3t36.5 -6q19 -3 36.5 -6t35.5 -3q29 0 55.5 10.5t50.5 31.5q6 5 10 7t7 2v1zM166 -33q-6 0 -9 -4t-3 -11q0 -29 32 -46t84 -17q44 0 71 12.5t27 33.5q0 13 -9.5 22t-23.5 9q-10 0 -21 -1t-21 -2
q-11 -1 -21.5 -2t-21.5 -1h-16t-14 1q-9 0 -20 1.5t-27 3.5q-4 1 -5.5 1h-1.5v0zM271 411q-22 -1 -37.5 -19t-15.5 -47q0 -56 16 -87t45 -31q25 0 39.5 20t14.5 53q0 52 -16.5 81t-45.5 29v1z" />
    <glyph glyph-name="h" unicode="h" horiz-adv-x="679" 
d="M284 171q0 -6 0.5 -11t0.5 -11v-5v-6q0 -16 3 -31t14 -27q1 -1 2 -2.5t2 -2.5h0.5h0.5q5 -7 10 -14.5t5 -16.5q0 -28 -36.5 -41t-108.5 -13q-84 0 -125.5 14t-41.5 42q0 14 8.5 22.5t18.5 16.5h0.5h0.5q1 1 2 1.5t2 1.5q15 11 22.5 48t8.5 111q1 43 1.5 61.5t0.5 32.5v5
v6q0 112 -5 141t-28 40q-16 8 -23 17t-7 20q0 28 40.5 47.5t88.5 31.5q38 8 71.5 12.5t48.5 4.5q17 0 23 -5t6 -19l-6 -204q0 -19 6 -28.5t17 -9.5q8 0 18.5 13.5t26.5 29.5q17 16 41.5 29.5t61.5 13.5t70.5 -13t53.5 -35q22 -22 30 -50t9 -82l4 -176q1 -18 5.5 -30.5
t12.5 -19.5q2 -1 3.5 -2.5l2.5 -2.5q9 -6 16 -14.5t7 -19.5q0 -26 -39 -38.5t-118 -12.5q-72 0 -108 11.5t-36 35.5q0 9 4 16t10 14v1v0q1 2 2.5 3.5t2.5 3.5q11 14 16 44.5t5 87.5q0 75 -16.5 106.5t-54.5 31.5q-28 0 -40.5 -18.5t-12.5 -62.5v-93v0z" />
    <glyph glyph-name="i" unicode="i" horiz-adv-x="356" 
d="M290 453v-284q0 -32 5.5 -47t19.5 -27l2.5 -2.5t3.5 -2.5q8 -6 13 -10.5t8 -8.5t4 -8.5t1 -10.5q0 -31 -40 -46.5t-118 -15.5q-92 0 -134.5 13t-42.5 43q0 16 9 25.5t20 17.5q1 0 1 0.5v0.5l1.5 1.5t1.5 0.5q16 11 22 36.5t6 74.5v16t-1 17q0 8 -0.5 16t-0.5 16v7v6
q-2 29 -3.5 38.5t-7.5 15.5q-1 1 -2 1.5t-2 1.5q-3 2 -6.5 4.5t-7.5 3.5q-1 1 -2 1.5l-1 0.5q-12 6 -20.5 13.5t-8.5 23.5t11 28.5t40 23.5q16 7 38.5 13.5t52.5 13.5q33 8 60.5 12.5t49.5 5.5q14 0 21 -8t7 -22v1zM190 667q7 -1 15.5 -1.5t16.5 -2.5q24 -4 44 -17t20 -40
q0 -39 -52 -66t-129 -27q-38 0 -62 16.5t-24 43.5q0 37 49.5 64t121.5 29v1z" />
    <glyph glyph-name="j" unicode="j" horiz-adv-x="369" 
d="M303 445v-433q0 -67 -10 -102.5t-35 -55.5q-24 -19 -58.5 -31t-70.5 -15q-5 -1 -10 -1h-10q-47 0 -79 19t-32 46q0 13 8.5 23t20.5 10q2 0 4 -0.5t4 -0.5t4 -0.5t4 -0.5q5 -1 7 -1h2q12 0 19.5 8t7.5 20q0 6 -1 11.5t-1 11.5q-1 5 -2 11t-1 12v310q0 23 -9.5 34t-21.5 17
q-2 1 -3.5 1.5t-2.5 1.5q-10 5 -17.5 12t-7.5 21q0 35 43 57.5t95 35.5q37 9 70.5 13t51.5 4q17 0 24 -8.5t7 -30.5v1zM196 667q7 -1 15.5 -1.5t16.5 -1.5q24 -4 44 -17t20 -40q0 -40 -52 -67t-129 -27q-38 0 -62 16.5t-24 43.5q0 37 49.5 64t121.5 29v1z" />
    <glyph glyph-name="k" unicode="k" horiz-adv-x="734" 
d="M365 126q-3 2 -8.5 10t-12.5 17q-1 1 -2 2.5t-2 2.5q-8 10 -15 17t-10 7q-5 0 -7.5 -4.5t-2.5 -14.5l-1 -19q0 -23 6.5 -35.5t13.5 -20.5l4 -4l4 -4q5 -6 8.5 -12.5t3.5 -15.5q0 -34 -37 -48t-120 -14h-17.5h-16.5q-8 1 -16.5 1h-17.5q-49 1 -73 15t-24 42q0 13 6 20
t14 12q1 1 3 2.5t3 2.5q9 6 16.5 15.5t9.5 27.5q5 45 7 93t2 107v107q0 55 -5.5 69.5t-27.5 17.5q-19 3 -29.5 11t-10.5 20q0 15 9 27t29 23q8 4 17 8t20 8q65 23 111.5 35t77.5 12q14 0 21 -6t7 -18l-5 -152v-15.5v-16.5q-1 -8 -1 -17.5v-18.5q0 -54 3.5 -66t19.5 -12
q7 0 16.5 4.5t34.5 18.5q13 7 18.5 13t5.5 11q0 3 -3 6.5t-6 8.5q-4 5 -7 11t-3 14q0 24 34.5 37.5t95.5 13.5q73 0 108 -15t35 -47q0 -12 -8.5 -20.5t-22.5 -11.5q-22 -4 -42 -14t-40 -21q-14 -9 -20 -14t-6 -10q0 -10 34.5 -59.5t83.5 -108.5q10 -13 18 -21.5t15 -15.5
q5 -5 10 -8.5t11 -7.5q3 -2 7.5 -4.5t9.5 -5.5t9 -5.5t8 -4.5q10 -8 14.5 -16t4.5 -18q0 -25 -22.5 -39.5t-60.5 -14.5h-159q-14 0 -23.5 3.5t-18.5 12.5q-1 2 -2 3l-2 2l-81 105v0z" />
    <glyph glyph-name="l" unicode="l" horiz-adv-x="365" 
d="M298 387v-156v-78q0 -37 5.5 -50t21.5 -21q4 -2 7.5 -3.5t6.5 -3.5q10 -5 13 -11t3 -16q0 -34 -35.5 -46t-128.5 -12q-89 0 -128.5 14t-39.5 46q0 15 10 22t22 12q20 8 26 53.5t6 173.5q0 119 -7 153t-34 50q-7 4 -12 7.5t-9 7.5q-8 7 -11.5 15t-3.5 18q0 33 43 54.5
t94 33.5q38 8 72 12t52 4q20 0 29.5 -11.5t9.5 -36.5q0 -6 -1 -24t-4 -48q-2 -20 -3.5 -40t-1.5 -40q-1 -20 -1.5 -40t-0.5 -40v1z" />
    <glyph glyph-name="m" unicode="m" horiz-adv-x="964" 
d="M597 216l1 -49q1 -35 4.5 -53t13.5 -32q1 -1 2 -2.5t2 -3.5l1.5 -1.5t0.5 -1.5q4 -6 7 -11.5t3 -13.5q0 -30 -38 -44t-116 -14q-82 0 -114 11t-32 40q0 12 3.5 18t9.5 10q2 2 4.5 4t4.5 5q8 7 14.5 23.5t7.5 52.5q0 7 0.5 14.5t0.5 14.5q1 14 1.5 29t0.5 29q0 50 -12 73
t-38 23q-29 0 -39 -30.5t-10 -125.5l1 -41q1 -20 4.5 -33t8.5 -22q3 -7 5.5 -12t4.5 -10q1 -4 2 -8.5t1 -8.5q0 -28 -39.5 -42t-113.5 -14q-73 0 -108.5 11.5t-35.5 36.5q0 5 0.5 8t1.5 6q2 5 7.5 10.5t16.5 14.5q18 17 24.5 54t6.5 127q0 47 -7.5 66.5t-15.5 27.5
q-3 3 -6 5t-5 4q-6 4 -9.5 9t-3.5 16q0 13 7 23t26 20q16 8 43 17t67 20q23 6 47 11t48 5q14 0 20 -9.5t6 -29.5v-4.5v-4.5q-1 -3 -1 -5.5v-4.5q0 -13 4 -21t11 -8q5 0 18 13.5t34 30.5q22 16 52 29.5t69 13.5q41 0 70.5 -15t44.5 -44q5 -9 8.5 -14t6.5 -7q1 0 2.5 -0.5
t3.5 -0.5q3 0 17 12.5t36 28.5q22 15 51 27.5t62 12.5q70 0 109 -37t39 -105q0 -16 -0.5 -32t-0.5 -32t-0.5 -32t-0.5 -32v-36t-1 -24q0 -19 3 -36t16 -33l2 -2t2 -3q5 -5 9.5 -11.5t4.5 -14.5q0 -31 -38 -46.5t-110 -15.5q-64 0 -104 15t-40 40q0 10 5 18.5t10 16.5
q2 2 3.5 4t2.5 4q8 11 11.5 41t3.5 89q0 71 -10.5 98.5t-39.5 27.5q-27 0 -39 -18.5t-12 -61.5l-1 -48v0z" />
    <glyph glyph-name="n" unicode="n" horiz-adv-x="671" 
d="M611 306l7 -171q0 -14 4 -25t11 -19l3.5 -3.5l3.5 -3.5v0l1 -1q7 -7 13.5 -15.5t6.5 -20.5q0 -33 -38.5 -45t-142.5 -12q-62 0 -90.5 11.5t-28.5 38.5q0 9 4 16t10 13l2 2l2 2t2 2.5t2 2.5q9 9 14.5 45t5.5 89q0 69 -14.5 98.5t-49.5 29.5q-31 0 -43.5 -21t-12.5 -76v-96
q0 -21 2 -33t9 -23q0 -1 1 -2.5t2 -2.5q1 -2 2.5 -4t2.5 -4q6 -7 10 -15t4 -17q0 -29 -39.5 -42.5t-124.5 -13.5q-68 0 -102 13t-34 40q0 8 0.5 12.5t3.5 8.5q3 3 7.5 7t12.5 9q15 11 20.5 51.5t5.5 146.5q0 32 -8.5 45.5t-19.5 20.5q-2 1 -4.5 2.5t-4.5 2.5q-8 5 -13.5 11
t-5.5 18q0 23 38.5 44t84.5 35q36 12 68.5 18.5t46.5 6.5t24 -10.5t10 -25.5v-4t-1 -8v-4.5v-4.5q1 -8 5 -15t14 -7q8 0 18 12.5t26 27.5t40.5 27.5t62.5 12.5q30 0 57.5 -8.5t48.5 -24.5q1 0 1.5 -0.5t0.5 -1.5q30 -23 41.5 -53t14.5 -90v1z" />
    <glyph glyph-name="o" unicode="o" horiz-adv-x="602" 
d="M310 487q105 -1 190 -66t85 -178q0 -109 -91 -182.5t-224 -73.5q-109 0 -181.5 64.5t-72.5 161.5q0 118 81.5 193.5t212.5 79.5v1zM278 374q-20 -2 -32 -17.5t-12 -41.5q0 -17 4 -43t11 -54q4 -19 10 -37.5t12 -34.5q8 -20 20 -30t29 -10q23 0 33.5 14.5t10.5 46.5
q0 20 -3.5 45t-10.5 51q-5 20 -11 39.5t-13 36.5q-7 15 -19 24.5t-29 9.5v1z" />
    <glyph glyph-name="p" unicode="p" horiz-adv-x="665" 
d="M84 177q0 11 -0.5 22.5t-0.5 22.5q0 44 -2.5 69.5t-17.5 27.5q-3 1 -5.5 1.5t-5.5 1.5q-16 4 -29 12.5t-13 28.5q0 17 7.5 28.5t24.5 22.5q6 4 12 7l14 7q53 25 95.5 37.5t81.5 16.5q8 0 15.5 0.5t15.5 0.5q17 0 21 -8t5 -17v-2v-1v-1.5v-0.5q0 -7 2 -13t10 -6
q3 0 16.5 8t34.5 18q16 8 34.5 14.5t38.5 9.5q5 1 10.5 1.5t10.5 0.5q79 0 134.5 -67.5t55.5 -162.5q0 -112 -66.5 -190.5t-158.5 -78.5q-16 0 -31.5 3.5t-29.5 7.5q-13 4 -24 7.5t-18 3.5t-10.5 -7.5t-3.5 -20.5q0 -21 6 -33.5t19 -21.5q1 -1 2.5 -1.5t2.5 -1.5
q0 -1 0.5 -1h0.5q11 -7 19.5 -15.5t8.5 -22.5q0 -29 -33.5 -44.5t-95.5 -15.5q-90 0 -156.5 28.5t-66.5 67.5q0 17 5.5 22.5t14.5 9.5q3 1 6.5 3t7.5 4q12 8 22.5 30t11.5 81l2 107v0zM307 300l-8 -135q0 -26 10.5 -38.5t37.5 -12.5q35 0 51 28t16 87q0 54 -19 85t-51 31
q-18 0 -27 -11.5t-10 -34.5v1z" />
    <glyph glyph-name="q" unicode="q" horiz-adv-x="648" 
d="M386 478q6 -2 11.5 -3.5t11.5 -2.5q14 -4 27.5 -6.5t26.5 -2.5t25.5 3.5t24.5 8.5q12 4 24.5 7.5t25.5 3.5q21 0 32 -8.5t11 -25.5q0 -10 -1 -20.5t-3 -23.5q-5 -38 -8.5 -77.5t-4.5 -79.5q-2 -41 -2.5 -80.5t-0.5 -77.5q0 -14 0.5 -28t0.5 -28q1 -15 1.5 -28.5
t1.5 -27.5q1 -25 4 -36.5t12 -20.5q2 -2 5 -4.5t7 -5.5q11 -8 16 -18t5 -23q0 -29 -33 -44.5t-96 -15.5q-93 0 -153 23.5t-60 59.5q0 14 7.5 21.5t17.5 14.5l4 2t5 3q12 8 22.5 20t10.5 37q0 13 -3 19t-10 6q-6 0 -18 -5t-27 -11q-16 -5 -33.5 -10t-35.5 -6h-2h-2
q-94 0 -155 70t-61 180q0 113 78 181t207 68q23 0 44.5 -2t39.5 -7v1zM316 380q-27 -1 -44 -33.5t-17 -84.5q0 -65 21.5 -109t52.5 -44q27 0 35.5 24.5t8.5 100.5q0 84 -12 114.5t-45 30.5v1z" />
    <glyph glyph-name="r" unicode="r" horiz-adv-x="535" 
d="M286 449v-3t1 -3v-2v-3v-3.5t1 -2.5q1 -10 4 -17.5t12 -7.5q6 0 15 11.5t23 26.5q14 14 33.5 25.5t47.5 11.5q46 0 75.5 -31t29.5 -79q0 -47 -34 -81t-83 -34q-10 0 -18 1.5t-16 5.5q-11 4 -22.5 13.5t-27.5 24.5q-3 3 -6 5.5t-5 3.5q-2 0 -4 0.5t-4 0.5
q-13 0 -17.5 -15.5t-4.5 -65.5q0 -81 5.5 -101.5t31.5 -29.5q1 0 2 -0.5t2 -0.5q21 -6 32.5 -18t11.5 -28q0 -37 -41 -50t-153 -13q-85 0 -126 15t-41 47q0 9 3 16.5t9 14.5q4 3 8.5 6.5t9.5 7.5q1 1 2 1.5t2 1.5q18 13 23 34.5t6 83.5q1 36 1 56.5v24.5q0 26 -9 35.5
t-20 14.5l-3 1.5t-2 0.5q-10 5 -17.5 11.5t-7.5 23.5q0 29 38.5 49t84.5 31q33 9 63.5 13t46.5 4q22 0 29 -6.5t9 -28.5v1z" />
    <glyph glyph-name="s" unicode="s" horiz-adv-x="477" 
d="M199 -7q-4 0 -8.5 1t-8.5 1q-9 2 -18 3t-18 1h-2.5h-2.5q-2 0 -4.5 -0.5t-5.5 -0.5q-6 -2 -9 -2h-3q-2 -1 -4.5 -1h-4.5q-12 0 -19.5 2t-14.5 7q-3 2 -5.5 5t-5.5 7q-10 12 -18.5 27.5t-14.5 30.5t-9 29.5t-3 26.5q0 21 9.5 33t25.5 12q18 0 31.5 -12t26.5 -28
q2 -2 3.5 -4t3.5 -3q14 -18 30.5 -33t39.5 -15q17 0 26.5 8.5t9.5 24.5q0 5 -3 10t-9 10q-13 11 -35 23t-46 27q-35 22 -64 55.5t-29 85.5q0 71 48.5 116.5t123.5 45.5q13 0 25.5 -2t24.5 -4q12 -3 24.5 -5t25.5 -2q7 0 13 2t13 5l12 4t13 2h2.5h2.5q20 -4 38.5 -25.5
t30.5 -46.5q7 -15 10.5 -28.5t3.5 -23.5q0 -21 -13.5 -34.5t-34.5 -13.5q-20 0 -35.5 12t-29.5 26l-4 4t-5 4q-11 12 -23.5 21t-27.5 9q-13 0 -23.5 -10t-10.5 -23q0 -11 8.5 -20t22.5 -17q15 -10 34 -19.5t40 -20.5q39 -22 71.5 -55t32.5 -88q0 -64 -53.5 -107t-132.5 -43
q-9 0 -17.5 0.5t-16.5 1.5t-16.5 2t-17.5 2v0z" />
    <glyph glyph-name="t" unicode="t" horiz-adv-x="463" 
d="M308 359v-165q0 -30 14.5 -49t36.5 -19q19 0 27.5 3.5t13.5 7.5l2 2t2 1q3 4 7.5 6t12.5 2q11 0 18.5 -9t10.5 -20q2 -4 2.5 -8t0.5 -8q0 -38 -36.5 -63.5t-80.5 -38.5q-24 -7 -47 -10.5t-40 -3.5q-76 0 -123 44t-47 116v226q0 10 -3 13t-14 3l-50 1q-14 -1 -17.5 4
t-3.5 21l-1 23q1 0 1 1v2q1 5 3.5 10t6.5 7l224 142q4 1 8.5 2t11.5 1l40 1q12 -1 16 -6.5t4 -21.5v-66q0 -15 4.5 -19.5t20.5 -4.5l90 1q18 -1 23.5 -7.5t5.5 -28.5v-28q0 -24 -7 -33t-25 -9l-88 1q-13 -1 -18.5 -5.5t-5.5 -18.5v1z" />
    <glyph glyph-name="u" unicode="u" horiz-adv-x="678" 
d="M617 386l-1 -34v-215q0 -13 7.5 -19.5t16.5 -11.5q1 -1 1.5 -1h0.5q10 -6 18 -13t8 -21q0 -33 -66.5 -57t-155.5 -24q-26 0 -34 8.5t-9 19.5q-1 1 -1 3v4q-1 9 -3.5 15t-13.5 6q-6 0 -20 -9t-34 -19q-19 -11 -43 -19.5t-51 -8.5q-101 0 -132 59.5t-31 147.5v17.5t1 17.5
v16.5v17.5q0 59 -6.5 80.5t-29.5 33.5q-9 5 -15 8.5t-9 6.5q-3 4 -4 8t-1 10q0 18 14 30t42 19q21 4 45 8t49 6q25 3 50.5 4.5t46.5 1.5q14 0 21.5 -6t7.5 -18v-264q0 -43 15 -64.5t43 -21.5q33 0 44.5 27.5t11.5 107.5q0 81 -4 103.5t-24 32.5l-1.5 1.5t-1.5 0.5
q-13 7 -20.5 16.5t-7.5 19.5q0 15 12.5 26.5t35.5 16.5q19 5 40.5 8.5t43.5 6.5q25 3 50 5t46 2q24 0 36.5 -13.5t12.5 -39.5q0 -6 -0.5 -11.5t-0.5 -10.5v-10.5v-11.5v1z" />
    <glyph glyph-name="v" unicode="v" horiz-adv-x="627" 
d="M529 333l-126 -246q-19 -37 -33.5 -59t-28.5 -31q-8 -6 -15.5 -8.5t-16.5 -2.5q-21 0 -43 22.5t-46 68.5l-139 264q-7 13 -16 22t-18 15q-7 4 -14 7t-13 6q-12 5 -19 12t-7 22q0 30 45.5 43.5t144.5 13.5q83 0 122 -11.5t39 -36.5q0 -10 -5.5 -17.5t-12.5 -14.5h-0.5
t-0.5 -1q-6 -6 -11.5 -13t-5.5 -17q0 -7 3.5 -18.5t9.5 -23.5q8 -17 18.5 -31t21.5 -19q2 0 4 -0.5t4 -0.5q4 0 8 1t8 4q5 4 10.5 12t12.5 22q1 3 2.5 5.5t3.5 4.5q7 12 13 25t6 27q0 8 -5 14.5t-11 12.5v0.5v0.5q-7 6 -12 13t-5 16q0 25 29.5 35.5t99.5 10.5q56 0 80 -10
t24 -34q0 -12 -8.5 -20.5t-27.5 -14.5q-4 -1 -7.5 -2.5t-6.5 -2.5q-9 -3 -15 -7t-12 -11t-12.5 -18.5t-15.5 -29.5v1z" />
    <glyph glyph-name="w" unicode="w" horiz-adv-x="989" 
d="M531 165q-2 2 -4.5 6.5t-5.5 8.5q-5 8 -11.5 15t-14.5 7q-5 0 -9.5 -2t-8.5 -5q-4 -4 -8.5 -10t-9.5 -15l-82 -140q-11 -21 -24.5 -30.5t-28.5 -9.5q-9 0 -17 3t-16 8q-8 7 -16 17t-17 25l-146 245q-25 41 -43 61.5t-33 24.5q-1 0 -2.5 0.5t-2.5 1.5q-14 4 -25 12t-11 25
q0 33 48.5 51t136.5 18q78 0 117 -14t39 -43q0 -6 -3 -11.5t-6 -9.5q0 -1 -0.5 -1.5l-1.5 -1.5q-3 -4 -5 -8t-2 -9q0 -6 5 -20t13 -30q6 -11 12.5 -21.5t13.5 -18.5q5 -6 10.5 -9.5t10.5 -3.5q4 0 7 1t6 3q4 3 7.5 8t8.5 12q1 3 3 5.5t4 5.5q4 6 7 12.5t3 13.5q0 17 -9 27
t-20 18q-2 0 -3 1l-2 2q-10 7 -17.5 15t-7.5 20q0 29 46.5 43.5t143.5 14.5q75 0 107 -13t32 -42q0 -9 -5 -16t-10 -13q-1 -1 -1.5 -1t-0.5 -1q-5 -6 -9.5 -12t-4.5 -14q0 -6 5 -18t12 -26q4 -7 8 -13.5t8 -12.5q7 -10 13 -16t11 -6h3t3 1q9 3 18.5 14.5t21.5 32.5
q11 21 15 30t4 16v0.5v1.5q0 2 -0.5 4t-0.5 4l-2 4t-3 4q-1 2 -2 3.5t-3 2.5v1l-1 1q-5 7 -10 15.5t-5 18.5q0 25 29 37t88 12q62 0 89 -12t27 -39q0 -16 -10.5 -23t-23.5 -11q-2 -1 -4.5 -2t-4.5 -1q-1 -1 -2.5 -1.5t-2.5 -0.5q-10 -4 -17.5 -9t-14.5 -13q-6 -7 -12 -17.5
t-14 -25.5l-122 -235q-27 -53 -50.5 -78.5t-44.5 -25.5q-12 0 -26.5 11.5t-29.5 30.5q-10 12 -19 25t-18 27q-15 24 -28 46.5t-21 35.5v1z" />
    <glyph glyph-name="x" unicode="x" horiz-adv-x="602" 
d="M480 312q-2 -4 -7.5 -11t-11.5 -15q-1 -2 -2.5 -4t-2.5 -3q-6 -9 -10.5 -17t-4.5 -13q0 -6 14.5 -29.5t34.5 -50.5q3 -4 7 -9t7 -10q17 -23 33 -40t24 -21q2 -1 4.5 -2t5.5 -2q12 -6 21.5 -14t9.5 -23q0 -34 -40.5 -46t-149.5 -12q-95 0 -128.5 10.5t-33.5 41.5
q0 13 6.5 19.5t13.5 10.5q1 0 2 0.5t2 1.5q6 3 11 7.5t5 12.5q0 6 -3 14.5t-8 18.5t-12 19t-14 15q-4 3 -8 5t-8 2t-11.5 -7t-14.5 -18q-4 -5 -7.5 -10.5t-7.5 -11.5q-7 -12 -11.5 -23t-4.5 -17q0 -7 3.5 -12.5t7.5 -10.5v-0.5v-0.5q5 -5 8.5 -11t3.5 -14q0 -22 -24.5 -32
t-77.5 -10q-52 0 -76.5 10.5t-24.5 32.5q0 17 7.5 24.5t28.5 11.5q7 1 12.5 3t10.5 6q8 6 17.5 19.5t26.5 40.5q9 14 17.5 28t17.5 28t17.5 28t17.5 28q2 5 3.5 7.5t1.5 3.5v1.5v0.5q-1 1 -2.5 3l-4.5 6q-1 1 -2 2.5t-2 2.5l-12 16t-12 17q-18 25 -40.5 47.5t-52.5 29.5
q-18 4 -28.5 13t-10.5 21q0 32 48.5 46.5t156.5 14.5q82 0 116 -10.5t34 -36.5q0 -7 -3 -12.5t-6 -10.5q-1 -1 -1 -1.5t-1 -0.5q-3 -5 -5.5 -10t-2.5 -11q0 -4 3 -10.5t7 -13.5q3 -5 6.5 -9.5t7.5 -8.5t8 -6.5t7 -2.5q5 0 12 6t15 19q9 13 12 19.5t3 10.5q0 6 -3 11.5
t-6 10.5q-4 5 -7 10.5t-3 11.5q0 24 24 34.5t77 10.5q46 0 67 -10.5t21 -33.5q0 -10 -5 -17.5t-16 -12.5q-26 -12 -41 -25.5t-27 -30.5q-7 -9 -13.5 -19t-15.5 -22v1z" />
    <glyph glyph-name="y" unicode="y" horiz-adv-x="619" 
d="M484 246l-65 -177q-33 -92 -90 -166t-168 -74q-65 0 -107 32t-42 82q0 37 24.5 62t59.5 25q32 0 47 -15.5t24 -34.5q2 -6 4.5 -12t4.5 -12q5 -11 10 -18.5t13 -7.5q16 0 26.5 13t10.5 33v1.5v0.5q0 13 -6 28.5t-20 45.5l-117 251q-13 28 -24 42.5t-22 19.5q-3 1 -5.5 2
t-4.5 3q-14 6 -25.5 15.5t-11.5 26.5q0 26 27 41.5t85 22.5l20 2l20 2q17 1 33.5 1.5t30.5 0.5q63 0 93 -14.5t30 -46.5q0 -7 -3 -13.5t-7 -12.5l-0.5 -0.5l-0.5 -0.5q-4 -6 -7.5 -13t-3.5 -15q0 -7 4.5 -20t10.5 -28q6 -12 13 -23.5t14 -19.5q5 -4 9.5 -7t8.5 -3
q13 0 22 14t15 31q5 14 7.5 26.5t2.5 16.5q0 14 -4.5 23t-10.5 16q-1 1 -1.5 2t-1.5 2q-5 7 -8.5 14t-3.5 17q0 25 32.5 40t86.5 15q53 0 79.5 -12.5t26.5 -38.5q0 -15 -7 -24t-24 -17q-4 -2 -8.5 -4t-9.5 -4q-12 -4 -21.5 -11.5t-18.5 -21.5q-10 -15 -21 -40t-25 -64v1z
" />
    <glyph glyph-name="z" unicode="z" horiz-adv-x="514" 
d="M267 474h130q56 -1 70 -6t14 -27q0 -8 -4 -20t-12 -26l-129 -229q-10 -17 -13 -25.5t-3 -15.5q0 -11 9 -17t25 -6q27 0 42 13t24 28q4 5 7 10.5t6 10.5q6 8 12 14t14 6q21 0 34.5 -17t13.5 -45q0 -11 -4 -26.5t-11 -32.5q-13 -29 -34 -53.5t-46 -24.5q-7 0 -15 2.5
t-17 4.5q-10 3 -20.5 5.5t-22.5 2.5h-256q-31 0 -48 9.5t-17 25.5q0 6 1.5 11.5t3.5 9.5q0 3 4.5 11.5t11.5 17.5q0 1 0.5 1.5l1.5 1.5q5 8 9.5 15t6.5 10l112 180q17 27 24 41t7 21q0 11 -10 15.5t-31 4.5q-24 0 -37 -12.5t-23 -26.5l-2 -4t-2 -3q-8 -13 -17.5 -23
t-26.5 -10q-18 0 -30.5 14.5t-12.5 35.5q0 12 3 26.5t8 28.5q9 26 23.5 49t29.5 34q5 3 9.5 5t9.5 2q3 0 7.5 -0.5t9.5 -2.5q8 -3 16 -5l16 -4q12 -2 23.5 -3t24.5 -1l81 -1v0z" />
    <glyph glyph-name="braceleft" unicode="{" horiz-adv-x="499" 
d="M306 -5v-37q0 -38 15 -49t66 -11h8h8q4 1 8 1h8q28 0 41 -8.5t13 -27.5q0 -31 -40 -42t-151 -11q-77 0 -118 29.5t-41 114.5v153q0 46 -13.5 62.5t-30.5 23.5q-3 1 -5.5 2t-4.5 2q-14 5 -24 13t-10 32t10.5 32.5t23.5 13.5q3 1 5.5 2t4.5 2q17 7 30.5 23.5t13.5 63.5v154
q0 83 41.5 113t117.5 30q111 0 151 -11t40 -43q0 -18 -13 -26.5t-41 -8.5h-8t-8 1h-8h-8q-51 0 -66 -11.5t-15 -49.5v-36v-121q0 -38 -8 -61t-17 -36q-10 -13 -18 -19t-8 -10q0 -5 8 -12.5t18 -21.5q9 -14 17 -36.5t8 -57.5v-121v0z" />
    <glyph glyph-name="bar" unicode="|" horiz-adv-x="500" 
d="M202 667h96v-844h-96v844v0z" />
    <glyph glyph-name="braceright" unicode="}" horiz-adv-x="499" 
d="M193 491v37q0 37 -15.5 48.5t-65.5 11.5h-10.5t-10.5 -1h-10.5t-10.5 1q-17 1 -30.5 7.5t-13.5 26.5q0 32 39.5 43t151.5 11q77 0 117.5 -29t40.5 -115v-152q0 -46 11 -63.5t44 -27.5q16 -5 25 -17.5t9 -29.5t-9 -29t-25 -17q-33 -10 -44 -28t-11 -62v-152
q0 -83 -39.5 -113.5t-118.5 -30.5q-112 0 -151.5 11t-39.5 42q0 18 13 27t40 9h7.5t7.5 -1h7.5h7.5q39 0 61.5 8t22.5 52v37v122q0 37 9.5 65.5t25.5 41.5q1 1 2.5 2t3.5 2q4 2 7 5.5t3 7.5q0 1 -1 3t-2 5l-2.5 2.5l-2.5 2.5q-25 23 -34 52t-9 63v122v0z" />
    <glyph glyph-name="asciitilde" unicode="~" horiz-adv-x="500" 
d="M444 667l54 -61q-19 -32 -35.5 -53.5t-32.5 -35.5q-17 -14 -34.5 -20t-37.5 -6q-29 0 -55 10.5t-52 23.5q-1 0 -1.5 0.5t-1.5 0.5q-25 12 -50 22t-53 10q-11 0 -21 -3.5t-20 -11.5q-11 -10 -23 -27t-26 -43l-54 63q16 28 31 48.5t29 34.5q19 20 39.5 28t44.5 8
q13 0 26 -2.5t26 -6.5q15 -5 30.5 -11.5t30.5 -12.5q27 -13 52 -23.5t46 -10.5q11 0 20 3t18 10q11 9 23 24.5t27 40.5v1z" />
    <glyph glyph-name="exclamdown" unicode="&#xa1;" horiz-adv-x="308" 
d="M155 -186q-50 0 -82.5 40.5t-32.5 102.5q0 15 1.5 30t3.5 30q9 50 30 98t51 85q3 3 5.5 6t4.5 5q6 5 11 7.5t9 2.5q12 0 30.5 -24t37.5 -67q7 -15 13 -30t11 -31q10 -30 15 -59.5t5 -55.5q0 -63 -31 -101.5t-82 -38.5v0zM156 276q-46 -1 -77 29t-31 75q0 44 31.5 75
t76.5 31q41 0 72.5 -30.5t31.5 -71.5q0 -46 -30 -77.5t-74 -31.5v1z" />
    <glyph glyph-name="cent" unicode="&#xa2;" horiz-adv-x="600" 
d="M255 516v13q0 20 6.5 26.5t27.5 6.5l28 1q21 -1 26.5 -9.5t6.5 -18.5v-2v-2v-0.5v-0.5q0 -9 2.5 -16.5t15.5 -9.5q63 -7 109.5 -45t46.5 -84q0 -38 -24.5 -62t-63.5 -24q-31 0 -43.5 16.5t-20.5 36.5q-1 1 -1.5 2.5t-0.5 3.5q-7 18 -17 32t-32 14q-24 0 -40.5 -21.5
t-16.5 -52.5q0 -52 34 -89t81 -37q7 0 14 0.5t13 1.5q11 2 22.5 6t25.5 10q5 2 8.5 3t6.5 1q14 0 26 -14.5t12 -32.5q0 -36 -39 -66t-105 -45q-8 -2 -10.5 -6t-2.5 -17v-14q0 -21 -6.5 -27t-26.5 -6h-28q-19 0 -26.5 6.5t-7.5 25.5v20q0 12 -2 16t-12 6q-1 1 -3 1.5t-4 0.5
q-60 13 -103.5 68.5t-51.5 120.5q-1 6 -1.5 13t-0.5 14q0 71 47 132.5t115 79.5h1.5t1.5 1q9 2 11 5.5t2 16.5v1z" />
    <glyph glyph-name="sterling" unicode="&#xa3;" horiz-adv-x="600" 
d="M323 218q-1 -3 -2.5 -5t-2.5 -5l-2 -4l-2 -4q-1 -3 -2 -5.5t-1 -5.5q0 -7 5.5 -13t18.5 -11q28 -11 45.5 -16t33.5 -6h1h2q27 0 43 13.5t29 29.5q2 2 3.5 4.5t3.5 5.5q10 13 21.5 23t28.5 10q22 0 35.5 -15.5t13.5 -40.5q0 -73 -56 -129.5t-129 -56.5q-32 0 -59.5 9.5
t-48.5 21.5t-34.5 22t-16.5 10q-10 0 -23.5 -10t-31.5 -21q-18 -12 -39 -21.5t-46 -9.5q-43 0 -72 32t-29 81q0 50 23 77.5t63 27.5q7 0 14 -1t14 -3q7 -1 14 -2.5t14 -1.5q6 0 9 3t3 8v4t-1 5q-2 9 -3.5 16t-2.5 12q-2 15 -10 18.5t-43 3.5h-6h-6q-4 -1 -7 -1h-6
q-23 0 -31.5 13.5t-8.5 35.5q0 19 6.5 29t17.5 10l25 1q11 0 16 2.5t5 8.5q0 8 -2 16.5t-4 17.5q-3 8 -5 17.5t-2 18.5q0 86 70 135t191 49q52 0 88 -10.5t65 -34.5q26 -21 40.5 -47.5t14.5 -55.5q0 -37 -21.5 -58.5t-58.5 -21.5q-31 0 -50 17t-19 46v6.5t1 7.5v6.5v6.5
q0 23 -11 33.5t-37 10.5q-27 0 -40.5 -16t-13.5 -48q0 -62 12 -82t49 -20h6.5t7.5 1h7.5h6.5q25 0 32.5 -10.5t7.5 -39.5q0 -19 -6.5 -27.5t-22.5 -8.5l-11 1q-45 -1 -56 -10t-15 -24q-2 -6 -4 -12.5t-6 -13.5v1z" />
    <glyph glyph-name="currency" unicode="&#xa4;" horiz-adv-x="667" 
d="M111 528l-74 74q-3 2 -5 4t-4 3q-1 2 -2 4.5t-1 4.5v2v2q1 2 3.5 4.5l8.5 8.5l36 37q6 5 8.5 7.5t4.5 3.5h2h2q5 0 18.5 -14.5t30.5 -31.5q2 -2 3.5 -4t3.5 -4q15 -15 28.5 -27t21.5 -12q3 0 16 6t32 13t41 12.5t46 6.5h1h2q27 0 49.5 -6t40.5 -13q17 -7 29 -13t19 -6
q3 0 6 1t5 3l75 76q7 6 10 9t6 3q1 1 2 1h2h2h2q2 -1 4.5 -3.5l8.5 -8.5l36 -35q6 -7 8.5 -9.5t3.5 -4.5v-2v-2q0 -4 -2.5 -7.5t-5.5 -6.5q-1 0 -2 -1l-2 -2l-74 -73l-6 -7.5t-3 -4.5v-2v-2q0 -3 6.5 -16t13.5 -32q6 -16 11.5 -34t7.5 -37q0 -5 0.5 -9.5t0.5 -9.5
q0 -28 -6 -51.5t-14 -40.5q-7 -17 -13.5 -28.5t-6.5 -16.5v-2v-2q1 -2 3 -4t6 -7l74 -73q1 -2 2 -3t2 -1q3 -3 5.5 -6.5t2.5 -7.5v-2v-1q-1 -3 -3.5 -5.5t-8.5 -9.5q-2 -2 -8 -8.5t-14 -14.5l-3 -3l-3 -3q-7 -7 -14 -12.5t-11 -5.5q-8 0 -22 14.5t-29 32.5l-2 2l-2 2
q-15 16 -28.5 29t-22.5 13q-4 0 -16.5 -6t-30.5 -13q-19 -7 -42 -13t-49 -6q-25 0 -48.5 6t-42.5 13q-18 7 -30.5 13t-16.5 6q-9 0 -22.5 -14.5t-28.5 -31.5q-1 -2 -3 -4t-3 -4q-14 -15 -26.5 -27t-22.5 -12q-3 0 -12.5 7t-19.5 17l-4.5 4.5l-4.5 4.5q-10 10 -17 19.5
t-7 12.5q0 2 1 4.5t2 4.5q2 1 4 3l5 5l74 75q5 4 6.5 6t2.5 4v2v2q0 2 -6.5 14.5t-13.5 31.5q-8 18 -14 40t-7 45v2.5v3.5q0 9 1 18.5t2 18.5q4 24 12 46.5t18 38.5q1 1 1.5 2t1.5 2q2 3 3.5 6t1.5 6v2v2q-1 2 -2.5 4.5t-6.5 6.5v1zM334 513q-56 -1 -96 -41t-40 -96
t40 -96.5t96 -40.5t96 40t40 97q0 56 -40 96t-96 40v1z" />
    <glyph glyph-name="yen" unicode="&#xa5;" horiz-adv-x="600" 
d="M446 349h-15q-17 -2 -22 -15.5t-6 -29.5q0 -2 -0.5 -3.5t-0.5 -3.5v-1.5v-1.5v-2.5v-3.5q-1 -1 -1 -2.5v-3.5v0q0 -9 5 -12.5t17 -3.5h19.5t19.5 1h18.5h19.5q22 0 37 -7t15 -32q0 -16 -9 -22.5t-31 -6.5l-2 1q-9 -1 -18.5 -1h-19.5q-10 -1 -19.5 -1h-18.5
q-22 0 -26.5 -2t-4.5 -13q0 -43 6.5 -61t28.5 -29q17 -9 24.5 -19t7.5 -22q0 -33 -44 -47.5t-139 -14.5q-88 0 -136.5 15.5t-48.5 45.5q0 16 7.5 23t17.5 12q3 2 6.5 3.5t7.5 3.5q14 8 26 26t12 60q0 9 -4 12t-16 3h-14.5t-14.5 -1q-8 0 -15 -0.5t-15 -0.5q-20 0 -35.5 7.5
t-15.5 30.5q0 16 8 24t23 8h37.5t37.5 1q17 0 21.5 3t4.5 13q0 5 -1 12.5t-2 14.5q-3 14 -9.5 25.5t-16.5 11.5h-15.5h-15.5t-15.5 -0.5t-15.5 -0.5q-19 0 -35 7t-16 30q0 16 8 24t23 9l26 1q1 -1 2.5 -1h2.5q5 0 8.5 2t3.5 8v0.5v0.5q-1 4 -3.5 8t-9.5 13q-6 3 -14 14.5
t-18 24.5q-8 10 -17.5 20t-19.5 15t-17 9.5t-11 7.5q-4 6 -5.5 11.5t-1.5 14.5q0 33 36.5 46.5t127.5 13.5q89 0 127 -12t38 -39q0 -9 -5 -15l-10 -12q-1 0 -1.5 -0.5l-0.5 -0.5q-5 -5 -9.5 -10.5t-4.5 -13.5q0 -6 3.5 -15t8.5 -18q5 -10 12 -19t15 -15q4 -4 8.5 -6t8.5 -2
t11.5 4t16.5 12q11 9 20.5 22.5t9.5 28.5q0 7 -3 11.5t-8 8.5q-1 2 -2.5 3t-2.5 3q-6 5 -11 13t-5 21q0 26 30.5 38t94.5 12q62 0 83.5 -10.5t21.5 -42.5q0 -17 -8 -26t-29 -14q-22 -6 -38.5 -22.5t-30.5 -35.5q-6 -8 -11.5 -15.5t-11.5 -14.5q-4 -4 -6 -7l-2 -3
q-1 -1 -1.5 -3t-0.5 -4q0 -4 2.5 -5.5t8.5 -1.5q3 0 6.5 0.5t7.5 0.5q3 0 6.5 0.5t6.5 0.5q34 0 45.5 -8t11.5 -31q0 -16 -9 -22.5t-29 -6.5h-19.5h-19.5q-10 -1 -19.5 -1h-19.5v1z" />
    <glyph glyph-name="brokenbar" unicode="&#xa6;" 
 />
    <glyph glyph-name="section" unicode="&#xa7;" horiz-adv-x="720" 
d="M506 520q-1 0 -2.5 1.5t-3.5 2.5q-25 23 -51.5 39t-62.5 16q-27 0 -44.5 -11.5t-17.5 -28.5q0 -20 20 -33t66 -22q14 -3 31.5 -7t35.5 -9q9 -3 19 -6t19 -6q14 -5 26 -9.5t21 -8.5q43 -19 68 -57.5t25 -85.5q0 -37 -14 -62.5t-31 -43.5q-18 -17 -32 -27t-14 -16
q0 -5 13.5 -14t30.5 -26q16 -16 29.5 -41t13.5 -61q0 -88 -73 -141t-197 -53q-91 0 -156 16t-111 50q-10 7 -18.5 16t-15.5 19t-11 20t-4 17q0 22 30.5 36.5t75.5 14.5q18 0 30.5 -7.5t23.5 -19.5q5 -4 9.5 -8.5t8.5 -9.5q18 -16 42 -30t66 -14q31 0 50 12.5t19 32.5
q0 18 -16.5 29.5t-52.5 18.5q-12 3 -25 6t-26 7q-26 8 -52 16.5t-48 17.5q-14 6 -26.5 12t-22.5 11q-34 20 -55.5 57t-21.5 77q0 42 21 79.5t58 59.5l4.5 3t2.5 2t1.5 2.5t0.5 2.5q0 2 -0.5 3t-1.5 2q0 1 -1.5 2.5t-3.5 2.5q-34 25 -52.5 58t-18.5 68q0 89 74 136.5
t213 47.5q113 0 192 -32t79 -77q0 -18 -18.5 -32t-40.5 -21q-11 -4 -21.5 -6t-18.5 -2q-12 0 -21 3.5t-16 9.5v1zM312 219q7 -3 16.5 -6.5t20.5 -7.5l6 -2l6 -2q15 -5 28.5 -8.5t22.5 -3.5q8 0 14.5 8.5t9.5 19.5q3 6 4 12t1 10q0 17 -10.5 28t-30.5 16q-7 2 -18.5 5.5
t-23.5 7.5q-2 1 -3.5 1.5t-2.5 0.5q-16 5 -30.5 9t-21.5 4q-10 0 -16.5 -8.5t-10.5 -19.5q-2 -6 -3 -11.5t-1 -9.5q0 -16 10 -26.5t33 -17.5v1z" />
    <glyph glyph-name="dieresis" unicode="&#xa8;" horiz-adv-x="500" 
d="M128 686q47 -1 74 -17t27 -44q0 -34 -45 -57.5t-112 -23.5q-39 0 -64.5 17t-25.5 42q0 40 38 61t108 21v1zM417 686q47 -1 74 -17t27 -44q0 -34 -45 -57.5t-112 -23.5q-39 0 -65 17t-26 42q0 40 38.5 61t108.5 21v1z" />
    <glyph glyph-name="copyright" unicode="&#xa9;" horiz-adv-x="778" 
d="M392 680q149 -1 256 -102.5t107 -244.5t-107 -244.5t-256 -101.5q-154 0 -261.5 101t-107.5 245t107.5 245t261.5 101v1zM391 614q-122 -1 -208.5 -83t-86.5 -198q0 -117 86.5 -199t208.5 -82q120 0 205.5 82.5t85.5 198.5t-85.5 198t-205.5 82v1zM503 501q4 0 7.5 0.5
t7.5 0.5q22 0 38.5 -27.5t16.5 -63.5q0 -25 -15 -40.5t-40 -15.5q-14 0 -24 8.5t-19 21.5q-3 3 -5.5 7t-5.5 7q-12 17 -29 31t-47 14q-28 0 -43.5 -18t-15.5 -50q0 -55 32 -91t81 -36h2.5h3.5q20 1 39 7.5t30 16.5q5 4 8 6.5t6 2.5q1 1 2.5 1h3.5q11 0 18.5 -9t7.5 -23
q0 -6 -1 -12t-3 -12q-6 -17 -18 -31.5t-28 -16.5q-11 -2 -22.5 -5.5t-21.5 -7.5q-2 -1 -3.5 -1.5t-3.5 -0.5q-17 -6 -35 -10.5t-37 -4.5q-84 0 -145 55t-61 130t61 132t143 57q21 0 37.5 -3.5t29.5 -8.5q12 -4 20.5 -8t14.5 -4h3.5h3.5q1 0 3 0.5t3 0.5v1z" />
    <glyph glyph-name="ordfeminine" unicode="&#xaa;" horiz-adv-x="400" 
d="M162 337h132q6 -1 12.5 -1t13.5 1h13.5h12.5q9 0 14 -3t5 -8q0 -4 -0.5 -8.5t-1.5 -8.5q-1 -3 -1.5 -5.5t-1.5 -4.5t-1.5 -3.5t-0.5 -3.5q-1 -9 -9 -14t-20 -5q-9 0 -17.5 0.5t-16.5 0.5q-3 0 -5.5 0.5t-5.5 0.5q-6 0 -11.5 0.5t-11.5 0.5l-107 1q-12 -1 -24 -1h-23
q-12 -1 -24 -1h-24q-11 0 -17.5 3t-6.5 8q0 2 0.5 5t1.5 5l4 8t4 6q2 5 3.5 9t3.5 7q4 8 9 10.5t14 2.5q11 0 22 -0.5t22 -0.5q10 -1 21 -1.5t22 -0.5v1zM315 570v-38q0 -32 3.5 -46.5t11.5 -15.5q6 -1 10.5 -3.5t4.5 -10.5q0 -22 -17.5 -38t-38.5 -23q-6 -2 -12 -3t-11 -1
q-13 0 -24 5.5t-19 15.5q-2 3 -3.5 4t-2.5 2h-1.5h-1.5h-1.5h-1.5l-4 -2t-6 -4q-13 -10 -27.5 -15.5t-31.5 -5.5q-38 0 -62.5 21t-24.5 53q0 41 33.5 65t91.5 24q14 0 17.5 3t3.5 13q0 28 -5.5 40.5t-16.5 12.5q-4 0 -7 -2t-7 -5q-4 -4 -8.5 -9.5t-9.5 -11.5
q-9 -11 -19.5 -20t-24.5 -9q-13 0 -22.5 8t-9.5 20q0 27 24 44t53 26q15 4 29.5 6t25.5 2q57 0 84.5 -25t27.5 -78v1zM164 481q0 -13 5.5 -20.5t14.5 -7.5q10 0 14.5 8.5t4.5 27.5q0 14 -2.5 18.5t-10.5 4.5q-10 0 -18 -9t-8 -23v1z" />
    <glyph glyph-name="guillemotleft" unicode="&#xab;" horiz-adv-x="534" 
d="M214 178q4 -7 9.5 -14.5t11.5 -15.5q4 -7 8.5 -13.5t8.5 -13.5q6 -10 9.5 -20t3.5 -19q0 -14 -11.5 -26t-25.5 -15h-2.5h-2.5q-15 0 -42 17t-55 43q-15 14 -30 29t-28 30q-24 28 -39.5 54t-15.5 43t15 43t38 53q12 15 25.5 29.5t27.5 27.5q29 28 55 46t40 18q20 0 34 -12
t14 -29q0 -19 -13.5 -39.5t-29.5 -42.5q-17 -21 -30.5 -44t-13.5 -47q0 -12 9.5 -32.5t29.5 -50.5v1zM469 179q4 -7 9.5 -14.5t11.5 -16.5q4 -6 8.5 -12.5t7.5 -12.5q6 -11 10 -21t4 -19q0 -14 -11.5 -26t-25.5 -15h-2.5h-2.5q-15 0 -41.5 17t-55.5 43q-15 14 -30 29.5
t-28 30.5q-24 27 -39 53t-15 43q0 18 14 42.5t35 50.5q13 16 27.5 31.5t29.5 29.5q29 27 55 44.5t40 17.5q20 0 34 -11.5t14 -28.5q0 -19 -13.5 -39t-30.5 -42q-16 -22 -30 -45t-14 -47q0 -12 10 -32.5t29 -50.5v1z" />
    <glyph glyph-name="logicalnot" unicode="&#xac;" horiz-adv-x="500" 
d="M403 0v188h-397v90h487v-278h-90v0z" />
    <glyph glyph-name="sfthyphen" unicode="&#xad;" 
 />
    <glyph glyph-name="registered" unicode="&#xae;" horiz-adv-x="778" 
d="M392 680q149 -1 256 -102.5t107 -244.5t-107 -244.5t-256 -101.5q-154 0 -261.5 101t-107.5 245t107.5 245t261.5 101v1zM391 614q-122 -1 -208.5 -83t-86.5 -198q0 -117 86.5 -199t208.5 -82q120 0 205.5 82.5t85.5 198.5t-85.5 198t-205.5 82v1zM349 289v-19
q0 -31 3.5 -42.5t13.5 -16.5q9 -4 13.5 -10.5t4.5 -14.5q0 -19 -23.5 -27t-79.5 -8q-53 0 -79 9.5t-26 29.5q0 7 3 11t7 7q2 1 4.5 2.5t5.5 4.5q7 6 13 20t6 47v28t1 28v27v28q0 38 -3.5 50t-14.5 17q-4 2 -6.5 3.5t-5.5 3.5q-6 4 -8 8t-2 10q0 17 16.5 25.5t47.5 8.5
q6 0 11.5 -0.5t11.5 -0.5q2 0 4 -0.5t4 -0.5q4 0 7.5 -0.5t7.5 -0.5q15 0 30.5 0.5t31.5 1.5t31.5 1.5t30.5 0.5q60 0 97 -26t37 -70q0 -24 -8.5 -38.5t-18.5 -22.5q-9 -8 -17 -12.5t-10 -7.5v-1.5v-0.5q0 -1 0.5 -1.5t0.5 -1.5q2 -2 4.5 -3.5t5.5 -2.5q25 -8 37 -24t17 -33
q3 -8 5 -15.5t3 -14.5q3 -13 7 -22t13 -11q1 0 1.5 -0.5t1.5 -0.5q7 -3 13.5 -7.5t6.5 -14.5q0 -19 -23.5 -31t-64.5 -12q-55 0 -76 25t-30 55q-2 6 -4 13t-4 13q-5 22 -13 37.5t-28 15.5q-8 0 -11 -3t-3 -14v1zM349 441l-3 -61v-2q0 -8 2.5 -10.5t9.5 -2.5q22 0 32 11
t10 35t-8.5 35.5t-26.5 11.5q-9 0 -12 -3.5t-4 -14.5v1z" />
    <glyph glyph-name="overstore" unicode="&#xaf;" 
 />
    <glyph glyph-name="glyph113" unicode="&#xb0;" 
 />
    <glyph glyph-name="plusminus" unicode="&#xb1;" horiz-adv-x="600" 
d="M496 0h-401q-18 0 -26.5 6.5t-8.5 19.5v59q0 16 9.5 22.5t33.5 6.5l391 1q28 -1 37.5 -8.5t9.5 -28.5v-50q0 -18 -8.5 -23t-36.5 -5v0zM103 456h105q15 -1 20 0t8 3l1.5 1.5l0.5 0.5l0.5 0.5l1.5 1.5q2 3 2.5 8t0.5 20v107q0 17 7 25.5t20 8.5l61 1q14 -1 20.5 -9.5
t6.5 -26.5v-105q0 -17 0.5 -22.5t3.5 -7.5q0 -1 0.5 -1h0.5l0.5 -0.5l1.5 -1.5q3 -2 8 -3t20 -1l104 1q25 -1 34.5 -7t9.5 -23v-55q0 -17 -9.5 -23.5t-34.5 -6.5l-104 1q-15 -1 -20 -2t-8 -3l-1.5 -1.5l-0.5 -0.5l-0.5 -0.5l-1.5 -1.5q-2 -3 -2.5 -8t-0.5 -20v-105
q0 -18 -6.5 -27t-20.5 -9l-61 1q-13 -1 -20 8t-7 26v107q0 16 -0.5 20.5t-3.5 7.5l-0.5 0.5l-0.5 0.5l-1.5 1.5l-1.5 1.5q-3 2 -8 2.5t-19 0.5l-105 1q-24 -1 -33.5 5.5t-9.5 22.5v57q0 16 9.5 22t33.5 6v1z" />
    <glyph glyph-name="twosuperior" unicode="&#xb2;" 
 />
    <glyph glyph-name="threesuperior" unicode="&#xb3;" 
 />
    <glyph glyph-name="acute" unicode="&#xb4;" horiz-adv-x="500" 
d="M147 607q4 2 7.5 4.5t7.5 5.5t7.5 5.5t7.5 5.5q4 2 7 6t4 9q1 1 1 2v2q0 3 -1 5.5t-3 5.5q-1 2 -2.5 4.5t-1.5 5.5q0 13 22 21t57 8q51 0 84 -15.5t33 -39.5q0 -8 -7.5 -19t-20.5 -22q-3 -3 -6.5 -6t-7.5 -6q-34 -27 -76.5 -42t-86.5 -15q-25 0 -37.5 8.5t-12.5 27.5
q0 14 7.5 22.5t17.5 15.5v1z" />
    <glyph glyph-name="mu" unicode="&#xb5;" horiz-adv-x="548" 
d="M462 453v-314q0 -50 6 -65t25 -15h3.5h2.5q6 1 12 3t18 7v-36l-114 -45q-1 0 -3 -0.5t-3 -0.5q-2 -1 -3.5 -1h-3.5q-19 0 -34 17.5t-20 45.5q-24 -32 -54 -48t-64 -16q-39 0 -60.5 11t-39.5 44q-3 5 -6 11t-6 13q0 -30 6.5 -55.5t15.5 -50.5q8 -24 14.5 -47t6.5 -45
q0 -24 -17 -39t-44 -15t-42.5 15.5t-15.5 42.5q0 9 3 26t7 37q13 56 20.5 113.5t10.5 116.5q0 14 0.5 28.5t0.5 29.5v232h120v-285q0 -65 12 -87.5t49 -22.5q6 0 11 0.5t10 1.5q12 3 25 10.5t32 22.5v360h119v0z" />
    <glyph glyph-name="paragraph" unicode="&#xb6;" horiz-adv-x="600" 
d="M416 665q9 -1 18.5 -1t19.5 1h19.5h18.5q33 0 50 -11t17 -31q0 -14 -10.5 -24.5t-32.5 -15.5q-2 -1 -4 -1.5t-4 -0.5q-24 -8 -30 -21t-6 -56v-667q0 -11 -0.5 -15t-2.5 -7l-0.5 -0.5l-0.5 -0.5l-0.5 -0.5l-0.5 -0.5q-3 -2 -6.5 -2.5t-14.5 -0.5h-29q-12 0 -16 0.5t-6 3.5
l-0.5 0.5l-0.5 0.5q-2 3 -3 7t-1 15v699q0 10 -0.5 14t-2.5 7l-0.5 0.5l-0.5 0.5l-0.5 0.5l-0.5 0.5q-3 2 -6.5 2.5t-14.5 0.5l-23 1q-11 -1 -15 -1.5t-7 -2.5l-0.5 -0.5l-0.5 -0.5l-0.5 -0.5l-0.5 -0.5q-2 -3 -2.5 -7t-0.5 -15v-698q0 -11 -0.5 -15t-2.5 -7l-0.5 -0.5
l-0.5 -0.5l-0.5 -0.5l-0.5 -0.5q-3 -2 -7 -2.5t-15 -0.5h-29q-11 0 -15 0.5t-7 2.5l-0.5 0.5l-0.5 0.5l-0.5 0.5l-0.5 0.5q-2 3 -2.5 7t-0.5 15v408q0 19 -4.5 23.5t-27.5 5.5q-70 4 -114 60t-44 144q0 89 49.5 143.5t130.5 54.5q8 0 18.5 -0.5t21.5 -2.5q20 -2 39 -4t39 -3
q19 -1 38.5 -1.5t38.5 -0.5v1z" />
    <glyph glyph-name="middot" unicode="&#xb7;" 
 />
    <glyph glyph-name="cedilla" unicode="&#xb8;" horiz-adv-x="500" 
d="M291 0l61 -120q8 -16 11.5 -26.5t3.5 -18.5q0 -30 -29 -47t-79 -17q-59 0 -92 15t-33 41q0 27 18 35.5t40 10.5q3 0 5.5 0.5t4.5 0.5q19 2 33.5 6t14.5 20q0 9 -4.5 22.5t-10.5 27.5q-1 4 -3 7.5t-3 6.5q-5 11 -9.5 20t-7.5 16h79v0z" />
    <glyph glyph-name="onesuperior" unicode="&#xb9;" 
 />
    <glyph glyph-name="ordmasculine" unicode="&#xba;" horiz-adv-x="400" 
d="M162 337h132q6 -1 12.5 -1t13.5 1h13.5h12.5q9 0 14 -3t5 -8q0 -4 -0.5 -8.5t-1.5 -8.5q-1 -3 -1.5 -5.5t-1.5 -4.5t-1.5 -3.5t-0.5 -3.5q-1 -9 -9 -14t-20 -5q-9 0 -17.5 0.5t-16.5 0.5q-3 0 -5.5 0.5t-5.5 0.5q-6 0 -11.5 0.5t-11.5 0.5l-107 1q-12 -1 -24 -1h-23
q-12 -1 -24 -1h-24q-11 0 -17.5 3t-6.5 8q0 2 0.5 5t1.5 5l4 8t4 6q2 5 3.5 9t3.5 7q4 8 9 10.5t14 2.5q11 0 22 -0.5t22 -0.5q10 -1 21 -1.5t22 -0.5v1zM205 673q58 -1 103 -38.5t45 -98.5t-49 -102.5t-120 -41.5q-58 0 -97 36t-39 91q0 66 43.5 108.5t113.5 44.5v1z
M188 607q-10 -2 -15.5 -9.5t-5.5 -21.5q0 -7 1.5 -22.5t5.5 -32.5q5 -23 14 -41.5t23 -18.5q11 0 16 8t5 24q0 44 -13 78.5t-29 34.5l-2 1v0z" />
    <glyph glyph-name="guillemotright" unicode="&#xbb;" horiz-adv-x="534" 
d="M278 114q7 9 16 22t19 27q5 7 9 13.5t9 13.5q11 19 19.5 37.5t8.5 32.5q0 23 -13.5 44.5t-29.5 42.5q-17 22 -30.5 42.5t-13.5 41.5l-1 2q0 16 14 28.5t33 12.5q15 0 40.5 -17t53.5 -43q14 -13 27.5 -27.5t26.5 -29.5q24 -28 39.5 -54.5t15.5 -42.5q0 -17 -15.5 -43.5
t-39.5 -54.5q-13 -16 -28 -32t-31 -30q-28 -25 -54 -42t-42 -17h-2.5h-2.5q-14 3 -25.5 15t-11.5 26q0 8 2.5 16t6.5 15v1zM22 115q6 9 16 22t20 29l8 12l8 12q12 20 20.5 38.5t8.5 32.5q0 22 -13.5 44t-29.5 44q-17 21 -30.5 42t-13.5 40v3q0 16 14 28t33 12
q15 0 40.5 -17.5t53.5 -43.5q14 -13 27 -27t26 -29q23 -28 39 -54.5t16 -42.5q0 -17 -16 -43.5t-40 -55.5q-13 -16 -28.5 -32t-31.5 -30q-27 -25 -52.5 -41t-41.5 -16h-2.5h-2.5q-14 3 -25.5 15t-11.5 26q0 8 2.5 16t6.5 15v1z" />
    <glyph glyph-name="onequarter" unicode="&#xbc;" 
 />
    <glyph glyph-name="onehalf" unicode="&#xbd;" 
 />
    <glyph glyph-name="threequarters" unicode="&#xbe;" 
 />
    <glyph glyph-name="questiondown" unicode="&#xbf;" horiz-adv-x="482" 
d="M83 102l45 22q15 7 25 16t17 18q5 8 9 15.5t7 14.5q9 16 21 27t44 11q29 0 46.5 -17.5t17.5 -46.5q0 -30 -13 -54.5t-28 -47.5q-16 -24 -29 -48t-13 -54q0 -22 9.5 -35.5t24.5 -13.5t21 13t10 31q1 7 3 14.5t4 15.5q8 27 28 50t72 23q31 0 51 -20t20 -48q0 -75 -67 -128
t-162 -53q-97 0 -166.5 54.5t-69.5 131.5q0 32 20 62t53 46v1zM260 275q-46 -1 -77 29.5t-31 74.5t31.5 75t76.5 31q41 0 72.5 -30t31.5 -71q0 -46 -30 -78t-74 -32v1z" />
    <glyph glyph-name="Agrave" unicode="&#xc0;" horiz-adv-x="827" 
d="M650 338l93 -198q5 -11 8.5 -18.5t7.5 -12.5q6 -9 13.5 -12.5t18.5 -5.5q17 -2 26.5 -11t9.5 -23q0 -37 -42.5 -52t-140.5 -15h-7.5h-7.5q-45 0 -86.5 3t-63.5 6q-23 4 -38 17t-15 30q0 15 5 22t19 13q3 2 6 3l6 2q11 4 17 10.5t6 14.5q0 20 -12.5 30t-40.5 11
q-25 2 -49.5 3.5t-49.5 1.5q-68 0 -86 -9t-18 -43q0 -9 7 -13.5t17 -7.5q1 -1 3 -1.5t4 -1.5q11 -4 20.5 -11t9.5 -23q0 -29 -35 -43t-106 -14q-82 0 -115.5 12t-33.5 42q0 15 6 23t23 15q1 0 2.5 0.5t3.5 1.5q16 5 27.5 12t21.5 21q10 12 20.5 32.5t24.5 52.5l69 152
q33 70 47 109.5t17 72.5q0 6 0.5 11t0.5 11q1 63 27.5 93.5t80.5 30.5q39 0 73 -20t61 -58q29 -40 65.5 -107t79.5 -160v1zM310 276h96q14 -1 20 1.5t6 8.5q0 9 -7 25.5t-17 35.5q-4 8 -9 16t-10 15q-11 16 -20.5 26t-15.5 10q-8 0 -14 -5t-12 -17q-1 -3 -2 -5.5t-2 -5.5
q-3 -5 -7 -13.5t-8 -18.5l-4 -8t-3 -8q-6 -13 -9.5 -25t-3.5 -20q0 -7 4.5 -10t17.5 -3v1zM466 801q2 -3 4.5 -4.5t4.5 -3.5q10 -7 18 -16t8 -22q0 -19 -12.5 -27.5t-38.5 -8.5q-43 0 -85 14.5t-78 42.5q-19 15 -30 29t-11 24q0 23 32.5 39t80.5 16q38 0 60.5 -8t22.5 -21
q0 -3 -1 -5.5t-3 -4.5q-1 -3 -2.5 -5.5t-1.5 -5.5q0 -8 6 -14.5t13 -10.5q4 -3 7 -5l6 -4v1z" />
    <glyph glyph-name="Aacute" unicode="&#xc1;" horiz-adv-x="827" 
d="M650 338l93 -198q5 -11 8.5 -18.5t7.5 -12.5q6 -9 13.5 -12.5t18.5 -5.5q17 -2 26.5 -11t9.5 -23q0 -37 -42.5 -52t-140.5 -15h-7.5h-7.5q-45 0 -86.5 3t-63.5 6q-23 4 -38 17t-15 30q0 15 5 22t19 13q3 2 6 3l6 2q11 4 17 10.5t6 14.5q0 20 -12.5 30t-40.5 11
q-25 2 -49.5 3.5t-49.5 1.5q-68 0 -86 -9t-18 -43q0 -9 7 -13.5t17 -7.5q1 -1 3 -1.5t4 -1.5q11 -4 20.5 -11t9.5 -23q0 -29 -35 -43t-106 -14q-82 0 -115.5 12t-33.5 42q0 15 6 23t23 15q1 0 2.5 0.5t3.5 1.5q16 5 27.5 12t21.5 21q10 12 20.5 32.5t24.5 52.5l69 152
q33 70 47 109.5t17 72.5q0 6 0.5 11t0.5 11q1 63 27.5 93.5t80.5 30.5q39 0 73 -20t61 -58q29 -40 65.5 -107t79.5 -160v1zM310 276h96q14 -1 20 1.5t6 8.5q0 9 -7 25.5t-17 35.5q-4 8 -9 16t-10 15q-11 16 -20.5 26t-15.5 10q-8 0 -14 -5t-12 -17q-1 -3 -2 -5.5t-2 -5.5
q-3 -5 -7 -13.5t-8 -18.5l-4 -8t-3 -8q-6 -13 -9.5 -25t-3.5 -20q0 -7 4.5 -10t17.5 -3v1zM311 794q4 2 7.5 4.5t7.5 5.5t7.5 5.5t7.5 5.5q4 2 7 6t4 9q1 1 1 2v2q0 3 -1 5.5t-3 5.5q-1 2 -2.5 4.5t-1.5 5.5q0 13 22 21t57 8q51 0 84 -15.5t33 -39.5q0 -8 -7.5 -19
t-20.5 -22q-3 -3 -6.5 -6t-7.5 -6q-34 -27 -76.5 -42t-86.5 -15q-25 0 -37.5 8.5t-12.5 27.5q0 14 7.5 22.5t17.5 15.5v1z" />
    <glyph glyph-name="Acircumflex" unicode="&#xc2;" horiz-adv-x="827" 
d="M650 338l93 -198q5 -11 8.5 -18.5t7.5 -12.5q6 -9 13.5 -12.5t18.5 -5.5q17 -2 26.5 -11t9.5 -23q0 -37 -42.5 -52t-140.5 -15h-7.5h-7.5q-45 0 -86.5 3t-63.5 6q-23 4 -38 17t-15 30q0 15 5 22t19 13q3 2 6 3l6 2q11 4 17 10.5t6 14.5q0 20 -12.5 30t-40.5 11
q-25 2 -49.5 3.5t-49.5 1.5q-68 0 -86 -9t-18 -43q0 -9 7 -13.5t17 -7.5q1 -1 3 -1.5t4 -1.5q11 -4 20.5 -11t9.5 -23q0 -29 -35 -43t-106 -14q-82 0 -115.5 12t-33.5 42q0 15 6 23t23 15q1 0 2.5 0.5t3.5 1.5q16 5 27.5 12t21.5 21q10 12 20.5 32.5t24.5 52.5l69 152
q33 70 47 109.5t17 72.5q0 6 0.5 11t0.5 11q1 63 27.5 93.5t80.5 30.5q39 0 73 -20t61 -58q29 -40 65.5 -107t79.5 -160v1zM310 276h96q14 -1 20 1.5t6 8.5q0 9 -7 25.5t-17 35.5q-4 8 -9 16t-10 15q-11 16 -20.5 26t-15.5 10q-8 0 -14 -5t-12 -17q-1 -3 -2 -5.5t-2 -5.5
q-3 -5 -7 -13.5t-8 -18.5l-4 -8t-3 -8q-6 -13 -9.5 -25t-3.5 -20q0 -7 4.5 -10t17.5 -3v1zM352 762q-7 -5 -15 -9.5t-16 -9.5q-7 -4 -15 -8t-16 -7q-10 -5 -20.5 -8t-20.5 -3q-18 0 -29 11t-11 27q0 10 5.5 20.5t14.5 20.5q13 16 32 30.5t39 27.5q30 19 56 31.5t33 12.5
q13 0 37.5 -12t51.5 -29q13 -9 26 -19t25 -19q21 -18 34.5 -35t13.5 -28q0 -16 -11 -27t-26 -11q-17 0 -34 7t-33 15q-2 1 -3.5 2t-3.5 2q-18 10 -36.5 18t-38.5 8q-10 0 -20 -2t-19 -7v1z" />
    <glyph glyph-name="Atilde" unicode="&#xc3;" horiz-adv-x="827" 
d="M650 338l93 -198q5 -11 8.5 -18.5t7.5 -12.5q6 -9 13.5 -12.5t18.5 -5.5q17 -2 26.5 -11t9.5 -23q0 -37 -42.5 -52t-140.5 -15h-7.5h-7.5q-45 0 -86.5 3t-63.5 6q-23 4 -38 17t-15 30q0 15 5 22t19 13q3 2 6 3l6 2q11 4 17 10.5t6 14.5q0 20 -12.5 30t-40.5 11
q-25 2 -49.5 3.5t-49.5 1.5q-68 0 -86 -9t-18 -43q0 -9 7 -13.5t17 -7.5q1 -1 3 -1.5t4 -1.5q11 -4 20.5 -11t9.5 -23q0 -29 -35 -43t-106 -14q-82 0 -115.5 12t-33.5 42q0 15 6 23t23 15q1 0 2.5 0.5t3.5 1.5q16 5 27.5 12t21.5 21q10 12 20.5 32.5t24.5 52.5l69 152
q33 70 47 109.5t17 72.5q0 6 0.5 11t0.5 11q1 63 27.5 93.5t80.5 30.5q39 0 73 -20t61 -58q29 -40 65.5 -107t79.5 -160v1zM310 276h96q14 -1 20 1.5t6 8.5q0 9 -7 25.5t-17 35.5q-4 8 -9 16t-10 15q-11 16 -20.5 26t-15.5 10q-8 0 -14 -5t-12 -17q-1 -3 -2 -5.5t-2 -5.5
q-3 -5 -7 -13.5t-8 -18.5l-4 -8t-3 -8q-6 -13 -9.5 -25t-3.5 -20q0 -7 4.5 -10t17.5 -3v1zM383 857q7 -3 14.5 -6.5t16.5 -6.5q4 -2 8.5 -4t9.5 -3q11 -4 22.5 -7t20.5 -3q4 0 6.5 4t4.5 9q1 3 2 7t3 8q4 10 13 18.5t29 8.5q38 0 60.5 -14.5t22.5 -38.5q0 -39 -30.5 -67.5
t-72.5 -28.5q-26 0 -49 7t-46 16q-1 0 -2 0.5t-2 0.5q-16 6 -32.5 12t-33.5 9q-4 1 -8 2.5t-9 3.5q-3 1 -7 2t-8 3q-4 1 -8 1.5t-8 0.5q-5 0 -8 -3.5t-3 -8.5v-9q0 -20 -11.5 -28.5t-34.5 -8.5q-37 0 -55 12t-18 35q0 41 30.5 70.5t72.5 29.5h2h2q21 0 45 -5.5t61 -18.5v1z
" />
    <glyph glyph-name="Adieresis" unicode="&#xc4;" horiz-adv-x="827" 
d="M650 338l93 -198q5 -11 8.5 -18.5t7.5 -12.5q6 -9 13.5 -12.5t18.5 -5.5q17 -2 26.5 -11t9.5 -23q0 -37 -42.5 -52t-140.5 -15h-7.5h-7.5q-45 0 -86.5 3t-63.5 6q-23 4 -38 17t-15 30q0 15 5 22t19 13q3 2 6 3l6 2q11 4 17 10.5t6 14.5q0 20 -12.5 30t-40.5 11
q-25 2 -49.5 3.5t-49.5 1.5q-68 0 -86 -9t-18 -43q0 -9 7 -13.5t17 -7.5q1 -1 3 -1.5t4 -1.5q11 -4 20.5 -11t9.5 -23q0 -29 -35 -43t-106 -14q-82 0 -115.5 12t-33.5 42q0 15 6 23t23 15q1 0 2.5 0.5t3.5 1.5q16 5 27.5 12t21.5 21q10 12 20.5 32.5t24.5 52.5l69 152
q33 70 47 109.5t17 72.5q0 6 0.5 11t0.5 11q1 63 27.5 93.5t80.5 30.5q39 0 73 -20t61 -58q29 -40 65.5 -107t79.5 -160v1zM310 276h96q14 -1 20 1.5t6 8.5q0 9 -7 25.5t-17 35.5q-4 8 -9 16t-10 15q-11 16 -20.5 26t-15.5 10q-8 0 -14 -5t-12 -17q-1 -3 -2 -5.5t-2 -5.5
q-3 -5 -7 -13.5t-8 -18.5l-4 -8t-3 -8q-6 -13 -9.5 -25t-3.5 -20q0 -7 4.5 -10t17.5 -3v1zM291 878q47 -1 74 -17t27 -44q0 -34 -45 -57.5t-112 -23.5q-39 0 -65 17t-26 42q0 40 38.5 61t108.5 21v1zM580 878q47 -1 74 -17t27 -44q0 -34 -45 -57.5t-112 -23.5q-39 0 -65 17
t-26 42q0 40 38.5 61t108.5 21v1z" />
    <glyph glyph-name="Aring" unicode="&#xc5;" horiz-adv-x="827" 
d="M650 338l93 -198q5 -11 8.5 -18.5t7.5 -12.5q6 -9 13.5 -12.5t18.5 -5.5q17 -2 26.5 -11t9.5 -23q0 -37 -42.5 -52t-140.5 -15h-7.5h-7.5q-45 0 -86.5 3t-63.5 6q-23 4 -38 17t-15 30q0 15 5 22t19 13q3 2 6 3l6 2q11 4 17 10.5t6 14.5q0 20 -12.5 30t-40.5 11
q-25 2 -49.5 3.5t-49.5 1.5q-68 0 -86 -9t-18 -43q0 -9 7 -13.5t17 -7.5q1 -1 3 -1.5t4 -1.5q11 -4 20.5 -11t9.5 -23q0 -29 -35 -43t-106 -14q-82 0 -115.5 12t-33.5 42q0 15 6 23t23 15q1 0 2.5 0.5t3.5 1.5q16 5 27.5 12t21.5 21q10 12 20.5 32.5t24.5 52.5l69 152
q33 70 47 109.5t17 72.5q0 6 0.5 11t0.5 11q1 63 27.5 93.5t80.5 30.5q39 0 73 -20t61 -58q29 -40 65.5 -107t79.5 -160v1zM310 276h96q14 -1 20 1.5t6 8.5q0 9 -7 25.5t-17 35.5q-4 8 -9 16t-10 15q-11 16 -20.5 26t-15.5 10q-8 0 -14 -5t-12 -17q-1 -3 -2 -5.5t-2 -5.5
q-3 -5 -7 -13.5t-8 -18.5l-4 -8t-3 -8q-6 -13 -9.5 -25t-3.5 -20q0 -7 4.5 -10t17.5 -3v1zM389 918q71 -1 110.5 -26t39.5 -70q0 -49 -37 -76t-104 -27q-76 0 -113.5 24t-37.5 73q0 47 37.5 74t104.5 27v1zM394 873q-23 -1 -36 -16t-13 -41q0 -24 12.5 -38.5t33.5 -14.5
q23 0 36.5 15.5t13.5 40.5t-12.5 39t-34.5 14v1z" />
    <glyph glyph-name="AE" unicode="&#xc6;" horiz-adv-x="1035" 
d="M468 668h325q27 -1 44.5 1t33.5 6q2 1 4.5 1.5t5.5 1.5q12 5 17 6t9 1q33 0 56.5 -40t23.5 -96q0 -30 -14 -49.5t-37 -19.5q-14 0 -21.5 6t-14.5 15q-5 6 -9.5 12.5t-10.5 13.5q-15 17 -46.5 31.5t-99.5 14.5q-55 0 -70 -11.5t-15 -55.5v-76q0 -26 6.5 -32.5t28.5 -8.5
h29q25 -1 31.5 15t9.5 36q3 19 9.5 35.5t32.5 16.5q29 0 43.5 -38t14.5 -115q0 -66 -17.5 -106t-46.5 -40q-14 0 -21.5 9.5t-10.5 31.5q-4 34 -17.5 47t-43.5 13q-22 0 -31.5 -11.5t-9.5 -41.5q0 -96 12 -119.5t59 -25.5h47q59 -1 96 19.5t62 73.5q2 4 4 7.5t4 7.5
q8 14 17 20t22 6q23 0 36 -18t13 -47q0 -16 -4 -36t-12 -40q-7 -22 -17.5 -42.5t-22.5 -36.5q-2 -3 -4 -5.5t-4 -4.5q-7 -6 -14 -8t-18 -2q-7 0 -13.5 0.5t-13.5 1.5q-3 1 -6.5 1.5t-6.5 0.5q-10 2 -20 3.5t-21 1.5l-436 -2q-28 0 -42 10t-14 30q0 16 8.5 26.5t27.5 18.5
q4 2 7.5 3.5t5.5 3.5q8 4 11.5 9.5t3.5 12.5q0 17 -12.5 23t-44.5 7h-16.5t-16.5 1h-17.5h-16.5q-37 0 -51 -6t-14 -23q0 -10 7 -16.5t17 -11.5q1 -1 2.5 -2t2.5 -2q12 -6 21 -15t9 -24q0 -26 -36 -39t-109 -13t-110.5 13.5t-37.5 41.5q0 20 8 28t20 13q8 4 18 8.5t20 12.5
q5 4 9.5 9t9.5 12q17 26 32.5 50t30.5 47q9 14 17 28.5t17 28.5q9 15 17.5 31t17.5 32l104 190q10 17 14 29t4 21l-1 25q0 34 25.5 45.5t104.5 11.5v1zM438 335v69q0 26 -4.5 35.5t-15.5 9.5q-4 0 -7 -1t-6 -3q-5 -3 -10 -11t-13 -22q-5 -8 -12.5 -20.5t-15.5 -27.5
q-2 -3 -4.5 -7t-4.5 -7q-9 -18 -16.5 -35t-7.5 -27q0 -17 14.5 -23.5t54.5 -6.5q29 0 38.5 15t9.5 61v1z" />
    <glyph glyph-name="Ccedilla" unicode="&#xc7;" horiz-adv-x="720" 
d="M352 -75q-1 2 -2 4.5t-2 5.5t-1.5 5.5t-1.5 5.5q-6 18 -14 32.5t-25 19.5q-118 28 -200.5 117.5t-82.5 216.5q0 139 107 243t250 104q39 0 69.5 -7t54.5 -16q23 -9 40 -16t29 -7q5 0 10.5 1t10.5 3q5 1 10.5 2t10.5 1q36 0 64 -50t28 -115q0 -45 -25 -73t-66 -28
q-27 0 -44 16.5t-31 40.5q-5 6 -9 13t-9 14q-20 32 -50.5 58.5t-89.5 26.5q-53 0 -82.5 -36t-29.5 -102v-1.5v-1.5q1 -90 55 -165t152 -75q40 0 68.5 10t48.5 22q19 12 31.5 22t20.5 10q17 0 29 -15.5t12 -38.5q0 -50 -27.5 -87t-71.5 -45q-17 -4 -34 -10t-34 -13h-0.5h-1.5
q-23 -9 -46 -16.5t-48 -10.5h-3h-4q-3 -1 -6 -2.5t-3 -4.5v-0.5v-0.5q0 -1 1 -2.5t2 -4.5l48 -95q8 -15 11.5 -24.5t3.5 -17.5v-1.5v-1.5q0 -30 -29 -47t-79 -17q-59 0 -92 15t-33 41q0 27 18 35.5t40 10.5q3 0 5.5 0.5t4.5 0.5q19 2 33.5 6t14.5 20q0 5 -1.5 11.5
t-4.5 13.5v0z" />
    <glyph glyph-name="Egrave" unicode="&#xc8;" horiz-adv-x="691" 
d="M120 667h252q65 -1 97.5 0.5t58.5 8.5q6 1 11.5 2.5t11.5 3.5q4 1 7 2t5 1h2h2q30 0 53.5 -41t23.5 -94q0 -32 -13.5 -50t-38.5 -18q-17 0 -25 6.5t-14 16.5q-3 5 -6.5 11t-8.5 12q-13 17 -45.5 31t-107.5 14q-48 0 -64 -12t-16 -47l-1 -81q0 -31 10 -38t51 -7
q27 0 34.5 16.5t10.5 36.5v0.5t1 0.5q3 20 9.5 35.5t30.5 15.5q29 0 44 -38t15 -107q0 -70 -17.5 -111.5t-46.5 -41.5q-18 0 -23.5 11.5t-8.5 27.5q-1 3 -1.5 5.5t-1.5 5.5q-4 19 -15.5 34.5t-46.5 15.5q-22 0 -30 -14t-8 -52q0 -93 14 -113t81 -20q78 0 115.5 18.5
t62.5 68.5q5 10 9 17.5t8 12.5q8 10 16 14t20 4q21 0 34 -18t13 -47q0 -12 -5 -35t-15 -49q-12 -35 -30.5 -63.5t-39.5 -28.5q-13 0 -26.5 1.5t-26.5 3.5q-14 2 -28.5 3.5t-28.5 1.5h-414q-25 0 -38.5 10.5t-13.5 30.5q0 15 7 21.5t16 11.5q3 1 6 2.5t6 2.5q9 6 18 15t13 27
q8 38 12 86.5t4 111.5q0 93 -6 153.5t-18 85.5q-4 8 -11 12t-15 7q-2 1 -4.5 2t-4.5 2q-14 4 -21 13.5t-7 22.5q0 30 21 39.5t86 9.5v1zM398 801q2 -3 4.5 -4.5t4.5 -3.5q10 -7 18 -16t8 -22q0 -19 -12.5 -27.5t-38.5 -8.5q-43 0 -85 14.5t-78 42.5q-19 15 -30 29t-11 24
q0 23 32.5 39t80.5 16q38 0 60.5 -8t22.5 -21q0 -3 -1 -5.5t-3 -4.5q-1 -3 -2.5 -5.5t-1.5 -5.5q0 -8 6 -14.5t13 -10.5q4 -3 7 -5l6 -4v1z" />
    <glyph glyph-name="Eacute" unicode="&#xc9;" horiz-adv-x="691" 
d="M120 667h252q65 -1 97.5 0.5t58.5 8.5q6 1 11.5 2.5t11.5 3.5q4 1 7 2t5 1h2h2q30 0 53.5 -41t23.5 -94q0 -32 -13.5 -50t-38.5 -18q-17 0 -25 6.5t-14 16.5q-3 5 -6.5 11t-8.5 12q-13 17 -45.5 31t-107.5 14q-48 0 -64 -12t-16 -47l-1 -81q0 -31 10 -38t51 -7
q27 0 34.5 16.5t10.5 36.5v0.5t1 0.5q3 20 9.5 35.5t30.5 15.5q29 0 44 -38t15 -107q0 -70 -17.5 -111.5t-46.5 -41.5q-18 0 -23.5 11.5t-8.5 27.5q-1 3 -1.5 5.5t-1.5 5.5q-4 19 -15.5 34.5t-46.5 15.5q-22 0 -30 -14t-8 -52q0 -93 14 -113t81 -20q78 0 115.5 18.5
t62.5 68.5q5 10 9 17.5t8 12.5q8 10 16 14t20 4q21 0 34 -18t13 -47q0 -12 -5 -35t-15 -49q-12 -35 -30.5 -63.5t-39.5 -28.5q-13 0 -26.5 1.5t-26.5 3.5q-14 2 -28.5 3.5t-28.5 1.5h-414q-25 0 -38.5 10.5t-13.5 30.5q0 15 7 21.5t16 11.5q3 1 6 2.5t6 2.5q9 6 18 15t13 27
q8 38 12 86.5t4 111.5q0 93 -6 153.5t-18 85.5q-4 8 -11 12t-15 7q-2 1 -4.5 2t-4.5 2q-14 4 -21 13.5t-7 22.5q0 30 21 39.5t86 9.5v1zM243 794q4 2 7.5 4.5t7.5 5.5t7.5 5.5t7.5 5.5q4 2 7 6t4 9q1 1 1 2v2q0 3 -1 5.5t-3 5.5q-1 2 -2.5 4.5t-1.5 5.5q0 13 22 21t57 8
q51 0 84 -15.5t33 -39.5q0 -8 -7.5 -19t-20.5 -22q-3 -3 -6.5 -6t-7.5 -6q-34 -27 -76.5 -42t-86.5 -15q-25 0 -37.5 8.5t-12.5 27.5q0 14 7.5 22.5t17.5 15.5v1z" />
    <glyph glyph-name="Ecircumflex" unicode="&#xca;" horiz-adv-x="691" 
d="M120 667h252q65 -1 97.5 0.5t58.5 8.5q6 1 11.5 2.5t11.5 3.5q4 1 7 2t5 1h2h2q30 0 53.5 -41t23.5 -94q0 -32 -13.5 -50t-38.5 -18q-17 0 -25 6.5t-14 16.5q-3 5 -6.5 11t-8.5 12q-13 17 -45.5 31t-107.5 14q-48 0 -64 -12t-16 -47l-1 -81q0 -31 10 -38t51 -7
q27 0 34.5 16.5t10.5 36.5v0.5t1 0.5q3 20 9.5 35.5t30.5 15.5q29 0 44 -38t15 -107q0 -70 -17.5 -111.5t-46.5 -41.5q-18 0 -23.5 11.5t-8.5 27.5q-1 3 -1.5 5.5t-1.5 5.5q-4 19 -15.5 34.5t-46.5 15.5q-22 0 -30 -14t-8 -52q0 -93 14 -113t81 -20q78 0 115.5 18.5
t62.5 68.5q5 10 9 17.5t8 12.5q8 10 16 14t20 4q21 0 34 -18t13 -47q0 -12 -5 -35t-15 -49q-12 -35 -30.5 -63.5t-39.5 -28.5q-13 0 -26.5 1.5t-26.5 3.5q-14 2 -28.5 3.5t-28.5 1.5h-414q-25 0 -38.5 10.5t-13.5 30.5q0 15 7 21.5t16 11.5q3 1 6 2.5t6 2.5q9 6 18 15t13 27
q8 38 12 86.5t4 111.5q0 93 -6 153.5t-18 85.5q-4 8 -11 12t-15 7q-2 1 -4.5 2t-4.5 2q-14 4 -21 13.5t-7 22.5q0 30 21 39.5t86 9.5v1zM304 762q-7 -5 -15 -9.5t-16 -9.5q-7 -4 -15 -8t-16 -7q-10 -5 -20.5 -8t-20.5 -3q-18 0 -29 11t-11 27q0 10 5.5 20.5t14.5 20.5
q13 16 32 30.5t39 27.5q30 19 56 31.5t33 12.5q13 0 37.5 -12t51.5 -29q13 -9 26 -19t25 -19q21 -18 34.5 -35t13.5 -28q0 -16 -11 -27t-26 -11q-17 0 -34 7t-33 15q-2 1 -3.5 2t-3.5 2q-18 10 -36.5 18t-38.5 8q-10 0 -20 -2t-19 -7v1z" />
    <glyph glyph-name="Edieresis" unicode="&#xcb;" horiz-adv-x="691" 
d="M120 667h252q65 -1 97.5 0.5t58.5 8.5q6 1 11.5 2.5t11.5 3.5q4 1 7 2t5 1h2h2q30 0 53.5 -41t23.5 -94q0 -32 -13.5 -50t-38.5 -18q-17 0 -25 6.5t-14 16.5q-3 5 -6.5 11t-8.5 12q-13 17 -45.5 31t-107.5 14q-48 0 -64 -12t-16 -47l-1 -81q0 -31 10 -38t51 -7
q27 0 34.5 16.5t10.5 36.5v0.5t1 0.5q3 20 9.5 35.5t30.5 15.5q29 0 44 -38t15 -107q0 -70 -17.5 -111.5t-46.5 -41.5q-18 0 -23.5 11.5t-8.5 27.5q-1 3 -1.5 5.5t-1.5 5.5q-4 19 -15.5 34.5t-46.5 15.5q-22 0 -30 -14t-8 -52q0 -93 14 -113t81 -20q78 0 115.5 18.5
t62.5 68.5q5 10 9 17.5t8 12.5q8 10 16 14t20 4q21 0 34 -18t13 -47q0 -12 -5 -35t-15 -49q-12 -35 -30.5 -63.5t-39.5 -28.5q-13 0 -26.5 1.5t-26.5 3.5q-14 2 -28.5 3.5t-28.5 1.5h-414q-25 0 -38.5 10.5t-13.5 30.5q0 15 7 21.5t16 11.5q3 1 6 2.5t6 2.5q9 6 18 15t13 27
q8 38 12 86.5t4 111.5q0 93 -6 153.5t-18 85.5q-4 8 -11 12t-15 7q-2 1 -4.5 2t-4.5 2q-14 4 -21 13.5t-7 22.5q0 30 21 39.5t86 9.5v1zM223 878q47 -1 74 -17t27 -44q0 -34 -45 -57.5t-112 -23.5q-39 0 -65 17t-26 42q0 40 38.5 61t108.5 21v1zM512 878q47 -1 74 -17
t27 -44q0 -34 -45 -57.5t-112 -23.5q-39 0 -65 17t-26 42q0 40 38.5 61t108.5 21v1z" />
    <glyph glyph-name="Igrave" unicode="&#xcc;" horiz-adv-x="413" 
d="M378 579l-18 -10q-22 -12 -29.5 -50t-7.5 -149v-19.5t1 -18.5l2 -124q1 -55 7.5 -74t29.5 -31q1 0 2.5 -0.5t2.5 -1.5q17 -8 24.5 -17.5t7.5 -23.5q0 -32 -35.5 -46t-78.5 -19q-28 -4 -54 -4.5t-42 -0.5q-85 0 -125.5 14t-40.5 44q0 10 2.5 16.5t9.5 12.5q3 3 7.5 6.5
t10.5 6.5q22 14 28.5 37t7.5 94l2 121v27q0 106 -8 141t-37 54q-10 6 -16 11t-10 9q-5 6 -6.5 11.5t-1.5 12.5q0 27 35.5 41t77.5 20q32 4 60.5 5.5t42.5 1.5q83 0 127 -16.5t44 -47.5q0 -12 -5.5 -20.5t-16.5 -13.5v1zM299 801q2 -3 4.5 -4.5t4.5 -3.5q10 -7 18 -16t8 -22
q0 -19 -12.5 -27.5t-38.5 -8.5q-43 0 -85 14.5t-78 42.5q-19 15 -30 29t-11 24q0 23 32.5 39t80.5 16q38 0 60.5 -8t22.5 -21q0 -3 -1 -5.5t-3 -4.5q-1 -3 -2.5 -5.5t-1.5 -5.5q0 -8 6 -14.5t13 -10.5q4 -3 7 -5l6 -4v1z" />
    <glyph glyph-name="Iacute" unicode="&#xcd;" horiz-adv-x="413" 
d="M378 579l-18 -10q-22 -12 -29.5 -50t-7.5 -149v-19.5t1 -18.5l2 -124q1 -55 7.5 -74t29.5 -31q1 0 2.5 -0.5t2.5 -1.5q17 -8 24.5 -17.5t7.5 -23.5q0 -32 -35.5 -46t-78.5 -19q-28 -4 -54 -4.5t-42 -0.5q-85 0 -125.5 14t-40.5 44q0 10 2.5 16.5t9.5 12.5q3 3 7.5 6.5
t10.5 6.5q22 14 28.5 37t7.5 94l2 121v27q0 106 -8 141t-37 54q-10 6 -16 11t-10 9q-5 6 -6.5 11.5t-1.5 12.5q0 27 35.5 41t77.5 20q32 4 60.5 5.5t42.5 1.5q83 0 127 -16.5t44 -47.5q0 -12 -5.5 -20.5t-16.5 -13.5v1zM104 794q4 2 7.5 4.5t7.5 5.5t7.5 5.5t7.5 5.5
q4 2 7 6t4 9q1 1 1 2v2q0 3 -1 5.5t-3 5.5q-1 2 -2.5 4.5t-1.5 5.5q0 13 22 21t57 8q51 0 84 -15.5t33 -39.5q0 -8 -7.5 -19t-20.5 -22q-3 -3 -6.5 -6t-7.5 -6q-34 -27 -76.5 -42t-86.5 -15q-25 0 -37.5 8.5t-12.5 27.5q0 14 7.5 22.5t17.5 15.5v1z" />
    <glyph glyph-name="Icircumflex" unicode="&#xce;" horiz-adv-x="413" 
d="M378 579l-18 -10q-22 -12 -29.5 -50t-7.5 -149v-19.5t1 -18.5l2 -124q1 -55 7.5 -74t29.5 -31q1 0 2.5 -0.5t2.5 -1.5q17 -8 24.5 -17.5t7.5 -23.5q0 -32 -35.5 -46t-78.5 -19q-28 -4 -54 -4.5t-42 -0.5q-85 0 -125.5 14t-40.5 44q0 10 2.5 16.5t9.5 12.5q3 3 7.5 6.5
t10.5 6.5q22 14 28.5 37t7.5 94l2 121v27q0 106 -8 141t-37 54q-10 6 -16 11t-10 9q-5 6 -6.5 11.5t-1.5 12.5q0 27 35.5 41t77.5 20q32 4 60.5 5.5t42.5 1.5q83 0 127 -16.5t44 -47.5q0 -12 -5.5 -20.5t-16.5 -13.5v1zM165 762q-7 -5 -15 -9.5t-16 -9.5q-7 -4 -15 -8
t-16 -7q-10 -5 -20.5 -8t-20.5 -3q-18 0 -29 11t-11 27q0 10 5.5 20.5t14.5 20.5q13 16 32 30.5t39 27.5q30 19 56 31.5t33 12.5q13 0 37.5 -12t51.5 -29q13 -9 26 -19t25 -19q21 -18 34.5 -35t13.5 -28q0 -16 -11 -27t-26 -11q-17 0 -34 7t-33 15q-2 1 -3.5 2t-3.5 2
q-18 10 -36.5 18t-38.5 8q-10 0 -20 -2t-19 -7v1z" />
    <glyph glyph-name="Idieresis" unicode="&#xcf;" horiz-adv-x="413" 
d="M378 579l-18 -10q-22 -12 -29.5 -50t-7.5 -149v-19.5t1 -18.5l2 -124q1 -55 7.5 -74t29.5 -31q1 0 2.5 -0.5t2.5 -1.5q17 -8 24.5 -17.5t7.5 -23.5q0 -32 -35.5 -46t-78.5 -19q-28 -4 -54 -4.5t-42 -0.5q-85 0 -125.5 14t-40.5 44q0 10 2.5 16.5t9.5 12.5q3 3 7.5 6.5
t10.5 6.5q22 14 28.5 37t7.5 94l2 121v27q0 106 -8 141t-37 54q-10 6 -16 11t-10 9q-5 6 -6.5 11.5t-1.5 12.5q0 27 35.5 41t77.5 20q32 4 60.5 5.5t42.5 1.5q83 0 127 -16.5t44 -47.5q0 -12 -5.5 -20.5t-16.5 -13.5v1zM84 886q47 -1 74 -17t27 -44q0 -34 -45 -57.5
t-112 -23.5q-38 0 -64 17t-26 42q0 40 38 61t108 21v1zM373 886q47 -1 74 -17t27 -44q0 -34 -45 -57.5t-112 -23.5q-39 0 -65 17t-26 42q0 40 38.5 61t108.5 21v1z" />
    <glyph glyph-name="Eth" unicode="&#xd0;" 
 />
    <glyph glyph-name="Ntilde" unicode="&#xd1;" horiz-adv-x="830" 
d="M617 25l-290 260q-14 12 -27 19t-23 7q-15 0 -22.5 -20.5t-7.5 -61.5q0 -68 7.5 -93t31.5 -37q2 -1 3.5 -2t3.5 -2q14 -8 19.5 -16.5t5.5 -22.5q0 -33 -37.5 -49.5t-111.5 -16.5q-63 0 -99 17t-36 48q0 20 11.5 30t25.5 18q22 13 29 59.5t7 170.5q0 69 -5.5 124t-15.5 78
q-4 12 -14 19t-21 13q-1 0 -1.5 0.5l-0.5 0.5q-14 8 -25 16.5t-11 25.5q0 37 38 51.5t133 14.5q30 0 46.5 -2.5t30.5 -10.5q7 -3 13 -8t14 -12l243 -212q17 -16 29 -24t19 -8q14 0 20.5 13.5t6.5 41.5q0 62 -7.5 84t-30.5 33q-19 9 -27 19.5t-8 24.5q0 35 29.5 48t105.5 13
q85 0 117 -13t32 -47q0 -17 -9 -28.5t-28 -19.5q-26 -11 -34.5 -40.5t-8.5 -107.5v-159v-94q0 -101 -13 -139t-45 -38q-17 0 -30 8.5t-25 18.5q-1 2 -3 3.5t-4 3.5v1zM405 857q7 -3 14.5 -6.5t16.5 -6.5q4 -2 8.5 -4t9.5 -3q11 -4 22.5 -7t20.5 -3q4 0 6.5 4t4.5 9q1 3 2 7
t3 8q4 10 13 18.5t29 8.5q38 0 60.5 -14.5t22.5 -38.5q0 -39 -30.5 -67.5t-72.5 -28.5q-26 0 -49 7t-46 16q-1 0 -2 0.5t-2 0.5q-16 6 -32.5 12t-33.5 9q-4 1 -8 2.5t-9 3.5q-3 1 -7 2t-8 3q-4 1 -8 1.5t-8 0.5q-5 0 -8 -3.5t-3 -8.5v-9q0 -20 -11.5 -28.5t-34.5 -8.5
q-37 0 -55 12t-18 35q0 41 30.5 70.5t72.5 29.5h2h2q21 0 45 -5.5t61 -18.5v1z" />
    <glyph glyph-name="Ograve" unicode="&#xd2;" horiz-adv-x="778" 
d="M380 680q74 -1 130 -18t103 -54q61 -48 98.5 -119.5t42.5 -148.5q1 -5 1 -10.5v-10.5q0 -140 -110 -236t-270 -96q-148 0 -250 100.5t-102 248.5q0 143 104 243t253 100v1zM345 541q-34 -1 -57.5 -31t-23.5 -76q0 -23 7 -61t20 -78q20 -62 54 -114t80 -52q38 0 60.5 28
t22.5 74q0 25 -5.5 61.5t-16.5 75.5q-18 64 -53 118t-88 54v1zM441 801q2 -3 4.5 -4.5t4.5 -3.5q10 -7 18 -16t8 -22q0 -19 -12.5 -27.5t-38.5 -8.5q-43 0 -85 14.5t-78 42.5q-19 15 -30 29t-11 24q0 23 32.5 39t80.5 16q38 0 60.5 -8t22.5 -21q0 -3 -1 -5.5t-3 -4.5
q-1 -3 -2.5 -5.5t-1.5 -5.5q0 -8 6 -14.5t13 -10.5q4 -3 7 -5l6 -4v1z" />
    <glyph glyph-name="Oacute" unicode="&#xd3;" horiz-adv-x="778" 
d="M380 680q74 -1 130 -18t103 -54q61 -48 98.5 -119.5t42.5 -148.5q1 -5 1 -10.5v-10.5q0 -140 -110 -236t-270 -96q-148 0 -250 100.5t-102 248.5q0 143 104 243t253 100v1zM345 541q-34 -1 -57.5 -31t-23.5 -76q0 -23 7 -61t20 -78q20 -62 54 -114t80 -52q38 0 60.5 28
t22.5 74q0 25 -5.5 61.5t-16.5 75.5q-18 64 -53 118t-88 54v1zM286 794q4 2 7.5 4.5t7.5 5.5t7.5 5.5t7.5 5.5q4 2 7 6t4 9q1 1 1 2v2q0 3 -1 5.5t-3 5.5q-1 2 -2.5 4.5t-1.5 5.5q0 13 22 21t57 8q51 0 84 -15.5t33 -39.5q0 -8 -7.5 -19t-20.5 -22q-3 -3 -6.5 -6t-7.5 -6
q-34 -27 -76.5 -42t-86.5 -15q-25 0 -37.5 8.5t-12.5 27.5q0 14 7.5 22.5t17.5 15.5v1z" />
    <glyph glyph-name="Ocircumflex" unicode="&#xd4;" horiz-adv-x="778" 
d="M380 680q74 -1 130 -18t103 -54q61 -48 98.5 -119.5t42.5 -148.5q1 -5 1 -10.5v-10.5q0 -140 -110 -236t-270 -96q-148 0 -250 100.5t-102 248.5q0 143 104 243t253 100v1zM345 541q-34 -1 -57.5 -31t-23.5 -76q0 -23 7 -61t20 -78q20 -62 54 -114t80 -52q38 0 60.5 28
t22.5 74q0 25 -5.5 61.5t-16.5 75.5q-18 64 -53 118t-88 54v1zM348 762q-7 -5 -15 -9.5t-16 -9.5q-7 -4 -15 -8t-16 -7q-10 -5 -20.5 -8t-20.5 -3q-18 0 -29 11t-11 27q0 10 5.5 20.5t14.5 20.5q13 16 32 30.5t39 27.5q30 19 56 31.5t33 12.5q13 0 37.5 -12t51.5 -29
q13 -9 26 -19t25 -19q21 -18 34.5 -35t13.5 -28q0 -16 -11 -27t-26 -11q-17 0 -34 7t-33 15q-2 1 -3.5 2t-3.5 2q-18 10 -36.5 18t-38.5 8q-10 0 -20 -2t-19 -7v1z" />
    <glyph glyph-name="Otilde" unicode="&#xd5;" horiz-adv-x="778" 
d="M380 680q74 -1 130 -18t103 -54q61 -48 98.5 -119.5t42.5 -148.5q1 -5 1 -10.5v-10.5q0 -140 -110 -236t-270 -96q-148 0 -250 100.5t-102 248.5q0 143 104 243t253 100v1zM345 541q-34 -1 -57.5 -31t-23.5 -76q0 -23 7 -61t20 -78q20 -62 54 -114t80 -52q38 0 60.5 28
t22.5 74q0 25 -5.5 61.5t-16.5 75.5q-18 64 -53 118t-88 54v1zM379 857q7 -3 14.5 -6.5t16.5 -6.5q4 -2 8.5 -4t9.5 -3q11 -4 22.5 -7t20.5 -3q4 0 6.5 4t4.5 9q1 3 2 7t3 8q4 10 13 18.5t29 8.5q38 0 60.5 -14.5t22.5 -38.5q0 -39 -30.5 -67.5t-72.5 -28.5q-26 0 -49 7
t-46 16q-1 0 -2 0.5t-2 0.5q-16 6 -32.5 12t-33.5 9q-4 1 -8 2.5t-9 3.5q-3 1 -7 2t-8 3q-4 1 -8 1.5t-8 0.5q-5 0 -8 -3.5t-3 -8.5v-9q0 -20 -11.5 -28.5t-34.5 -8.5q-37 0 -55 12t-18 35q0 41 30.5 70.5t72.5 29.5h2h2q21 0 45 -5.5t61 -18.5v1z" />
    <glyph glyph-name="Odieresis" unicode="&#xd6;" horiz-adv-x="778" 
d="M380 680q74 -1 130 -18t103 -54q61 -48 98.5 -119.5t42.5 -148.5q1 -5 1 -10.5v-10.5q0 -140 -110 -236t-270 -96q-148 0 -250 100.5t-102 248.5q0 143 104 243t253 100v1zM345 541q-34 -1 -57.5 -31t-23.5 -76q0 -23 7 -61t20 -78q20 -62 54 -114t80 -52q38 0 60.5 28
t22.5 74q0 25 -5.5 61.5t-16.5 75.5q-18 64 -53 118t-88 54v1zM267 878q47 -1 74 -17t27 -44q0 -34 -45 -57.5t-112 -23.5q-39 0 -65 17t-26 42q0 40 38.5 61t108.5 21v1zM556 878q47 -1 74 -17t27 -44q0 -34 -45 -57.5t-112 -23.5q-39 0 -65 17t-26 42q0 40 38.5 61
t108.5 21v1z" />
    <glyph glyph-name="multiply" unicode="&#xd7;" 
 />
    <glyph glyph-name="Oslash" unicode="&#xd8;" horiz-adv-x="778" 
d="M741 625l1.5 -3t0.5 -2q2 -3 3 -5t1 -5v-2t-1 -2q0 -2 -2.5 -5t-6.5 -7l-53 -44q-3 -3 -4 -4.5t-1 -3.5q0 -1 0.5 -2.5t1.5 -2.5t1 -1.5t1 -0.5q0 -1 1 -2t1 -2q25 -32 42 -71.5t24 -81.5q2 -13 3 -26t1 -26q0 -147 -108.5 -243t-272.5 -96q-19 0 -39.5 3t-40.5 8
q-43 10 -82.5 29t-64.5 43q-3 2 -4.5 3.5t-2.5 1.5h-0.5h-0.5h-2t-2 -1l-1 -0.5t-3 -2.5q-4 -3 -11 -10t-15 -14q-2 -2 -4.5 -4t-4.5 -4q-9 -8 -17.5 -13.5t-14.5 -5.5q-2 0 -4 0.5t-4 1.5q-7 3 -13 9t-10 13q-1 3 -2 5.5t-1 5.5q0 5 5 11.5t12 13.5q3 4 6.5 7t7.5 6
q9 7 16.5 13t11.5 9l1.5 1.5l0.5 0.5q2 1 3 2.5t1 2.5t-0.5 2t-1.5 2l-0.5 1l-0.5 1q-22 28 -37.5 63.5t-23.5 73.5q-3 17 -5 34.5t-2 33.5q0 149 102 247.5t256 98.5h13.5t12.5 -1q64 -4 123.5 -26.5t93.5 -55.5q2 -2 3.5 -3t2.5 -2h1.5h1.5q2 0 3.5 1t3.5 3l57 49
q2 1 4.5 2t5.5 2h2h2q6 0 11.5 -4.5t9.5 -9.5q2 -3 4 -5.5t4 -4.5v1zM498 324l-4 20q-2 6 -3 11t-2 7q-2 4 -3.5 5.5t-4.5 1.5q-4 0 -7 -2t-5 -5q-2 -1 -3 -2l-2 -2l-125 -107q-9 -9 -12.5 -13t-4.5 -7v-0.5v-1.5q0 -8 3.5 -17.5t9.5 -18.5q11 -18 29 -34t38 -24
q6 -2 12 -3.5t12 -1.5q38 0 60.5 27t22.5 74q0 9 -1 21.5t-3 26.5q-1 12 -3 23.5t-4 20.5v1zM277 354q1 -4 2 -11.5t4 -15.5q2 -10 5.5 -18.5t8.5 -8.5q2 0 6 2t11 8l125 111q8 5 11.5 8.5t4.5 6.5q1 2 1 3v3q0 8 -4 18t-12 20q-11 15 -27.5 29.5t-34.5 22.5q-8 4 -16 6
t-16 2q-34 0 -57 -30t-23 -74q0 -8 1.5 -20.5t3.5 -25.5q1 -7 2 -13.5t2 -12.5q0 -3 0.5 -5.5t1.5 -5.5v1z" />
    <glyph glyph-name="Ugrave" unicode="&#xd9;" horiz-adv-x="820" 
d="M737 423v-119q0 -76 -7 -115.5t-24 -68.5q-35 -61 -98 -90.5t-131 -37.5q-19 -3 -38 -4t-37 -1q-73 0 -137 19t-109 55q-47 38 -64 86t-17 145q0 23 0.5 46t1.5 46t1.5 46t0.5 46q0 38 -4 54t-20 28q-2 1 -4 2.5t-5 3.5q-12 8 -19.5 17t-10.5 18q-1 3 -1.5 6t-0.5 6
q0 34 45 49.5t140 15.5q99 0 143.5 -15t44.5 -50q0 -21 -13 -30.5t-29 -16.5q-1 0 -1.5 -0.5t-1.5 -0.5q-16 -7 -21.5 -25t-5.5 -59v-38t-1 -31l-3 -106q0 -76 34 -125t116 -49q80 0 109 45t29 115v109l-1 85q-1 49 -7.5 65.5t-29.5 26.5q-10 5 -17.5 9t-12.5 8q-8 6 -11 12
t-3 14q0 30 34.5 43.5t109.5 13.5q78 0 112 -13t34 -42q0 -7 -1 -12t-5 -9q-3 -4 -10.5 -9t-19.5 -12l-4 -2t-4 -3q-16 -10 -20.5 -24.5t-5.5 -47.5v-79v0zM503 801q2 -3 4.5 -4.5t4.5 -3.5q10 -7 18 -16t8 -22q0 -19 -12.5 -27.5t-38.5 -8.5q-43 0 -85 14.5t-78 42.5
q-19 15 -30 29t-11 24q0 23 32.5 39t80.5 16q38 0 60.5 -8t22.5 -21q0 -3 -1 -5.5t-3 -4.5q-1 -3 -2.5 -5.5t-1.5 -5.5q0 -8 6 -14.5t13 -10.5q4 -3 7 -5l6 -4v1z" />
    <glyph glyph-name="Uacute" unicode="&#xda;" horiz-adv-x="820" 
d="M737 423v-119q0 -76 -7 -115.5t-24 -68.5q-35 -61 -98 -90.5t-131 -37.5q-19 -3 -38 -4t-37 -1q-73 0 -137 19t-109 55q-47 38 -64 86t-17 145q0 23 0.5 46t1.5 46t1.5 46t0.5 46q0 38 -4 54t-20 28q-2 1 -4 2.5t-5 3.5q-12 8 -19.5 17t-10.5 18q-1 3 -1.5 6t-0.5 6
q0 34 45 49.5t140 15.5q99 0 143.5 -15t44.5 -50q0 -21 -13 -30.5t-29 -16.5q-1 0 -1.5 -0.5t-1.5 -0.5q-16 -7 -21.5 -25t-5.5 -59v-38t-1 -31l-3 -106q0 -76 34 -125t116 -49q80 0 109 45t29 115v109l-1 85q-1 49 -7.5 65.5t-29.5 26.5q-10 5 -17.5 9t-12.5 8q-8 6 -11 12
t-3 14q0 30 34.5 43.5t109.5 13.5q78 0 112 -13t34 -42q0 -7 -1 -12t-5 -9q-3 -4 -10.5 -9t-19.5 -12l-4 -2t-4 -3q-16 -10 -20.5 -24.5t-5.5 -47.5v-79v0zM308 794q4 2 7.5 4.5t7.5 5.5t7.5 5.5t7.5 5.5q4 2 7 6t4 9q1 1 1 2v2q0 3 -1 5.5t-3 5.5q-1 2 -2.5 4.5t-1.5 5.5
q0 13 22 21t57 8q51 0 84 -15.5t33 -39.5q0 -8 -7.5 -19t-20.5 -22q-3 -3 -6.5 -6t-7.5 -6q-34 -27 -76.5 -42t-86.5 -15q-25 0 -37.5 8.5t-12.5 27.5q0 14 7.5 22.5t17.5 15.5v1z" />
    <glyph glyph-name="Ucircumflex" unicode="&#xdb;" horiz-adv-x="820" 
d="M737 423v-119q0 -76 -7 -115.5t-24 -68.5q-35 -61 -98 -90.5t-131 -37.5q-19 -3 -38 -4t-37 -1q-73 0 -137 19t-109 55q-47 38 -64 86t-17 145q0 23 0.5 46t1.5 46t1.5 46t0.5 46q0 38 -4 54t-20 28q-2 1 -4 2.5t-5 3.5q-12 8 -19.5 17t-10.5 18q-1 3 -1.5 6t-0.5 6
q0 34 45 49.5t140 15.5q99 0 143.5 -15t44.5 -50q0 -21 -13 -30.5t-29 -16.5q-1 0 -1.5 -0.5t-1.5 -0.5q-16 -7 -21.5 -25t-5.5 -59v-38t-1 -31l-3 -106q0 -76 34 -125t116 -49q80 0 109 45t29 115v109l-1 85q-1 49 -7.5 65.5t-29.5 26.5q-10 5 -17.5 9t-12.5 8q-8 6 -11 12
t-3 14q0 30 34.5 43.5t109.5 13.5q78 0 112 -13t34 -42q0 -7 -1 -12t-5 -9q-3 -4 -10.5 -9t-19.5 -12l-4 -2t-4 -3q-16 -10 -20.5 -24.5t-5.5 -47.5v-79v0zM370 762q-7 -5 -15 -9.5t-16 -9.5q-7 -4 -15 -8t-16 -7q-10 -5 -20.5 -8t-20.5 -3q-18 0 -29 11t-11 27
q0 10 5.5 20.5t14.5 20.5q13 16 32 30.5t39 27.5q30 19 56 31.5t33 12.5q13 0 37.5 -12t51.5 -29q13 -9 26 -19t25 -19q21 -18 34.5 -35t13.5 -28q0 -16 -11 -27t-26 -11q-17 0 -34 7t-33 15q-2 1 -3.5 2t-3.5 2q-18 10 -36.5 18t-38.5 8q-10 0 -20 -2t-19 -7v1z" />
    <glyph glyph-name="Udieresis" unicode="&#xdc;" horiz-adv-x="820" 
d="M737 423v-119q0 -76 -7 -115.5t-24 -68.5q-35 -61 -98 -90.5t-131 -37.5q-19 -3 -38 -4t-37 -1q-73 0 -137 19t-109 55q-47 38 -64 86t-17 145q0 23 0.5 46t1.5 46t1.5 46t0.5 46q0 38 -4 54t-20 28q-2 1 -4 2.5t-5 3.5q-12 8 -19.5 17t-10.5 18q-1 3 -1.5 6t-0.5 6
q0 34 45 49.5t140 15.5q99 0 143.5 -15t44.5 -50q0 -21 -13 -30.5t-29 -16.5q-1 0 -1.5 -0.5t-1.5 -0.5q-16 -7 -21.5 -25t-5.5 -59v-38t-1 -31l-3 -106q0 -76 34 -125t116 -49q80 0 109 45t29 115v109l-1 85q-1 49 -7.5 65.5t-29.5 26.5q-10 5 -17.5 9t-12.5 8q-8 6 -11 12
t-3 14q0 30 34.5 43.5t109.5 13.5q78 0 112 -13t34 -42q0 -7 -1 -12t-5 -9q-3 -4 -10.5 -9t-19.5 -12l-4 -2t-4 -3q-16 -10 -20.5 -24.5t-5.5 -47.5v-79v0zM288 878q47 -1 74 -17t27 -44q0 -34 -45 -57.5t-112 -23.5q-39 0 -65 17t-26 42q0 40 38.5 61t108.5 21v1zM577 878
q47 -1 74 -17t27 -44q0 -34 -45 -57.5t-112 -23.5q-39 0 -65 17t-26 42q0 40 38.5 61t108.5 21v1z" />
    <glyph glyph-name="Yacute" unicode="&#xdd;" horiz-adv-x="780" 
d="M505 577q-8 8 -15 18t-7 23q0 31 35.5 44.5t117.5 13.5q88 0 116 -11.5t28 -46.5q0 -19 -12.5 -29t-42.5 -15q-8 -1 -14.5 -3t-13.5 -6q-17 -8 -37.5 -27t-57.5 -60q-36 -40 -56.5 -65t-30.5 -47q-8 -20 -10.5 -41.5t-2.5 -54.5q0 -10 0.5 -19.5t0.5 -18.5q0 -4 0.5 -7
t0.5 -6q0 -7 0.5 -13t0.5 -13q1 -44 7 -60.5t26 -27.5q2 0 3.5 -1t3.5 -2q18 -10 26.5 -20.5t8.5 -24.5q0 -35 -49 -51t-154 -16q-13 0 -40.5 0.5t-58.5 4.5q-40 5 -73.5 19t-33.5 42q0 17 9 27.5t28 16.5q32 12 41 43.5t9 136.5q0 25 -2 41t-8 30q-4 11 -12 23t-20 28
q-11 14 -25.5 32.5t-31.5 38.5q-11 13 -22 25t-22 23q-16 15 -32 27t-30 17q-13 5 -22 9t-15 7q-10 6 -13 13t-3 18q0 28 26.5 41.5t89.5 18.5q13 1 25 2t25 1q12 1 24 1h25q107 0 151.5 -12.5t44.5 -42.5q0 -9 -4 -15.5t-9 -13.5l-0.5 -0.5l-0.5 -0.5q-5 -6 -8.5 -12.5
t-3.5 -14.5q0 -6 3.5 -16t9.5 -20q6 -12 14.5 -22t16.5 -16q5 -4 9 -5.5t8 -1.5t12.5 5t18.5 12q10 9 19.5 20.5t12.5 23.5q1 3 1.5 6t0.5 6q0 6 -1.5 11t-4.5 9v1zM314 794q4 2 7.5 4.5t7.5 5.5t7.5 5.5t7.5 5.5q4 2 7 6t4 9q1 1 1 2v2q0 3 -1 5.5t-3 5.5q-1 2 -2.5 4.5
t-1.5 5.5q0 13 22 21t57 8q51 0 84 -15.5t33 -39.5q0 -8 -7.5 -19t-20.5 -22q-3 -3 -6.5 -6t-7.5 -6q-34 -27 -76.5 -42t-86.5 -15q-25 0 -37.5 8.5t-12.5 27.5q0 14 7.5 22.5t17.5 15.5v1z" />
    <glyph glyph-name="Thorn" unicode="&#xde;" 
 />
    <glyph glyph-name="germandbls" unicode="&#xdf;" horiz-adv-x="645" 
d="M70 178v185q0 65 14 113.5t45 83.5q40 45 101 69.5t134 24.5q71 0 114.5 -34t43.5 -88q0 -16 -4.5 -27.5t-9.5 -20.5q-4 -5 -7 -9.5t-5 -9.5q-1 -3 -2 -6.5t-1 -6.5q0 -19 21.5 -51t48.5 -73q26 -41 47.5 -89t21.5 -98q0 -68 -44.5 -109.5t-116.5 -41.5q-10 0 -21 2
t-23 6q-28 8 -51.5 27.5t-23.5 48.5q0 4 2.5 7t6.5 5q4 3 9 6t11 6q10 7 19 18t9 30q0 30 -15.5 58.5t-34.5 56.5q-2 2 -3.5 4.5t-2.5 4.5q-17 25 -30.5 51t-13.5 53q0 16 2 28t9 24q7 13 22.5 28t41.5 37q6 5 10 9.5t6 8.5q2 3 2.5 6t0.5 7q0 16 -11 25t-31 9t-38 -12
t-29 -33q-1 -2 -1.5 -3.5t-1.5 -3.5q-13 -28 -18 -62t-5 -97q0 -23 1 -45.5t2 -42.5q0 -7 0.5 -14.5t0.5 -15.5q0 -10 0.5 -20.5t0.5 -20.5q2 -27 8 -51.5t21 -38.5l1.5 -1.5l1.5 -1.5l2.5 -2.5l3.5 -3.5q7 -6 11.5 -13t4.5 -17q0 -32 -46 -49.5t-132 -17.5
q-68 0 -103.5 14.5t-35.5 42.5q0 14 5.5 21.5t12.5 13.5l6 4t6 5q11 9 20.5 27.5t9.5 58.5v1z" />
    <glyph glyph-name="agrave" unicode="&#xe0;" horiz-adv-x="567" 
d="M498 304v-17.5v-16.5q-1 -8 -1 -16.5v-16.5q0 -61 7.5 -87t23.5 -29q11 -1 18.5 -5t7.5 -17q0 -38 -30.5 -66t-67.5 -38q-12 -4 -23.5 -6t-21.5 -2q-25 0 -41 7t-26 16q-9 7 -15 13t-12 9q-2 1 -3.5 1.5t-3.5 0.5q-6 0 -18 -7.5t-30 -16.5q-17 -9 -39 -16t-49 -7
q-70 0 -115 36t-45 93q0 72 52 106.5t115 45.5q16 2 32.5 3.5t32.5 1.5q29 1 36 6t7 27q0 50 -11 73.5t-34 23.5q-17 0 -29.5 -11t-24.5 -26q-2 -3 -5 -7t-6 -7q-15 -20 -33 -36t-46 -16q-24 0 -40 14t-16 34q0 45 43.5 74.5t95.5 45.5q29 9 57.5 13.5t48.5 4.5
q49 0 86.5 -10.5t66.5 -32.5l1.5 -1.5t1.5 -0.5q31 -24 42 -52.5t11 -85.5v1zM212 144q0 -23 11.5 -38t29.5 -15q20 0 29.5 16.5t9.5 50.5q0 26 -5.5 36t-21.5 10q-22 0 -37.5 -18t-15.5 -43v1zM377 615q2 -3 4.5 -4.5t4.5 -3.5q10 -7 18 -16t8 -22q0 -19 -12.5 -27.5
t-38.5 -8.5q-43 0 -85 14.5t-78 42.5q-19 15 -30 29t-11 24q0 23 32.5 39t80.5 16q38 0 60.5 -8t22.5 -21q0 -3 -1 -5.5t-3 -4.5q-1 -3 -2.5 -5.5t-1.5 -5.5q0 -8 6 -14.5t13 -10.5q4 -3 7 -5l6 -4v1z" />
    <glyph glyph-name="aacute" unicode="&#xe1;" horiz-adv-x="567" 
d="M498 304v-17.5v-16.5q-1 -8 -1 -16.5v-16.5q0 -61 7.5 -87t23.5 -29q11 -1 18.5 -5t7.5 -17q0 -38 -30.5 -66t-67.5 -38q-12 -4 -23.5 -6t-21.5 -2q-25 0 -41 7t-26 16q-9 7 -15 13t-12 9q-2 1 -3.5 1.5t-3.5 0.5q-6 0 -18 -7.5t-30 -16.5q-17 -9 -39 -16t-49 -7
q-70 0 -115 36t-45 93q0 72 52 106.5t115 45.5q16 2 32.5 3.5t32.5 1.5q29 1 36 6t7 27q0 50 -11 73.5t-34 23.5q-17 0 -29.5 -11t-24.5 -26q-2 -3 -5 -7t-6 -7q-15 -20 -33 -36t-46 -16q-24 0 -40 14t-16 34q0 45 43.5 74.5t95.5 45.5q29 9 57.5 13.5t48.5 4.5
q49 0 86.5 -10.5t66.5 -32.5l1.5 -1.5t1.5 -0.5q31 -24 42 -52.5t11 -85.5v1zM212 144q0 -23 11.5 -38t29.5 -15q20 0 29.5 16.5t9.5 50.5q0 26 -5.5 36t-21.5 10q-22 0 -37.5 -18t-15.5 -43v1zM182 608q4 2 7.5 4.5t7.5 5.5t7.5 5.5t7.5 5.5q4 2 7 6t4 9q1 1 1 2v2
q0 3 -1 5.5t-3 5.5q-1 2 -2.5 4.5t-1.5 5.5q0 13 22 21t57 8q51 0 84 -15.5t33 -39.5q0 -8 -7.5 -19t-20.5 -22q-3 -3 -6.5 -6t-7.5 -6q-34 -27 -76.5 -42t-86.5 -15q-25 0 -37.5 8.5t-12.5 27.5q0 14 7.5 22.5t17.5 15.5v1z" />
    <glyph glyph-name="acircumflex" unicode="&#xe2;" horiz-adv-x="567" 
d="M498 304v-17.5v-16.5q-1 -8 -1 -16.5v-16.5q0 -61 7.5 -87t23.5 -29q11 -1 18.5 -5t7.5 -17q0 -38 -30.5 -66t-67.5 -38q-12 -4 -23.5 -6t-21.5 -2q-25 0 -41 7t-26 16q-9 7 -15 13t-12 9q-2 1 -3.5 1.5t-3.5 0.5q-6 0 -18 -7.5t-30 -16.5q-17 -9 -39 -16t-49 -7
q-70 0 -115 36t-45 93q0 72 52 106.5t115 45.5q16 2 32.5 3.5t32.5 1.5q29 1 36 6t7 27q0 50 -11 73.5t-34 23.5q-17 0 -29.5 -11t-24.5 -26q-2 -3 -5 -7t-6 -7q-15 -20 -33 -36t-46 -16q-24 0 -40 14t-16 34q0 45 43.5 74.5t95.5 45.5q29 9 57.5 13.5t48.5 4.5
q49 0 86.5 -10.5t66.5 -32.5l1.5 -1.5t1.5 -0.5q31 -24 42 -52.5t11 -85.5v1zM212 144q0 -23 11.5 -38t29.5 -15q20 0 29.5 16.5t9.5 50.5q0 26 -5.5 36t-21.5 10q-22 0 -37.5 -18t-15.5 -43v1zM243 578q-7 -5 -15 -9.5t-16 -9.5q-7 -4 -15 -8t-16 -7q-10 -5 -20.5 -8
t-20.5 -3q-18 0 -29 11t-11 27q0 10 5.5 20.5t14.5 20.5q13 16 32 30.5t39 27.5q30 19 56 31.5t33 12.5q13 0 37.5 -12t51.5 -29q13 -9 26 -19t25 -19q21 -18 34.5 -35t13.5 -28q0 -16 -11 -27t-26 -11q-17 0 -34 7t-33 15q-2 1 -3.5 2t-3.5 2q-18 10 -36.5 18t-38.5 8
q-10 0 -20 -2t-19 -7v1z" />
    <glyph glyph-name="atilde" unicode="&#xe3;" horiz-adv-x="567" 
d="M498 304v-17.5v-16.5q-1 -8 -1 -16.5v-16.5q0 -61 7.5 -87t23.5 -29q11 -1 18.5 -5t7.5 -17q0 -38 -30.5 -66t-67.5 -38q-12 -4 -23.5 -6t-21.5 -2q-25 0 -41 7t-26 16q-9 7 -15 13t-12 9q-2 1 -3.5 1.5t-3.5 0.5q-6 0 -18 -7.5t-30 -16.5q-17 -9 -39 -16t-49 -7
q-70 0 -115 36t-45 93q0 72 52 106.5t115 45.5q16 2 32.5 3.5t32.5 1.5q29 1 36 6t7 27q0 50 -11 73.5t-34 23.5q-17 0 -29.5 -11t-24.5 -26q-2 -3 -5 -7t-6 -7q-15 -20 -33 -36t-46 -16q-24 0 -40 14t-16 34q0 45 43.5 74.5t95.5 45.5q29 9 57.5 13.5t48.5 4.5
q49 0 86.5 -10.5t66.5 -32.5l1.5 -1.5t1.5 -0.5q31 -24 42 -52.5t11 -85.5v1zM212 144q0 -23 11.5 -38t29.5 -15q20 0 29.5 16.5t9.5 50.5q0 26 -5.5 36t-21.5 10q-22 0 -37.5 -18t-15.5 -43v1zM274 667q7 -3 14.5 -6.5t16.5 -6.5q4 -2 8.5 -4t9.5 -3q11 -4 22.5 -7t20.5 -3
q4 0 6.5 4t4.5 9q1 3 2 7t3 8q4 10 13 18.5t29 8.5q38 0 60.5 -14.5t22.5 -38.5q0 -39 -30.5 -67.5t-72.5 -28.5q-26 0 -49 7t-46 16q-1 0 -2 0.5t-2 0.5q-16 6 -32.5 12t-33.5 9q-4 1 -8 2.5t-9 3.5q-3 1 -7 2t-8 3q-4 1 -8 1.5t-8 0.5q-5 0 -8 -3.5t-3 -8.5v-9
q0 -20 -11.5 -28.5t-34.5 -8.5q-37 0 -55 12t-18 35q0 41 30.5 70.5t72.5 29.5h2h2q21 0 45 -5.5t61 -18.5v1z" />
    <glyph glyph-name="adieresis" unicode="&#xe4;" horiz-adv-x="567" 
d="M498 304v-17.5v-16.5q-1 -8 -1 -16.5v-16.5q0 -61 7.5 -87t23.5 -29q11 -1 18.5 -5t7.5 -17q0 -38 -30.5 -66t-67.5 -38q-12 -4 -23.5 -6t-21.5 -2q-25 0 -41 7t-26 16q-9 7 -15 13t-12 9q-2 1 -3.5 1.5t-3.5 0.5q-6 0 -18 -7.5t-30 -16.5q-17 -9 -39 -16t-49 -7
q-70 0 -115 36t-45 93q0 72 52 106.5t115 45.5q16 2 32.5 3.5t32.5 1.5q29 1 36 6t7 27q0 50 -11 73.5t-34 23.5q-17 0 -29.5 -11t-24.5 -26q-2 -3 -5 -7t-6 -7q-15 -20 -33 -36t-46 -16q-24 0 -40 14t-16 34q0 45 43.5 74.5t95.5 45.5q29 9 57.5 13.5t48.5 4.5
q49 0 86.5 -10.5t66.5 -32.5l1.5 -1.5t1.5 -0.5q31 -24 42 -52.5t11 -85.5v1zM212 144q0 -23 11.5 -38t29.5 -15q20 0 29.5 16.5t9.5 50.5q0 26 -5.5 36t-21.5 10q-22 0 -37.5 -18t-15.5 -43v1zM162 687q47 -1 74 -17t27 -44q0 -34 -45 -57.5t-112 -23.5q-39 0 -65 17
t-26 42q0 40 38.5 61t108.5 21v1zM451 687q47 -1 74 -17t27 -44q0 -34 -45 -57.5t-112 -23.5q-39 0 -65 17t-26 42q0 40 38.5 61t108.5 21v1z" />
    <glyph glyph-name="aring" unicode="&#xe5;" horiz-adv-x="567" 
d="M498 304v-17.5v-16.5q-1 -8 -1 -16.5v-16.5q0 -61 7.5 -87t23.5 -29q11 -1 18.5 -5t7.5 -17q0 -38 -30.5 -66t-67.5 -38q-12 -4 -23.5 -6t-21.5 -2q-25 0 -41 7t-26 16q-9 7 -15 13t-12 9q-2 1 -3.5 1.5t-3.5 0.5q-6 0 -18 -7.5t-30 -16.5q-17 -9 -39 -16t-49 -7
q-70 0 -115 36t-45 93q0 72 52 106.5t115 45.5q16 2 32.5 3.5t32.5 1.5q29 1 36 6t7 27q0 50 -11 73.5t-34 23.5q-17 0 -29.5 -11t-24.5 -26q-2 -3 -5 -7t-6 -7q-15 -20 -33 -36t-46 -16q-24 0 -40 14t-16 34q0 45 43.5 74.5t95.5 45.5q29 9 57.5 13.5t48.5 4.5
q49 0 86.5 -10.5t66.5 -32.5l1.5 -1.5t1.5 -0.5q31 -24 42 -52.5t11 -85.5v1zM212 144q0 -23 11.5 -38t29.5 -15q20 0 29.5 16.5t9.5 50.5q0 26 -5.5 36t-21.5 10q-22 0 -37.5 -18t-15.5 -43v1zM280 732q71 -1 110.5 -26t39.5 -70q0 -49 -37 -76t-104 -27q-76 0 -113.5 24
t-37.5 73q0 47 37.5 74t104.5 27v1zM285 687q-23 -1 -36 -16t-13 -41q0 -24 12.5 -38.5t33.5 -14.5q23 0 36.5 15.5t13.5 40.5t-12.5 39t-34.5 14v1z" />
    <glyph glyph-name="ae" unicode="&#xe6;" horiz-adv-x="799" 
d="M730 229h-218q-10 -1 -13.5 -3.5t-3.5 -10.5q0 -35 34.5 -63.5t77.5 -28.5q10 0 21.5 2t24.5 6q16 5 30.5 11.5t24.5 14.5q9 6 13 8.5t7 3.5h2.5h2.5q3 0 5.5 -1t5.5 -3t5.5 -4.5t5.5 -6.5q8 -12 12 -20.5t4 -16.5q0 -38 -40.5 -67t-88.5 -45q-27 -8 -52.5 -13t-44.5 -5
q-34 0 -65 8.5t-55 19.5q-23 11 -37 20t-15 9q-2 0 -5.5 -1.5t-10.5 -5.5q-19 -10 -41.5 -18.5t-45.5 -15.5q-28 -7 -55 -11.5t-48 -4.5q-70 0 -112 35.5t-42 94.5q0 42 23.5 76.5t66.5 53.5q9 4 17.5 7.5t15.5 6.5q23 8 49 11t73 5q15 1 20 7.5t5 27.5q0 47 -12.5 71
t-35.5 24q-16 0 -28 -11t-23 -26l-6 -8t-6 -9q-15 -20 -33 -36.5t-46 -16.5q-23 0 -39.5 14.5t-16.5 33.5q0 53 77.5 95.5t174.5 42.5q10 0 20.5 -1t20.5 -2q22 -3 42 -7.5t31 -10.5q5 -3 8.5 -4t5.5 -1l13.5 4t33.5 9q9 2 19.5 4.5t21.5 4.5t22.5 3t21.5 1q101 0 169 -55.5
t68 -136.5q0 -35 -13 -50.5t-43 -15.5v1zM289 164v1.5v3.5v1v2q-1 13 -5 24t-21 11q-22 0 -37.5 -17.5t-15.5 -44.5q0 -20 12 -35.5t28 -15.5q21 0 29 15t9 32q1 6 1 11.5v10.5v1zM518 319h61q14 -1 19 4.5t5 20.5q0 26 -15.5 43t-38.5 17q-25 0 -42 -19t-17 -45
q0 -13 6 -17.5t22 -4.5v1z" />
    <glyph glyph-name="ccedilla" unicode="&#xe7;" horiz-adv-x="526" 
d="M256 -56q-1 2 -2.5 4t-3.5 4q-1 1 -2 3t-2 3q-8 12 -17.5 22.5t-23.5 13.5q-80 19 -134 86t-54 150q0 107 80.5 181.5t197.5 74.5q92 0 155 -42.5t63 -104.5q0 -40 -26.5 -67t-67.5 -27q-35 0 -49.5 18.5t-23.5 40.5l-2 4t-1 5q-8 19 -18.5 34.5t-34.5 15.5
q-28 0 -46.5 -24t-18.5 -62q0 -56 38.5 -96t92.5 -40q21 0 34.5 4t23.5 9q4 2 8 3.5t8 3.5q5 2 10.5 3.5t11.5 1.5q17 0 30 -15.5t13 -36.5q0 -37 -34 -66.5t-75 -45.5q-19 -6 -36.5 -10t-32.5 -4q-3 -1 -5 -2.5t-2 -3.5q0 -6 12.5 -16.5t27.5 -22.5q12 -10 22.5 -21
t14.5 -23q2 -3 2.5 -6t0.5 -6q0 -26 -29 -43t-74 -17q-36 0 -61 14t-25 34q0 14 13.5 24t37.5 14q8 1 10.5 3.5t2.5 7.5q0 4 -2 9t-7 11v0z" />
    <glyph glyph-name="egrave" unicode="&#xe8;" horiz-adv-x="530" 
d="M470 219h-229q-8 -1 -11.5 -4t-3.5 -10q0 -30 24 -52t52 -31q8 -2 16.5 -3.5t15.5 -1.5q9 0 19.5 1.5t21.5 4.5q16 4 31.5 10.5t26.5 14.5l12 7.5t8 3.5q1 1 2.5 1h3.5q12 0 21 -10t14 -22q1 -5 2 -9t1 -8q0 -17 -11 -33.5t-33 -33.5q-39 -29 -84.5 -43t-98.5 -14
q-106 0 -179.5 69.5t-73.5 169.5q0 109 76 184.5t185 75.5q50 0 90.5 -13t73.5 -40q23 -18 40 -42.5t26 -49.5q4 -13 6.5 -25t2.5 -23q0 -34 -12.5 -54.5t-34.5 -20.5v1zM253 310h50q16 -1 23.5 6t7.5 22q0 26 -15 43t-39 17q-23 0 -40.5 -18.5t-17.5 -43.5q0 -15 7 -21
t24 -6v1zM358 615q2 -3 4.5 -4.5t4.5 -3.5q10 -7 18 -16t8 -22q0 -19 -12.5 -27.5t-38.5 -8.5q-43 0 -85 14.5t-78 42.5q-19 15 -30 29t-11 24q0 23 32.5 39t80.5 16q38 0 60.5 -8t22.5 -21q0 -3 -1 -5.5t-3 -4.5q-1 -3 -2.5 -5.5t-1.5 -5.5q0 -8 6 -14.5t13 -10.5
q4 -3 7 -5l6 -4v1z" />
    <glyph glyph-name="eacute" unicode="&#xe9;" horiz-adv-x="530" 
d="M470 219h-229q-8 -1 -11.5 -4t-3.5 -10q0 -30 24 -52t52 -31q8 -2 16.5 -3.5t15.5 -1.5q9 0 19.5 1.5t21.5 4.5q16 4 31.5 10.5t26.5 14.5l12 7.5t8 3.5q1 1 2.5 1h3.5q12 0 21 -10t14 -22q1 -5 2 -9t1 -8q0 -17 -11 -33.5t-33 -33.5q-39 -29 -84.5 -43t-98.5 -14
q-106 0 -179.5 69.5t-73.5 169.5q0 109 76 184.5t185 75.5q50 0 90.5 -13t73.5 -40q23 -18 40 -42.5t26 -49.5q4 -13 6.5 -25t2.5 -23q0 -34 -12.5 -54.5t-34.5 -20.5v1zM253 310h50q16 -1 23.5 6t7.5 22q0 26 -15 43t-39 17q-23 0 -40.5 -18.5t-17.5 -43.5q0 -15 7 -21
t24 -6v1zM190 608q4 2 7.5 4.5t7.5 5.5t7.5 5.5t7.5 5.5q4 2 7 6t4 9q1 1 1 2v2q0 3 -1 5.5t-3 5.5q-1 2 -2.5 4.5t-1.5 5.5q0 13 22 21t57 8q51 0 84 -15.5t33 -39.5q0 -8 -7.5 -19t-20.5 -22q-3 -3 -6.5 -6t-7.5 -6q-34 -27 -76.5 -42t-86.5 -15q-25 0 -37.5 8.5
t-12.5 27.5q0 14 7.5 22.5t17.5 15.5v1z" />
    <glyph glyph-name="ecircumflex" unicode="&#xea;" horiz-adv-x="530" 
d="M470 219h-229q-8 -1 -11.5 -4t-3.5 -10q0 -30 24 -52t52 -31q8 -2 16.5 -3.5t15.5 -1.5q9 0 19.5 1.5t21.5 4.5q16 4 31.5 10.5t26.5 14.5l12 7.5t8 3.5q1 1 2.5 1h3.5q12 0 21 -10t14 -22q1 -5 2 -9t1 -8q0 -17 -11 -33.5t-33 -33.5q-39 -29 -84.5 -43t-98.5 -14
q-106 0 -179.5 69.5t-73.5 169.5q0 109 76 184.5t185 75.5q50 0 90.5 -13t73.5 -40q23 -18 40 -42.5t26 -49.5q4 -13 6.5 -25t2.5 -23q0 -34 -12.5 -54.5t-34.5 -20.5v1zM253 310h50q16 -1 23.5 6t7.5 22q0 26 -15 43t-39 17q-23 0 -40.5 -18.5t-17.5 -43.5q0 -15 7 -21
t24 -6v1zM224 578q-7 -5 -15 -9.5t-16 -9.5q-7 -4 -15 -8t-16 -7q-10 -5 -20.5 -8t-20.5 -3q-18 0 -29 11t-11 27q0 10 5.5 20.5t14.5 20.5q13 16 32 30.5t39 27.5q30 19 56 31.5t33 12.5q13 0 37.5 -12t51.5 -29q13 -9 26 -19t25 -19q21 -18 34.5 -35t13.5 -28
q0 -16 -11 -27t-26 -11q-17 0 -34 7t-33 15q-2 1 -3.5 2t-3.5 2q-18 10 -36.5 18t-38.5 8q-10 0 -20 -2t-19 -7v1z" />
    <glyph glyph-name="edieresis" unicode="&#xeb;" horiz-adv-x="530" 
d="M470 219h-229q-8 -1 -11.5 -4t-3.5 -10q0 -30 24 -52t52 -31q8 -2 16.5 -3.5t15.5 -1.5q9 0 19.5 1.5t21.5 4.5q16 4 31.5 10.5t26.5 14.5l12 7.5t8 3.5q1 1 2.5 1h3.5q12 0 21 -10t14 -22q1 -5 2 -9t1 -8q0 -17 -11 -33.5t-33 -33.5q-39 -29 -84.5 -43t-98.5 -14
q-106 0 -179.5 69.5t-73.5 169.5q0 109 76 184.5t185 75.5q50 0 90.5 -13t73.5 -40q23 -18 40 -42.5t26 -49.5q4 -13 6.5 -25t2.5 -23q0 -34 -12.5 -54.5t-34.5 -20.5v1zM253 310h50q16 -1 23.5 6t7.5 22q0 26 -15 43t-39 17q-23 0 -40.5 -18.5t-17.5 -43.5q0 -15 7 -21
t24 -6v1zM143 687q47 -1 74 -17t27 -44q0 -34 -45 -57.5t-112 -23.5q-39 0 -64.5 17t-25.5 42q0 40 38 61t108 21v1zM432 687q47 -1 74 -17t27 -44q0 -34 -45 -57.5t-112 -23.5q-39 0 -65 17t-26 42q0 40 38.5 61t108.5 21v1z" />
    <glyph glyph-name="igrave" unicode="&#xec;" horiz-adv-x="356" 
d="M290 453v-284q0 -32 5.5 -47t19.5 -27l2.5 -2.5t3.5 -2.5q8 -6 13 -10.5t8 -8.5t4 -8.5t1 -10.5q0 -31 -40 -46.5t-118 -15.5q-92 0 -134.5 13t-42.5 43q0 16 9 25.5t20 17.5q1 0 1 0.5v0.5l1.5 1.5t1.5 0.5q16 11 22 36.5t6 74.5v16t-1 17q0 8 -0.5 16t-0.5 16v7v6
q-2 29 -3.5 38.5t-7.5 15.5q-1 1 -2 1.5t-2 1.5q-3 2 -6.5 4.5t-7.5 3.5q-1 1 -2 1.5l-1 0.5q-12 6 -20.5 13.5t-8.5 23.5t11 28.5t40 23.5q16 7 38.5 13.5t52.5 13.5q33 8 60.5 12.5t49.5 5.5q14 0 21 -8t7 -22v1zM244 614q2 -3 4.5 -4.5t4.5 -3.5q10 -7 18 -16t8 -22
q0 -19 -12.5 -27.5t-38.5 -8.5q-43 0 -85 14.5t-78 42.5q-19 15 -30 29t-11 24q0 23 32.5 39t80.5 16q38 0 60.5 -8t22.5 -21q0 -3 -1 -5.5t-3 -4.5q-1 -3 -2.5 -5.5t-1.5 -5.5q0 -8 6 -14.5t13 -10.5q4 -3 7 -5l6 -4v1z" />
    <glyph glyph-name="iacute" unicode="&#xed;" horiz-adv-x="356" 
d="M290 453v-284q0 -32 5.5 -47t19.5 -27l2.5 -2.5t3.5 -2.5q8 -6 13 -10.5t8 -8.5t4 -8.5t1 -10.5q0 -31 -40 -46.5t-118 -15.5q-92 0 -134.5 13t-42.5 43q0 16 9 25.5t20 17.5q1 0 1 0.5v0.5l1.5 1.5t1.5 0.5q16 11 22 36.5t6 74.5v16t-1 17q0 8 -0.5 16t-0.5 16v7v6
q-2 29 -3.5 38.5t-7.5 15.5q-1 1 -2 1.5t-2 1.5q-3 2 -6.5 4.5t-7.5 3.5q-1 1 -2 1.5l-1 0.5q-12 6 -20.5 13.5t-8.5 23.5t11 28.5t40 23.5q16 7 38.5 13.5t52.5 13.5q33 8 60.5 12.5t49.5 5.5q14 0 21 -8t7 -22v1zM76 607q4 2 7.5 4.5t7.5 5.5t7.5 5.5t7.5 5.5q4 2 7 6t4 9
q1 1 1 2v2q0 3 -1 5.5t-3 5.5q-1 2 -2.5 4.5t-1.5 5.5q0 13 22 21t57 8q51 0 84 -15.5t33 -39.5q0 -8 -7.5 -19t-20.5 -22q-3 -3 -6.5 -6t-7.5 -6q-34 -27 -76.5 -42t-86.5 -15q-25 0 -37.5 8.5t-12.5 27.5q0 14 7.5 22.5t17.5 15.5v1z" />
    <glyph glyph-name="icircumflex" unicode="&#xee;" horiz-adv-x="356" 
d="M290 453v-284q0 -32 5.5 -47t19.5 -27l2.5 -2.5t3.5 -2.5q8 -6 13 -10.5t8 -8.5t4 -8.5t1 -10.5q0 -31 -40 -46.5t-118 -15.5q-92 0 -134.5 13t-42.5 43q0 16 9 25.5t20 17.5q1 0 1 0.5v0.5l1.5 1.5t1.5 0.5q16 11 22 36.5t6 74.5v16t-1 17q0 8 -0.5 16t-0.5 16v7v6
q-2 29 -3.5 38.5t-7.5 15.5q-1 1 -2 1.5t-2 1.5q-3 2 -6.5 4.5t-7.5 3.5q-1 1 -2 1.5l-1 0.5q-12 6 -20.5 13.5t-8.5 23.5t11 28.5t40 23.5q16 7 38.5 13.5t52.5 13.5q33 8 60.5 12.5t49.5 5.5q14 0 21 -8t7 -22v1zM123 577q-7 -5 -15 -9.5t-16 -9.5q-7 -4 -15 -8t-16 -7
q-10 -5 -20.5 -8t-20.5 -3q-18 0 -28.5 11t-10.5 27q0 10 5.5 20.5t13.5 20.5q13 16 32 30.5t39 27.5q30 19 56 31.5t33 12.5q13 0 37.5 -12t51.5 -29q13 -9 26 -19t25 -19q21 -18 34.5 -35t13.5 -28q0 -16 -11 -27t-26 -11q-17 0 -34 7t-33 15q-2 1 -3.5 2t-3.5 2
q-18 10 -36.5 18t-38.5 8q-10 0 -20 -2t-19 -7v1z" />
    <glyph glyph-name="idieresis" unicode="&#xef;" horiz-adv-x="356" 
d="M290 453v-284q0 -32 5.5 -47t19.5 -27l2.5 -2.5t3.5 -2.5q8 -6 13 -10.5t8 -8.5t4 -8.5t1 -10.5q0 -31 -40 -46.5t-118 -15.5q-92 0 -134.5 13t-42.5 43q0 16 9 25.5t20 17.5q1 0 1 0.5v0.5l1.5 1.5t1.5 0.5q16 11 22 36.5t6 74.5v16t-1 17q0 8 -0.5 16t-0.5 16v7v6
q-2 29 -3.5 38.5t-7.5 15.5q-1 1 -2 1.5t-2 1.5q-3 2 -6.5 4.5t-7.5 3.5q-1 1 -2 1.5l-1 0.5q-12 6 -20.5 13.5t-8.5 23.5t11 28.5t40 23.5q16 7 38.5 13.5t52.5 13.5q33 8 60.5 12.5t49.5 5.5q14 0 21 -8t7 -22v1zM56 694q47 -1 74 -17t27 -44q0 -34 -45 -57.5t-112 -23.5
q-38 0 -64 17t-26 42q0 40 38 61t108 21v1zM345 694q47 -1 74 -17t27 -44q0 -34 -45 -57.5t-112 -23.5q-39 0 -65 17t-26 42q0 40 38.5 61t108.5 21v1z" />
    <glyph glyph-name="eth" unicode="&#xf0;" 
 />
    <glyph glyph-name="ntilde" unicode="&#xf1;" horiz-adv-x="671" 
d="M611 306l7 -171q0 -14 4 -25t11 -19l3.5 -3.5l3.5 -3.5v0l1 -1q7 -7 13.5 -15.5t6.5 -20.5q0 -33 -38.5 -45t-142.5 -12q-62 0 -90.5 11.5t-28.5 38.5q0 9 4 16t10 13l2 2l2 2t2 2.5t2 2.5q9 9 14.5 45t5.5 89q0 69 -14.5 98.5t-49.5 29.5q-31 0 -43.5 -21t-12.5 -76v-96
q0 -21 2 -33t9 -23q0 -1 1 -2.5t2 -2.5q1 -2 2.5 -4t2.5 -4q6 -7 10 -15t4 -17q0 -29 -39.5 -42.5t-124.5 -13.5q-68 0 -102 13t-34 40q0 8 0.5 12.5t3.5 8.5q3 3 7.5 7t12.5 9q15 11 20.5 51.5t5.5 146.5q0 32 -8.5 45.5t-19.5 20.5q-2 1 -4.5 2.5t-4.5 2.5q-8 5 -13.5 11
t-5.5 18q0 23 38.5 44t84.5 35q36 12 68.5 18.5t46.5 6.5t24 -10.5t10 -25.5v-4t-1 -8v-4.5v-4.5q1 -8 5 -15t14 -7q8 0 18 12.5t26 27.5t40.5 27.5t62.5 12.5q30 0 57.5 -8.5t48.5 -24.5q1 0 1.5 -0.5t0.5 -1.5q30 -23 41.5 -53t14.5 -90v1zM325 667q7 -3 14.5 -6.5
t16.5 -6.5q4 -2 8.5 -4t9.5 -3q11 -4 22.5 -7t20.5 -3q4 0 6.5 4t4.5 9q1 3 2 7t3 8q4 10 13 18.5t29 8.5q38 0 60.5 -14.5t22.5 -38.5q0 -39 -30.5 -67.5t-72.5 -28.5q-26 0 -49 7t-46 16q-1 0 -2 0.5t-2 0.5q-16 6 -32.5 12t-33.5 9q-4 1 -8 2.5t-9 3.5q-3 1 -7 2t-8 3
q-4 1 -8 1.5t-8 0.5q-5 0 -8 -3.5t-3 -8.5v-9q0 -20 -11.5 -28.5t-34.5 -8.5q-37 0 -55 12t-18 35q0 41 30.5 70.5t72.5 29.5h2h2q21 0 45 -5.5t61 -18.5v1z" />
    <glyph glyph-name="ograve" unicode="&#xf2;" horiz-adv-x="602" 
d="M310 487q105 -1 190 -66t85 -178q0 -109 -91 -182.5t-224 -73.5q-109 0 -181.5 64.5t-72.5 161.5q0 118 81.5 193.5t212.5 79.5v1zM278 374q-20 -2 -32 -17.5t-12 -41.5q0 -17 4 -43t11 -54q4 -19 10 -37.5t12 -34.5q8 -20 20 -30t29 -10q23 0 33.5 14.5t10.5 46.5
q0 20 -3.5 45t-10.5 51q-5 20 -11 39.5t-13 36.5q-7 15 -19 24.5t-29 9.5v1zM393 615q2 -3 4.5 -4.5t4.5 -3.5q10 -7 18 -16t8 -22q0 -19 -12.5 -27.5t-38.5 -8.5q-43 0 -85 14.5t-78 42.5q-19 15 -30 29t-11 24q0 23 32.5 39t80.5 16q38 0 60.5 -8t22.5 -21q0 -3 -1 -5.5
t-3 -4.5q-1 -3 -2.5 -5.5t-1.5 -5.5q0 -8 6 -14.5t13 -10.5q4 -3 7 -5l6 -4v1z" />
    <glyph glyph-name="oacute" unicode="&#xf3;" horiz-adv-x="602" 
d="M310 487q105 -1 190 -66t85 -178q0 -109 -91 -182.5t-224 -73.5q-109 0 -181.5 64.5t-72.5 161.5q0 118 81.5 193.5t212.5 79.5v1zM278 374q-20 -2 -32 -17.5t-12 -41.5q0 -17 4 -43t11 -54q4 -19 10 -37.5t12 -34.5q8 -20 20 -30t29 -10q23 0 33.5 14.5t10.5 46.5
q0 20 -3.5 45t-10.5 51q-5 20 -11 39.5t-13 36.5q-7 15 -19 24.5t-29 9.5v1zM198 608q4 2 7.5 4.5t7.5 5.5t7.5 5.5t7.5 5.5q4 2 7 6t4 9q1 1 1 2v2q0 3 -1 5.5t-3 5.5q-1 2 -2.5 4.5t-1.5 5.5q0 13 22 21t57 8q51 0 84 -15.5t33 -39.5q0 -8 -7.5 -19t-20.5 -22
q-3 -3 -6.5 -6t-7.5 -6q-34 -27 -76.5 -42t-86.5 -15q-25 0 -37.5 8.5t-12.5 27.5q0 14 7.5 22.5t17.5 15.5v1z" />
    <glyph glyph-name="ocircumflex" unicode="&#xf4;" horiz-adv-x="602" 
d="M310 487q105 -1 190 -66t85 -178q0 -109 -91 -182.5t-224 -73.5q-109 0 -181.5 64.5t-72.5 161.5q0 118 81.5 193.5t212.5 79.5v1zM278 374q-20 -2 -32 -17.5t-12 -41.5q0 -17 4 -43t11 -54q4 -19 10 -37.5t12 -34.5q8 -20 20 -30t29 -10q23 0 33.5 14.5t10.5 46.5
q0 20 -3.5 45t-10.5 51q-5 20 -11 39.5t-13 36.5q-7 15 -19 24.5t-29 9.5v1zM259 578q-7 -5 -15 -9.5t-16 -9.5q-7 -4 -15 -8t-16 -7q-10 -5 -20.5 -8t-20.5 -3q-18 0 -29 11t-11 27q0 10 5.5 20.5t14.5 20.5q13 16 32 30.5t39 27.5q30 19 56 31.5t33 12.5q13 0 37.5 -12
t51.5 -29q13 -9 26 -19t25 -19q21 -18 34.5 -35t13.5 -28q0 -16 -11 -27t-26 -11q-17 0 -34 7t-33 15q-2 1 -3.5 2t-3.5 2q-18 10 -36.5 18t-38.5 8q-10 0 -20 -2t-19 -7v1z" />
    <glyph glyph-name="otilde" unicode="&#xf5;" horiz-adv-x="602" 
d="M310 487q105 -1 190 -66t85 -178q0 -109 -91 -182.5t-224 -73.5q-109 0 -181.5 64.5t-72.5 161.5q0 118 81.5 193.5t212.5 79.5v1zM278 374q-20 -2 -32 -17.5t-12 -41.5q0 -17 4 -43t11 -54q4 -19 10 -37.5t12 -34.5q8 -20 20 -30t29 -10q23 0 33.5 14.5t10.5 46.5
q0 20 -3.5 45t-10.5 51q-5 20 -11 39.5t-13 36.5q-7 15 -19 24.5t-29 9.5v1zM290 667q7 -3 14.5 -6.5t16.5 -6.5q4 -2 8.5 -4t9.5 -3q11 -4 22.5 -7t20.5 -3q4 0 6.5 4t4.5 9q1 3 2 7t3 8q4 10 13 18.5t29 8.5q38 0 60.5 -14.5t22.5 -38.5q0 -39 -30.5 -67.5t-72.5 -28.5
q-26 0 -49 7t-46 16q-1 0 -2 0.5t-2 0.5q-16 6 -32.5 12t-33.5 9q-4 1 -8 2.5t-9 3.5q-3 1 -7 2t-8 3q-4 1 -8 1.5t-8 0.5q-5 0 -8 -3.5t-3 -8.5v-9q0 -20 -11.5 -28.5t-34.5 -8.5q-37 0 -55 12t-18 35q0 41 30.5 70.5t72.5 29.5h2h2q21 0 45 -5.5t61 -18.5v1z" />
    <glyph glyph-name="odieresis" unicode="&#xf6;" horiz-adv-x="602" 
d="M310 487q105 -1 190 -66t85 -178q0 -109 -91 -182.5t-224 -73.5q-109 0 -181.5 64.5t-72.5 161.5q0 118 81.5 193.5t212.5 79.5v1zM278 374q-20 -2 -32 -17.5t-12 -41.5q0 -17 4 -43t11 -54q4 -19 10 -37.5t12 -34.5q8 -20 20 -30t29 -10q23 0 33.5 14.5t10.5 46.5
q0 20 -3.5 45t-10.5 51q-5 20 -11 39.5t-13 36.5q-7 15 -19 24.5t-29 9.5v1zM178 687q47 -1 74 -17t27 -44q0 -34 -45 -57.5t-112 -23.5q-39 0 -65 17t-26 42q0 40 38.5 61t108.5 21v1zM467 687q47 -1 74 -17t27 -44q0 -34 -45 -57.5t-112 -23.5q-39 0 -65 17t-26 42
q0 40 38.5 61t108.5 21v1z" />
    <glyph glyph-name="divide" unicode="&#xf7;" horiz-adv-x="300" 
d="M148 372q38 -1 62 -24.5t24 -60.5q0 -34 -24.5 -58.5t-59.5 -24.5q-33 0 -58 24.5t-25 55.5q0 37 23.5 62t57.5 25v1z" />
    <glyph glyph-name="oslash" unicode="&#xf8;" horiz-adv-x="602" 
d="M578 409l-30 -23q-3 -3 -4.5 -5.5t-1.5 -4.5l6.5 -12.5t15.5 -32.5q5 -14 10 -29.5t8 -32.5q1 -7 2 -14.5t1 -14.5q0 -108 -91 -180.5t-225 -72.5q-36 0 -68.5 8.5t-56.5 20.5q-25 11 -39.5 20t-15.5 9q-8 0 -14.5 -4.5t-12.5 -10.5q-1 0 -1.5 -0.5t-0.5 -1.5
q-7 -6 -14.5 -11.5t-16.5 -5.5t-17 7.5t-11 16.5q-1 2 -1 4.5v4.5q0 10 7 16t16 10q9 5 16.5 10.5t7.5 15.5q0 2 -0.5 3.5t-1.5 2.5q0 1 -0.5 2.5t-2.5 4.5q-7 13 -12.5 30.5t-8.5 36.5q-2 10 -3 20.5t-1 19.5q0 125 88 197.5t207 72.5q54 0 99 -13.5t76 -39.5q5 -5 8 -6.5
t5 -1.5q3 0 5 0.5t4 1.5q6 3 14 10t22 18q4 3 7.5 4.5t7.5 1.5q10 0 17.5 -8t10.5 -18q1 -2 1.5 -4.5t0.5 -4.5q0 -3 -0.5 -5t-1.5 -4l-4 -4t-6 -5v1zM337 232q-4 -4 -14 -10.5t-21 -14.5q-3 -3 -6.5 -5t-6.5 -5q-10 -8 -17 -15.5t-7 -12.5q0 -4 1 -8.5t2 -8.5
q6 -16 20 -29.5t30 -16.5h2.5h2.5q20 0 31 15t11 41q0 32 -4 54t-10 22q-2 0 -5 -1t-9 -6v1zM332 326q-6 17 -19 32t-34 15q-19 0 -31 -14.5t-12 -39.5v-11.5t1 -14.5v-3t1 -5v-8t1 -9q1 -10 4 -18t9 -8q3 0 14.5 8t24.5 18q1 0 1.5 0.5l1.5 1.5q11 7 20 14.5t14 10.5
q3 2 4.5 3.5t2.5 3.5q1 1 1.5 2.5t0.5 3.5v2v2q-1 2 -2 4.5t-3 8.5v1z" />
    <glyph glyph-name="ugrave" unicode="&#xf9;" horiz-adv-x="678" 
d="M617 386l-1 -34v-215q0 -13 7.5 -19.5t16.5 -11.5q1 -1 1.5 -1h0.5q10 -6 18 -13t8 -21q0 -33 -66.5 -57t-155.5 -24q-26 0 -34 8.5t-9 19.5q-1 1 -1 3v4q-1 9 -3.5 15t-13.5 6q-6 0 -20 -9t-34 -19q-19 -11 -43 -19.5t-51 -8.5q-101 0 -132 59.5t-31 147.5v17.5t1 17.5
v16.5v17.5q0 59 -6.5 80.5t-29.5 33.5q-9 5 -15 8.5t-9 6.5q-3 4 -4 8t-1 10q0 18 14 30t42 19q21 4 45 8t49 6q25 3 50.5 4.5t46.5 1.5q14 0 21.5 -6t7.5 -18v-264q0 -43 15 -64.5t43 -21.5q33 0 44.5 27.5t11.5 107.5q0 81 -4 103.5t-24 32.5l-1.5 1.5t-1.5 0.5
q-13 7 -20.5 16.5t-7.5 19.5q0 15 12.5 26.5t35.5 16.5q19 5 40.5 8.5t43.5 6.5q25 3 50 5t46 2q24 0 36.5 -13.5t12.5 -39.5q0 -6 -0.5 -11.5t-0.5 -10.5v-10.5v-11.5v1zM432 614q2 -3 4.5 -4.5t4.5 -3.5q10 -7 18 -16t8 -22q0 -19 -12.5 -27.5t-38.5 -8.5q-43 0 -85 14.5
t-78 42.5q-19 15 -30 29t-11 24q0 23 32.5 39t80.5 16q38 0 60.5 -8t22.5 -21q0 -3 -1 -5.5t-3 -4.5q-1 -3 -2.5 -5.5t-1.5 -5.5q0 -8 6 -14.5t13 -10.5q4 -3 7 -5l6 -4v1z" />
    <glyph glyph-name="uacute" unicode="&#xfa;" horiz-adv-x="678" 
d="M617 386l-1 -34v-215q0 -13 7.5 -19.5t16.5 -11.5q1 -1 1.5 -1h0.5q10 -6 18 -13t8 -21q0 -33 -66.5 -57t-155.5 -24q-26 0 -34 8.5t-9 19.5q-1 1 -1 3v4q-1 9 -3.5 15t-13.5 6q-6 0 -20 -9t-34 -19q-19 -11 -43 -19.5t-51 -8.5q-101 0 -132 59.5t-31 147.5v17.5t1 17.5
v16.5v17.5q0 59 -6.5 80.5t-29.5 33.5q-9 5 -15 8.5t-9 6.5q-3 4 -4 8t-1 10q0 18 14 30t42 19q21 4 45 8t49 6q25 3 50.5 4.5t46.5 1.5q14 0 21.5 -6t7.5 -18v-264q0 -43 15 -64.5t43 -21.5q33 0 44.5 27.5t11.5 107.5q0 81 -4 103.5t-24 32.5l-1.5 1.5t-1.5 0.5
q-13 7 -20.5 16.5t-7.5 19.5q0 15 12.5 26.5t35.5 16.5q19 5 40.5 8.5t43.5 6.5q25 3 50 5t46 2q24 0 36.5 -13.5t12.5 -39.5q0 -6 -0.5 -11.5t-0.5 -10.5v-10.5v-11.5v1zM237 607q4 2 7.5 4.5t7.5 5.5t7.5 5.5t7.5 5.5q4 2 7 6t4 9q1 1 1 2v2q0 3 -1 5.5t-3 5.5
q-1 2 -2.5 4.5t-1.5 5.5q0 13 22 21t57 8q51 0 84 -15.5t33 -39.5q0 -8 -7.5 -19t-20.5 -22q-3 -3 -6.5 -6t-7.5 -6q-34 -27 -76.5 -42t-86.5 -15q-25 0 -37.5 8.5t-12.5 27.5q0 14 7.5 22.5t17.5 15.5v1z" />
    <glyph glyph-name="ucircumflex" unicode="&#xfb;" horiz-adv-x="678" 
d="M617 386l-1 -34v-215q0 -13 7.5 -19.5t16.5 -11.5q1 -1 1.5 -1h0.5q10 -6 18 -13t8 -21q0 -33 -66.5 -57t-155.5 -24q-26 0 -34 8.5t-9 19.5q-1 1 -1 3v4q-1 9 -3.5 15t-13.5 6q-6 0 -20 -9t-34 -19q-19 -11 -43 -19.5t-51 -8.5q-101 0 -132 59.5t-31 147.5v17.5t1 17.5
v16.5v17.5q0 59 -6.5 80.5t-29.5 33.5q-9 5 -15 8.5t-9 6.5q-3 4 -4 8t-1 10q0 18 14 30t42 19q21 4 45 8t49 6q25 3 50.5 4.5t46.5 1.5q14 0 21.5 -6t7.5 -18v-264q0 -43 15 -64.5t43 -21.5q33 0 44.5 27.5t11.5 107.5q0 81 -4 103.5t-24 32.5l-1.5 1.5t-1.5 0.5
q-13 7 -20.5 16.5t-7.5 19.5q0 15 12.5 26.5t35.5 16.5q19 5 40.5 8.5t43.5 6.5q25 3 50 5t46 2q24 0 36.5 -13.5t12.5 -39.5q0 -6 -0.5 -11.5t-0.5 -10.5v-10.5v-11.5v1zM298 577q-7 -5 -15 -9.5t-16 -9.5q-7 -4 -15 -8t-16 -7q-10 -5 -20.5 -8t-20.5 -3q-18 0 -29 11
t-11 27q0 10 5.5 20.5t14.5 20.5q13 16 32 30.5t39 27.5q30 19 56 31.5t33 12.5q13 0 37.5 -12t51.5 -29q13 -9 26 -19t25 -19q21 -18 34.5 -35t13.5 -28q0 -16 -11 -27t-26 -11q-17 0 -34 7t-33 15q-2 1 -3.5 2t-3.5 2q-18 10 -36.5 18t-38.5 8q-10 0 -20 -2t-19 -7v1z" />
    <glyph glyph-name="udieresis" unicode="&#xfc;" horiz-adv-x="678" 
d="M617 386l-1 -34v-215q0 -13 7.5 -19.5t16.5 -11.5q1 -1 1.5 -1h0.5q10 -6 18 -13t8 -21q0 -33 -66.5 -57t-155.5 -24q-26 0 -34 8.5t-9 19.5q-1 1 -1 3v4q-1 9 -3.5 15t-13.5 6q-6 0 -20 -9t-34 -19q-19 -11 -43 -19.5t-51 -8.5q-101 0 -132 59.5t-31 147.5v17.5t1 17.5
v16.5v17.5q0 59 -6.5 80.5t-29.5 33.5q-9 5 -15 8.5t-9 6.5q-3 4 -4 8t-1 10q0 18 14 30t42 19q21 4 45 8t49 6q25 3 50.5 4.5t46.5 1.5q14 0 21.5 -6t7.5 -18v-264q0 -43 15 -64.5t43 -21.5q33 0 44.5 27.5t11.5 107.5q0 81 -4 103.5t-24 32.5l-1.5 1.5t-1.5 0.5
q-13 7 -20.5 16.5t-7.5 19.5q0 15 12.5 26.5t35.5 16.5q19 5 40.5 8.5t43.5 6.5q25 3 50 5t46 2q24 0 36.5 -13.5t12.5 -39.5q0 -6 -0.5 -11.5t-0.5 -10.5v-10.5v-11.5v1zM217 687q47 -1 74 -17t27 -44q0 -34 -45 -57.5t-112 -23.5q-39 0 -65 17t-26 42q0 40 38.5 61
t108.5 21v1zM506 687q47 -1 74 -17t27 -44q0 -34 -45 -57.5t-112 -23.5q-39 0 -65 17t-26 42q0 40 38.5 61t108.5 21v1z" />
    <glyph glyph-name="yacute" unicode="&#xfd;" horiz-adv-x="619" 
d="M484 246l-65 -177q-33 -92 -90 -166t-168 -74q-65 0 -107 32t-42 82q0 37 24.5 62t59.5 25q32 0 47 -15.5t24 -34.5q2 -6 4.5 -12t4.5 -12q5 -11 10 -18.5t13 -7.5q16 0 26.5 13t10.5 33v1.5v0.5q0 13 -6 28.5t-20 45.5l-117 251q-13 28 -24 42.5t-22 19.5q-3 1 -5.5 2
t-4.5 3q-14 6 -25.5 15.5t-11.5 26.5q0 26 27 41.5t85 22.5l20 2l20 2q17 1 33.5 1.5t30.5 0.5q63 0 93 -14.5t30 -46.5q0 -7 -3 -13.5t-7 -12.5l-0.5 -0.5l-0.5 -0.5q-4 -6 -7.5 -13t-3.5 -15q0 -7 4.5 -20t10.5 -28q6 -12 13 -23.5t14 -19.5q5 -4 9.5 -7t8.5 -3
q13 0 22 14t15 31q5 14 7.5 26.5t2.5 16.5q0 14 -4.5 23t-10.5 16q-1 1 -1.5 2t-1.5 2q-5 7 -8.5 14t-3.5 17q0 25 32.5 40t86.5 15q53 0 79.5 -12.5t26.5 -38.5q0 -15 -7 -24t-24 -17q-4 -2 -8.5 -4t-9.5 -4q-12 -4 -21.5 -11.5t-18.5 -21.5q-10 -15 -21 -40t-25 -64v1z
M207 607q4 2 7.5 4.5t7.5 5.5t7.5 5.5t7.5 5.5q4 2 7 6t4 9q1 1 1 2v2q0 3 -1 5.5t-3 5.5q-1 2 -2.5 4.5t-1.5 5.5q0 13 22 21t57 8q51 0 84 -15.5t33 -39.5q0 -8 -7.5 -19t-20.5 -22q-3 -3 -6.5 -6t-7.5 -6q-34 -27 -76.5 -42t-86.5 -15q-25 0 -37.5 8.5t-12.5 27.5
q0 14 7.5 22.5t17.5 15.5v1z" />
    <glyph glyph-name="thorn" unicode="&#xfe;" 
 />
    <glyph glyph-name="ydieresis" unicode="&#xff;" horiz-adv-x="619" 
d="M484 246l-65 -177q-33 -92 -90 -166t-168 -74q-65 0 -107 32t-42 82q0 37 24.5 62t59.5 25q32 0 47 -15.5t24 -34.5q2 -6 4.5 -12t4.5 -12q5 -11 10 -18.5t13 -7.5q16 0 26.5 13t10.5 33v1.5v0.5q0 13 -6 28.5t-20 45.5l-117 251q-13 28 -24 42.5t-22 19.5q-3 1 -5.5 2
t-4.5 3q-14 6 -25.5 15.5t-11.5 26.5q0 26 27 41.5t85 22.5l20 2l20 2q17 1 33.5 1.5t30.5 0.5q63 0 93 -14.5t30 -46.5q0 -7 -3 -13.5t-7 -12.5l-0.5 -0.5l-0.5 -0.5q-4 -6 -7.5 -13t-3.5 -15q0 -7 4.5 -20t10.5 -28q6 -12 13 -23.5t14 -19.5q5 -4 9.5 -7t8.5 -3
q13 0 22 14t15 31q5 14 7.5 26.5t2.5 16.5q0 14 -4.5 23t-10.5 16q-1 1 -1.5 2t-1.5 2q-5 7 -8.5 14t-3.5 17q0 25 32.5 40t86.5 15q53 0 79.5 -12.5t26.5 -38.5q0 -15 -7 -24t-24 -17q-4 -2 -8.5 -4t-9.5 -4q-12 -4 -21.5 -11.5t-18.5 -21.5q-10 -15 -21 -40t-25 -64v1z
M187 686q47 -1 74 -17t27 -44q0 -34 -45 -57.5t-112 -23.5q-39 0 -65 17t-26 42q0 40 38.5 61t108.5 21v1zM476 686q47 -1 74 -17t27 -44q0 -34 -45 -57.5t-112 -23.5q-39 0 -65 17t-26 42q0 40 38.5 61t108.5 21v1z" />
    <glyph glyph-name="Abreve" unicode="&#x102;" 
 />
    <glyph glyph-name="abreve" unicode="&#x103;" 
 />
    <glyph glyph-name="Aogonek" unicode="&#x104;" 
 />
    <glyph glyph-name="aogonek" unicode="&#x105;" 
 />
    <glyph glyph-name="Cacute" unicode="&#x106;" 
 />
    <glyph glyph-name="cacute" unicode="&#x107;" 
 />
    <glyph glyph-name="Ccaron" unicode="&#x10c;" 
 />
    <glyph glyph-name="ccaron" unicode="&#x10d;" 
 />
    <glyph glyph-name="Dcaron" unicode="&#x10e;" 
 />
    <glyph glyph-name="dcaron" unicode="&#x10f;" 
 />
    <glyph glyph-name="Dslash" unicode="&#x110;" 
 />
    <glyph glyph-name="dslash" unicode="&#x111;" 
 />
    <glyph glyph-name="Eogonek" unicode="&#x118;" 
 />
    <glyph glyph-name="eogonek" unicode="&#x119;" 
 />
    <glyph glyph-name="Ecaron" unicode="&#x11a;" 
 />
    <glyph glyph-name="ecaron" unicode="&#x11b;" 
 />
    <glyph glyph-name="Gbreve" unicode="&#x11e;" 
 />
    <glyph glyph-name="gbreve" unicode="&#x11f;" 
 />
    <glyph glyph-name="Idot" unicode="&#x130;" 
 />
    <glyph glyph-name="dotlessi" unicode="&#x131;" horiz-adv-x="356" 
d="M290 453v-284q0 -32 5.5 -47t19.5 -27l2.5 -2.5t3.5 -2.5q8 -6 13 -10.5t8 -8.5t4 -8.5t1 -10.5q0 -31 -40 -46.5t-118 -15.5q-92 0 -134.5 13t-42.5 43q0 16 9 25.5t20 17.5q1 0 1 0.5v0.5l1.5 1.5t1.5 0.5q16 11 22 36.5t6 74.5v16t-1 17q0 8 -0.5 16t-0.5 16v7v6
q-2 29 -3.5 38.5t-7.5 15.5q-1 1 -2 1.5t-2 1.5q-3 2 -6.5 4.5t-7.5 3.5q-1 1 -2 1.5l-1 0.5q-12 6 -20.5 13.5t-8.5 23.5t11 28.5t40 23.5q16 7 38.5 13.5t52.5 13.5q33 8 60.5 12.5t49.5 5.5q14 0 21 -8t7 -22v1z" />
    <glyph glyph-name="Lacute" unicode="&#x139;" 
 />
    <glyph glyph-name="lacute" unicode="&#x13a;" 
 />
    <glyph glyph-name="Lcaron" unicode="&#x13d;" 
 />
    <glyph glyph-name="lcaron" unicode="&#x13e;" 
 />
    <glyph glyph-name="Ldot" unicode="&#x13f;" 
 />
    <glyph glyph-name="ldot" unicode="&#x140;" 
 />
    <glyph glyph-name="Lslash" unicode="&#x141;" 
 />
    <glyph glyph-name="lslash" unicode="&#x142;" 
 />
    <glyph glyph-name="Nacute" unicode="&#x143;" 
 />
    <glyph glyph-name="nacute" unicode="&#x144;" 
 />
    <glyph glyph-name="Ncaron" unicode="&#x147;" 
 />
    <glyph glyph-name="ncaron" unicode="&#x148;" 
 />
    <glyph glyph-name="Odblacute" unicode="&#x150;" 
 />
    <glyph glyph-name="odblacute" unicode="&#x151;" 
 />
    <glyph glyph-name="OE" unicode="&#x152;" horiz-adv-x="1083" 
d="M901 0h-418q-14 0 -28.5 -1t-28.5 -3q-14 -1 -28.5 -2t-28.5 -1q-145 0 -245.5 101t-100.5 247q0 141 101 238t249 97q19 0 38.5 -1.5t38.5 -2.5q19 -2 38.5 -3.5t38.5 -1.5l321 1q3 -1 5.5 -1h5.5q26 1 50 3.5t32 5.5q2 1 4 1.5t4 1.5q7 3 13.5 5t13.5 2
q32 0 56.5 -43.5t24.5 -98.5q0 -29 -14.5 -47t-38.5 -18q-20 0 -29 7.5t-16 19.5q-2 4 -5 9t-7 11q-13 17 -43 31.5t-103 14.5q-50 0 -63 -11t-13 -55v-78q0 -26 10.5 -33t47.5 -7q28 0 35.5 17t11.5 37q3 19 10 34.5t32 15.5q28 0 42.5 -36t14.5 -107q0 -70 -18 -113
t-47 -43q-19 0 -24.5 12.5t-7.5 28.5q0 2 -0.5 4.5t-0.5 5.5q-3 18 -13.5 34t-45.5 16q-26 0 -34.5 -13.5t-8.5 -54.5q0 -48 5 -79.5t15 -39.5q7 -6 28.5 -8.5t63.5 -2.5q40 0 63 8.5t43 34.5q6 8 13 19t14 24q12 22 25 32t30 10q23 0 35 -15.5t12 -42.5q0 -13 -5 -36
t-15 -47q-14 -37 -35 -66.5t-47 -29.5q-8 0 -16 2l-16 4q-6 2 -11.5 3.5t-10.5 2.5q-2 0 -4.5 0.5t-4.5 0.5h-5.5h-4.5v0zM257 439q0 -25 6 -62.5t18 -78.5q18 -63 52 -115.5t83 -52.5q38 0 61 28.5t23 74.5q0 25 -5.5 61.5t-16.5 75.5q-19 65 -53.5 118.5t-86.5 53.5
q-36 0 -58.5 -28.5t-22.5 -75.5v1z" />
    <glyph glyph-name="oe" unicode="&#x153;" horiz-adv-x="884" 
d="M825 219h-228q-10 -1 -13.5 -3t-3.5 -8q0 -35 34 -62.5t76 -27.5q7 0 13.5 0.5t13.5 1.5q19 3 39 10.5t37 19.5q7 5 10 6.5l5 2.5h3h3q3 0 5.5 -1t5.5 -2q3 -2 5.5 -4.5l5.5 -5.5l4 -6t3 -5q4 -8 6.5 -15t2.5 -12q0 -36 -40.5 -63t-89.5 -42q-27 -7 -52 -11.5t-44 -4.5
h-1.5h-1.5q-29 0 -57 7t-51 16q-22 9 -36.5 16.5l-14.5 7.5h-0.5h-0.5q-2 0 -4.5 -1t-6.5 -4q-23 -14 -56 -24t-69 -14q-12 -2 -24.5 -3t-24.5 -1q-117 0 -189 64.5t-72 168.5q0 117 84.5 191.5t217.5 74.5q35 0 63 -7t49 -15q20 -8 32.5 -15t14.5 -7h1.5h0.5q2 1 3.5 1.5
t4.5 2.5q20 13 48 22.5t58 14.5l22 2t21 1q98 0 166 -58t68 -141q0 -31 -12.5 -50t-33.5 -19v1zM281 376q-21 -1 -33 -16.5t-12 -41.5q0 -17 3.5 -42.5t9.5 -52.5q4 -18 9 -36.5t10 -33.5q8 -22 22 -34.5t32 -12.5q21 0 31.5 16t10.5 49q0 15 -2.5 41t-9.5 54q-9 41 -26 75
t-45 34v1zM618 312h40q17 -1 24 4.5t7 18.5q0 29 -14.5 46.5t-38.5 17.5t-40.5 -17t-16.5 -43q0 -19 6.5 -23.5t32.5 -4.5v1z" />
    <glyph glyph-name="Racute" unicode="&#x154;" 
 />
    <glyph glyph-name="racute" unicode="&#x155;" 
 />
    <glyph glyph-name="Rcaron" unicode="&#x158;" 
 />
    <glyph glyph-name="rcaron" unicode="&#x159;" 
 />
    <glyph glyph-name="Sacute" unicode="&#x15a;" 
 />
    <glyph glyph-name="sacute" unicode="&#x15b;" 
 />
    <glyph glyph-name="Scedilla" unicode="&#x15e;" 
 />
    <glyph glyph-name="scedilla" unicode="&#x15f;" 
 />
    <glyph glyph-name="Scaron" unicode="&#x160;" horiz-adv-x="645" 
d="M472 655q2 0 4.5 0.5t4.5 1.5q1 1 1.5 1h1.5q6 3 12 4.5t12 1.5q27 0 51 -27.5t38 -60.5q8 -18 12 -34t4 -29q0 -27 -16 -46t-40 -19q-12 0 -23.5 5t-22.5 13t-21 17.5t-21 19.5q-23 20 -50 37t-62 17q-28 0 -44.5 -12.5t-16.5 -35.5q0 -26 26 -41t64 -27q17 -6 36 -12
t39 -13q61 -23 112.5 -64.5t51.5 -128.5q0 -104 -86 -170t-221 -66q-13 0 -26.5 0.5t-26.5 1.5q-64 6 -119.5 21t-73.5 34q-14 13 -26.5 42.5t-18.5 61.5q-4 15 -5.5 29t-1.5 27q0 26 10.5 40t29.5 14q20 0 35.5 -16t27.5 -36q6 -10 11 -19.5t10 -16.5q18 -27 55.5 -44.5
t79.5 -18.5h2.5h2.5q35 0 57.5 13t22.5 33q0 23 -21 36.5t-54 25.5q-18 7 -39 14.5t-43 16.5q-24 10 -48 23.5t-44 31.5q-25 23 -43 49.5t-26 54.5q-4 12 -6 24t-2 23q0 96 79.5 162t195.5 66q25 0 47.5 -4.5t41.5 -9.5t34.5 -9.5t25.5 -4.5h2.5t2.5 1q1 0 2.5 0.5t2.5 0.5
v1zM250 871q3 -3 6.5 -4.5t7.5 -3.5q13 -7 27 -13t29 -6q19 0 38 8.5t38 18.5q18 9 36.5 17.5t36.5 8.5q15 0 26 -11t11 -27q0 -11 -13.5 -28t-33.5 -35q-13 -11 -27 -21.5t-28 -19.5q-25 -16 -48.5 -27t-37.5 -11q-18 0 -54.5 21t-76.5 55q-5 4 -10.5 8.5t-10.5 9.5l-14 14
t-9 13q-3 5 -4 10.5t-1 11.5q0 17 11 27.5t29 10.5q9 0 29 -8t43 -20v1z" />
    <glyph glyph-name="scaron" unicode="&#x161;" horiz-adv-x="477" 
d="M199 -7q-4 0 -8.5 1t-8.5 1q-9 2 -18 3t-18 1h-2.5h-2.5q-2 0 -4.5 -0.5t-5.5 -0.5q-6 -2 -9 -2h-3q-2 -1 -4.5 -1h-4.5q-12 0 -19.5 2t-14.5 7q-3 2 -5.5 5t-5.5 7q-10 12 -18.5 27.5t-14.5 30.5t-9 29.5t-3 26.5q0 21 9.5 33t25.5 12q18 0 31.5 -12t26.5 -28
q2 -2 3.5 -4t3.5 -3q14 -18 30.5 -33t39.5 -15q17 0 26.5 8.5t9.5 24.5q0 5 -3 10t-9 10q-13 11 -35 23t-46 27q-35 22 -64 55.5t-29 85.5q0 71 48.5 116.5t123.5 45.5q13 0 25.5 -2t24.5 -4q12 -3 24.5 -5t25.5 -2q7 0 13 2t13 5l12 4t13 2h2.5h2.5q20 -4 38.5 -25.5
t30.5 -46.5q7 -15 10.5 -28.5t3.5 -23.5q0 -21 -13.5 -34.5t-34.5 -13.5q-20 0 -35.5 12t-29.5 26l-4 4t-5 4q-11 12 -23.5 21t-27.5 9q-13 0 -23.5 -10t-10.5 -23q0 -11 8.5 -20t22.5 -17q15 -10 34 -19.5t40 -20.5q39 -22 71.5 -55t32.5 -88q0 -64 -53.5 -107t-132.5 -43
q-9 0 -17.5 0.5t-16.5 1.5t-16.5 2t-17.5 2v0zM166 687q3 -3 6.5 -4.5t7.5 -3.5q13 -7 27 -13t29 -6q19 0 38 8.5t38 18.5q18 9 36.5 17.5t36.5 8.5q15 0 26 -11t11 -27q0 -11 -13.5 -28t-33.5 -35q-13 -11 -27 -21.5t-28 -19.5q-25 -16 -48.5 -27t-37.5 -11q-18 0 -54.5 21
t-76.5 55q-5 4 -10.5 8.5t-10.5 9.5l-14 14t-9 13q-3 5 -4 10.5t-1 11.5q0 17 11 27.5t29 10.5q9 0 29 -8t43 -20v1z" />
    <glyph glyph-name="Tcedilla" unicode="&#x162;" 
 />
    <glyph glyph-name="tcedilla" unicode="&#x163;" 
 />
    <glyph glyph-name="Tcaron" unicode="&#x164;" 
 />
    <glyph glyph-name="tcaron" unicode="&#x165;" 
 />
    <glyph glyph-name="Uring" unicode="&#x16e;" 
 />
    <glyph glyph-name="uring" unicode="&#x16f;" 
 />
    <glyph glyph-name="udblacute" unicode="&#x170;" 
 />
    <glyph glyph-name="Udblacute" unicode="&#x171;" 
 />
    <glyph glyph-name="Ydieresis" unicode="&#x178;" horiz-adv-x="780" 
d="M505 577q-8 8 -15 18t-7 23q0 31 35.5 44.5t117.5 13.5q88 0 116 -11.5t28 -46.5q0 -19 -12.5 -29t-42.5 -15q-8 -1 -14.5 -3t-13.5 -6q-17 -8 -37.5 -27t-57.5 -60q-36 -40 -56.5 -65t-30.5 -47q-8 -20 -10.5 -41.5t-2.5 -54.5q0 -10 0.5 -19.5t0.5 -18.5q0 -4 0.5 -7
t0.5 -6q0 -7 0.5 -13t0.5 -13q1 -44 7 -60.5t26 -27.5q2 0 3.5 -1t3.5 -2q18 -10 26.5 -20.5t8.5 -24.5q0 -35 -49 -51t-154 -16q-13 0 -40.5 0.5t-58.5 4.5q-40 5 -73.5 19t-33.5 42q0 17 9 27.5t28 16.5q32 12 41 43.5t9 136.5q0 25 -2 41t-8 30q-4 11 -12 23t-20 28
q-11 14 -25.5 32.5t-31.5 38.5q-11 13 -22 25t-22 23q-16 15 -32 27t-30 17q-13 5 -22 9t-15 7q-10 6 -13 13t-3 18q0 28 26.5 41.5t89.5 18.5q13 1 25 2t25 1q12 1 24 1h25q107 0 151.5 -12.5t44.5 -42.5q0 -9 -4 -15.5t-9 -13.5l-0.5 -0.5l-0.5 -0.5q-5 -6 -8.5 -12.5
t-3.5 -14.5q0 -6 3.5 -16t9.5 -20q6 -12 14.5 -22t16.5 -16q5 -4 9 -5.5t8 -1.5t12.5 5t18.5 12q10 9 19.5 20.5t12.5 23.5q1 3 1.5 6t0.5 6q0 6 -1.5 11t-4.5 9v1zM268 878q47 -1 74 -17t27 -44q0 -34 -45 -57.5t-112 -23.5q-39 0 -65 17t-26 42q0 40 38.5 61t108.5 21v1z
M557 878q47 -1 74 -17t27 -44q0 -34 -45 -57.5t-112 -23.5q-39 0 -65 17t-26 42q0 40 38.5 61t108.5 21v1z" />
    <glyph glyph-name="Zacute" unicode="&#x179;" 
 />
    <glyph glyph-name="zacute" unicode="&#x17a;" 
 />
    <glyph glyph-name="Zdot" unicode="&#x17b;" 
 />
    <glyph glyph-name="zdot" unicode="&#x17c;" 
 />
    <glyph glyph-name="Zcaron" unicode="&#x17d;" 
 />
    <glyph glyph-name="zcaron" unicode="&#x17e;" 
 />
    <glyph glyph-name="florin" unicode="&#x192;" horiz-adv-x="600" 
d="M470 327q-3 -1 -6.5 -1t-6.5 1h-7.5h-6.5q-18 0 -26 -11.5t-10 -41.5q-1 -26 -5 -65t-9 -81q-6 -46 -14.5 -88t-18.5 -67q-25 -63 -83.5 -101.5t-129.5 -38.5q-64 0 -110 32.5t-46 77.5q0 29 18.5 48t46.5 19q31 0 40 -13.5t12 -30.5q0 -2 0.5 -4t0.5 -4q2 -14 6 -25
t21 -11q18 0 29.5 16t18.5 54q8 35 15 76t12 83q5 40 8 80t3 75q0 14 -4 18t-18 4q-3 0 -5.5 -0.5t-5.5 -0.5t-5.5 -0.5t-5.5 -0.5q-5 0 -8 3.5t-3 9.5q0 5 0.5 10t0.5 10q1 5 1.5 10t1.5 10q2 18 8 26.5t15 8.5h6.5t13.5 -1q16 0 22.5 11t10.5 30q4 17 9.5 39t19.5 44
q7 10 15.5 20t19.5 20q32 27 67 39.5t79 12.5q65 0 110 -34t45 -82q0 -25 -20 -43.5t-49 -18.5q-23 0 -38 13.5t-15 35.5v13q0 13 -7 21t-20 8q-20 0 -31 -22t-11 -63q0 -28 6.5 -36.5t29.5 -8.5h6.5t6.5 1h6.5h6.5q11 0 16 -5.5t5 -16.5q0 -30 -9 -47.5t-23 -17.5l-2 1v0z
" />
    <glyph glyph-name="hungarumlaut" unicode="&#x2ba;" horiz-adv-x="500" 
d="M34 610l18 14q3 1 5.5 4.5t3.5 6.5q1 2 1 3v2q0 4 -1.5 6.5t-3.5 5.5q-1 0 -1.5 0.5t-0.5 1.5t-0.5 2t-0.5 2q-1 1 -1 2v2q0 12 20.5 19.5t52.5 7.5q48 0 81.5 -15t33.5 -37q0 -8 -6 -18.5t-16 -20.5q-15 -15 -36.5 -29t-45.5 -23q-10 -4 -22.5 -7t-25.5 -4
q-8 -2 -16.5 -2.5t-16.5 -0.5q-25 0 -38 9.5t-13 28.5q0 11 7 19.5t16 14.5l2.5 2.5t3.5 2.5v1zM279 603l9 7q2 1 5 3l6 4q6 4 11.5 10t5.5 13q0 3 -1 5t-3 4q0 1 -0.5 1t-0.5 1q-2 2 -3.5 5t-1.5 6q0 12 20.5 19.5t53.5 7.5q48 0 81.5 -15t33.5 -37q0 -8 -6 -18.5
t-17 -20.5q-14 -15 -35.5 -29t-45.5 -23q-10 -4 -22.5 -7t-25.5 -4q-8 -2 -16.5 -2.5t-16.5 -0.5q-26 0 -38.5 9.5t-12.5 28.5q0 10 5 16.5t11 12.5q1 0 2 1l2 2v1z" />
    <glyph glyph-name="tilde" unicode="&#x2c6;" horiz-adv-x="500" 
d="M240 666q7 -3 14.5 -6.5t16.5 -6.5q4 -2 8.5 -4t9.5 -3q11 -4 22.5 -7t20.5 -3q4 0 6.5 4t4.5 9q1 3 2 7t3 8q4 10 13 18.5t29 8.5q38 0 60.5 -14.5t22.5 -38.5q0 -39 -30.5 -67.5t-72.5 -28.5q-26 0 -49 7t-46 16q-1 0 -2 0.5t-2 0.5q-16 6 -32.5 12t-33.5 9
q-4 1 -8 2.5t-9 3.5q-3 1 -7 2t-8 3q-4 1 -8 1.5t-8 0.5q-5 0 -8 -3.5t-3 -8.5v-9q0 -20 -11.5 -28.5t-34.5 -8.5q-37 0 -55 12t-18 35q0 41 30.5 70.5t72.5 29.5h2h2q21 0 45 -5.5t61 -18.5v1z" />
    <glyph glyph-name="caron" unicode="&#x2c7;" horiz-adv-x="500" 
d="M178 686q3 -3 6.5 -4.5t7.5 -3.5q13 -7 27 -13t29 -6q19 0 38 8.5t38 18.5q18 9 36.5 17.5t36.5 8.5q15 0 26 -11t11 -27q0 -11 -13.5 -28t-33.5 -35q-13 -11 -27 -21.5t-28 -19.5q-25 -16 -48.5 -27t-37.5 -11q-18 0 -54.5 21t-76.5 55q-5 4 -10.5 8.5t-10.5 9.5l-14 14
t-9 13q-3 5 -4 10.5t-1 11.5q0 17 11 27.5t29 10.5q9 0 29 -8t43 -20v1z" />
    <glyph glyph-name="macron" unicode="&#x2c9;" horiz-adv-x="500" 
d="M208 670h175q9 -1 17.5 -0.5t17.5 0.5q8 0 16.5 0.5t17.5 0.5q10 0 16.5 -5.5t6.5 -13.5q0 -7 -3.5 -22t-9.5 -31q-8 -22 -21 -40t-29 -18q-11 0 -22.5 1t-23.5 2q-3 0 -6 0.5t-6 0.5q-8 1 -17 1.5t-17 1.5l-142 1q-32 -1 -50.5 -1t-33.5 -1q-7 0 -14.5 -0.5t-16.5 -1.5
h-7t-8 1q-9 1 -16.5 5t-7.5 14q0 6 4 21t12 32q9 21 23.5 38.5t32.5 17.5q14 0 28 -1t28 -1l28 -2t28 -1v1z" />
    <glyph glyph-name="breve" unicode="&#x2d8;" horiz-adv-x="500" 
d="M251 648q39 -1 80.5 16t84.5 48q8 7 13.5 10t10.5 4h2.5h3.5q8 0 12.5 -5t4.5 -14q0 -10 -9 -26.5t-23 -34.5q-4 -5 -8 -9.5t-8 -8.5q-13 -13 -25.5 -24t-25.5 -20q-27 -18 -55 -26.5t-60 -8.5q-40 0 -74.5 14t-67.5 43l-10.5 10.5l-11.5 11.5l-5.5 5.5t-4.5 5.5
q-18 20 -28.5 38.5t-10.5 29.5q0 9 5 14t12 5h5t4 -1q4 -1 9 -4t12 -9q44 -32 86 -48.5t82 -16.5v1z" />
    <glyph glyph-name="dotaccent" unicode="&#x2d9;" horiz-adv-x="500" 
d="M273 685q47 -1 74 -17t27 -45q0 -34 -45 -57.5t-112 -23.5q-39 0 -65 17t-26 42q0 40 38.5 61.5t108.5 21.5v1z" />
    <glyph glyph-name="ring" unicode="&#x2da;" horiz-adv-x="500" 
d="M246 731q71 -1 110.5 -26t39.5 -70q0 -49 -37 -76t-104 -27q-76 0 -113.5 24t-37.5 73q0 47 37.5 74t104.5 27v1zM251 686q-23 -1 -36 -16t-13 -41q0 -24 12.5 -38.5t33.5 -14.5q23 0 36.5 15.5t13.5 40.5t-12.5 39t-34.5 14v1z" />
    <glyph glyph-name="ogonek" unicode="&#x2db;" horiz-adv-x="500" 
d="M307 1q-28 -13 -42.5 -30.5t-14.5 -37.5q0 -16 14 -27.5t33 -11.5q9 0 17 3t15 6q1 1 1.5 1t1.5 1q7 3 14 5.5t15 2.5q9 0 14.5 -7.5t5.5 -20.5q0 -35 -29.5 -50.5t-92.5 -15.5t-101 23.5t-38 63.5q0 22 17 40t37 32q10 6 19.5 12t16.5 10l97 1v0z" />
    <glyph glyph-name="circumflex" unicode="&#x2dc;" horiz-adv-x="500" 
d="M209 577q-7 -5 -15 -9.5t-16 -9.5q-7 -4 -15 -8t-16 -7q-10 -5 -20.5 -8t-20.5 -3q-18 0 -29 11t-11 27q0 10 5.5 20.5t14.5 20.5q13 16 32 30.5t39 27.5q30 19 56 31.5t33 12.5q13 0 37.5 -12t51.5 -29q13 -9 26 -19t25 -19q21 -18 34.5 -35t13.5 -28q0 -16 -11 -27
t-26 -11q-17 0 -34 7t-33 15q-2 1 -3.5 2t-3.5 2q-18 10 -36.5 18t-38.5 8q-10 0 -20 -2t-19 -7v1z" />
    <glyph glyph-name="Gamma" unicode="&#x393;" 
 />
    <glyph glyph-name="Theta" unicode="&#x398;" 
 />
    <glyph glyph-name="summation" unicode="&#x3a3;" horiz-adv-x="667" 
d="M620 750v-247h-116l-14 130h-322l249 -366l-249 -400h332l7 133h123v-250h-609v130l244 387l-244 353v130h599v0z" />
    <glyph glyph-name="Phi" unicode="&#x3a6;" 
 />
    <glyph glyph-name="Omega" unicode="&#x3a9;" horiz-adv-x="713" 
d="M24 0v110h156q-73 44 -108 106t-35 148q0 138 90.5 228t229.5 90t229 -90t90 -228q0 -86 -34.5 -148t-107.5 -107l155 1v-110h-285v104q73 38 106.5 99t33.5 143q0 104 -50.5 164.5t-136.5 60.5q-87 0 -137.5 -60.5t-50.5 -164.5q0 -80 34 -142.5t107 -100.5v-103h-286v0
z" />
    <glyph glyph-name="alpha" unicode="&#x3b1;" 
 />
    <glyph glyph-name="delta" unicode="&#x3b4;" horiz-adv-x="674" 
d="M6 0l258 667h141l262 -667h-661v0zM192 118h286l-143 390l-143 -390v0z" />
    <glyph glyph-name="epsilon" unicode="&#x3b5;" 
 />
    <glyph glyph-name="pi" unicode="&#x3c0;" horiz-adv-x="600" 
d="M0 225v50h325v-525h-50v475h-275v0z" />
    <glyph glyph-name="sigma" unicode="&#x3c3;" 
 />
    <glyph glyph-name="tau" unicode="&#x3c4;" 
 />
    <glyph glyph-name="phi" unicode="&#x3c6;" 
 />
    <glyph glyph-name="glyph276" unicode="&#x2013;" horiz-adv-x="597" 
d="M247 346h216q11 -1 22 -0.5t21 1.5q11 1 22 1.5t21 0.5q11 0 19.5 -8t8.5 -19q0 -10 -4.5 -30.5t-12.5 -43.5q-10 -30 -26 -55t-35 -25q-16 0 -32.5 1.5t-32.5 3.5q-12 2 -24.5 3t-24.5 2l-174 1l-40 -2t-39 -1q-20 -1 -39.5 -2t-38.5 -1q-15 0 -24.5 8t-9.5 20q0 9 6 27
t22 64q1 3 2 5.5t2 5.5q8 19 21 34.5t36 15.5q17 0 34.5 -1t34.5 -3q17 -1 34.5 -2.5t34.5 -1.5v1z" />
    <glyph glyph-name="emdash" unicode="&#x2014;" horiz-adv-x="894" 
d="M247 346h513q11 -1 22 -0.5t21 1.5q11 1 22 1.5t21 0.5q11 0 19.5 -8t8.5 -19q0 -9 -4.5 -30t-12.5 -44q-10 -30 -25.5 -55t-35.5 -25q-14 0 -28 1.5t-28 2.5q-3 0 -5 0.5t-4 0.5q-12 2 -24 3l-24 2l-472 1l-40 -2t-39 -1q-20 -1 -39.5 -2t-38.5 -1q-15 0 -24.5 8
t-9.5 20q0 9 6 27t22 64q1 3 2 5.5t2 5.5q8 19 21 34.5t36 15.5q17 0 34.5 -1t34.5 -3q17 -1 34.5 -2.5t34.5 -1.5v1z" />
    <glyph glyph-name="underscoredbl" unicode="&#x2017;" 
 />
    <glyph glyph-name="quoteleft" unicode="&#x2018;" horiz-adv-x="300" 
d="M162 388h-24q-22 -1 -28 3.5t-8 27.5v1.5v1.5l-20 210q-1 6 -1 10.5v5.5q0 11 6 14t25 3l76 1q20 -1 25.5 -4t5.5 -14v-5.5t-1 -11.5l-20 -208v-2.5v-1.5q-2 -23 -8 -27.5t-28 -4.5v1z" />
    <glyph glyph-name="quoteright" unicode="&#x2019;" horiz-adv-x="500" 
d="M342 614q2 -3 4.5 -4.5t4.5 -3.5q10 -7 18 -16t8 -22q0 -19 -12.5 -27.5t-38.5 -8.5q-43 0 -85 14.5t-78 42.5q-19 15 -30 29t-11 24q0 23 32.5 39t80.5 16q38 0 60.5 -8t22.5 -21q0 -3 -1 -5.5t-3 -4.5q-1 -3 -2.5 -5.5t-1.5 -5.5q0 -8 6 -14.5t13 -10.5q4 -3 7 -5l6 -4
v1z" />
    <glyph glyph-name="quotesinglbase" unicode="&#x201a;" horiz-adv-x="499" 
d="M306 -5v-37q0 -38 15 -49t66 -11h8h8q4 1 8 1h8q28 0 41 -8.5t13 -27.5q0 -31 -40 -42t-151 -11q-77 0 -118 29.5t-41 114.5v153q0 46 -13.5 62.5t-30.5 23.5q-3 1 -5.5 2t-4.5 2q-14 5 -24 13t-10 32t10.5 32.5t23.5 13.5q3 1 5.5 2t4.5 2q17 7 30.5 23.5t13.5 63.5v154
q0 83 41.5 113t117.5 30q111 0 151 -11t40 -43q0 -18 -13 -26.5t-41 -8.5h-8t-8 1h-8h-8q-51 0 -66 -11.5t-15 -49.5v-36v-121q0 -38 -8 -61t-17 -36q-10 -13 -18 -19t-8 -10q0 -5 8 -12.5t18 -21.5q9 -14 17 -36.5t8 -57.5v-121v0z" />
    <glyph glyph-name="quotedblleft" unicode="&#x201c;" horiz-adv-x="559" 
d="M205 680h3h2q19 0 33 -9.5t14 -21.5q0 -5 -10.5 -15.5t-22.5 -25.5q-12 -14 -22.5 -33t-10.5 -41q0 -4 1.5 -7.5t3.5 -7.5q5 -7 13.5 -14.5t18.5 -17.5q13 -13 24.5 -32t11.5 -48q0 -49 -31 -80.5t-78 -31.5t-80 36.5t-33 89.5q0 17 2.5 34t7.5 34q12 43 38 84.5t65 78.5
q10 9 18 14.5t15 8.5q4 2 8 3t9 1v1zM464 680h3h2q18 0 32.5 -9.5t14.5 -21.5q0 -2 -0.5 -4t-1.5 -4q-2 -3 -3.5 -5t-4.5 -4q-23 -24 -35.5 -41t-17.5 -33l-2 -12t-1 -12q0 -3 1 -6l2 -6q5 -8 14 -16t20 -19q13 -14 24.5 -33t11.5 -47q0 -49 -31 -80.5t-78 -31.5t-80 36.5
t-33 89.5q0 17 2.5 34t7.5 34q12 43 38 84.5t65 78.5q10 9 18 14.5t15 8.5q4 2 8 3t9 1v1z" />
    <glyph glyph-name="quotedblright" unicode="&#x201d;" horiz-adv-x="559" 
d="M95 295q-4 -1 -9 -0.5t-11 1.5q-12 3 -21.5 10t-9.5 19q0 8 10 19t23 25q12 15 22 32.5t10 38.5q0 3 -1 6.5t-3 6.5q-5 7 -14 15t-18 18q-14 14 -25.5 33t-11.5 48q0 48 31 80t78 32q48 0 80.5 -36.5t32.5 -89.5q0 -17 -2.5 -34.5t-7.5 -34.5q-12 -43 -38.5 -84.5
t-64.5 -77.5q-10 -10 -18 -15.5t-15 -8.5q-4 -2 -8 -2.5t-9 -1.5v1zM354 295q-4 -1 -9 -0.5t-11 1.5q-12 3 -21.5 10t-9.5 19q0 8 10 19t23 26q12 14 22 31.5t10 38.5q0 4 -1 7t-2 7q-2 3 -5 6t-8 7q-8 6 -15 12.5t-13 12.5q-16 17 -22.5 34.5t-6.5 40.5q0 48 31 80t78 32
q48 0 80.5 -36.5t32.5 -89.5q0 -17 -2.5 -34.5t-7.5 -34.5q-12 -43 -38.5 -84.5t-64.5 -77.5q-10 -10 -18 -15.5t-15 -8.5q-4 -2 -8 -2.5t-9 -1.5v1z" />
    <glyph glyph-name="quotedblbase" unicode="&#x201e;" horiz-adv-x="559" 
d="M95 -176q-4 0 -9 0.5t-11 1.5q-12 3 -21.5 10t-9.5 19q0 8 10 19t23 25q12 15 22 32.5t10 38.5q0 3 -1 6.5t-3 6.5q-5 7 -14 14.5t-18 17.5q-14 14 -25.5 33t-11.5 48q0 48 31 80t78 32q48 0 80.5 -36.5t32.5 -89.5q0 -17 -2.5 -34.5t-7.5 -34.5q-12 -42 -38.5 -83.5
t-64.5 -77.5q-10 -10 -18 -15.5t-15 -8.5q-4 -2 -8 -2.5t-9 -1.5v0zM354 -176q-4 0 -9 0.5t-11 1.5q-12 3 -21.5 10t-9.5 19q0 8 10 19t23 26q12 14 22 31.5t10 38.5q0 4 -1 7l-2 6q-2 4 -5 7t-8 7q-8 5 -15 11.5t-13 12.5q-16 17 -22.5 34.5t-6.5 40.5q0 48 31 80t78 32
q48 0 80.5 -36.5t32.5 -89.5q0 -17 -2.5 -34.5t-7.5 -34.5q-12 -42 -38.5 -83.5t-64.5 -77.5q-10 -10 -18 -15.5t-15 -8.5q-4 -2 -8 -2.5t-9 -1.5v0z" />
    <glyph glyph-name="dagger" unicode="&#x2020;" horiz-adv-x="720" 
d="M236 268l-34 -2q-26 -3 -35.5 -14t-15.5 -23q0 -1 -0.5 -2t-0.5 -2q-6 -13 -14.5 -23t-32.5 -10q-31 0 -49 44t-18 120q0 69 18 110t49 41q11 0 18.5 -4t13.5 -13q3 -4 5 -8.5t5 -9.5q2 -5 4 -8.5t4 -6.5q7 -13 17 -16.5t34 -4.5q4 0 8.5 -0.5t8.5 -0.5q8 -1 17 -1.5
t17 -0.5q5 0 7.5 3.5t2.5 12.5v65q0 24 -11 34t-23 16q-2 1 -3.5 1.5t-2.5 1.5q-11 5 -20 12t-9 23q0 32 47 53t117 21q71 0 117.5 -21t46.5 -53q0 -9 -1 -14t-7 -9q-4 -4 -11.5 -7.5t-20.5 -9.5q-16 -7 -22 -17.5t-6 -31.5v-63q0 -10 2 -13.5t7 -3.5l14 1h13h11h1.5h1.5
q23 2 40.5 7.5t29.5 30.5q2 5 4 8.5t3 6.5q7 12 14.5 16t19.5 4q31 0 49 -41t18 -110q0 -79 -18 -121.5t-52 -42.5q-14 0 -21.5 4t-14.5 16q-2 3 -3.5 7t-3.5 8q-13 30 -33.5 35t-47.5 5q-6 0 -13 0.5t-14 0.5q-5 0 -7.5 -4t-2.5 -13q0 -20 -0.5 -40t-0.5 -40t-0.5 -40
t-0.5 -40q0 -88 8.5 -122t34.5 -53q14 -11 21 -17.5t10 -11.5q3 -4 3.5 -8.5t0.5 -9.5q0 -28 -45 -43.5t-124 -15.5q-78 0 -123.5 15.5t-45.5 42.5q0 6 1 10.5t3 8.5q3 6 10.5 12.5t21.5 16.5q26 19 34 53t8 119v40.5v41.5q-1 20 -1 40.5v40.5q0 9 -2.5 13t-7.5 4l-1 1
l-21 -1v0z" />
    <glyph glyph-name="daggerdbl" unicode="&#x2021;" horiz-adv-x="720" 
d="M450 286v-106q2 -8 9 -10t40 -2h22.5t18.5 -1l2 1q15 -1 24.5 6t17.5 16l0.5 0.5l0.5 0.5q8 8 16.5 14.5t21.5 6.5q29 0 47 -29.5t18 -79.5q0 -51 -16 -83.5t-42 -32.5q-18 0 -28 11t-19 24l-1 1v1q-9 13 -19.5 24.5t-27.5 12.5q-8 0 -15.5 0.5t-15.5 0.5q-8 1 -15.5 1
h-15.5q-14 0 -17 -3t-3 -18v-18t1 -18v-18v-18q1 -20 11 -30.5t21 -18.5q3 -1 5 -2.5t4 -2.5q10 -7 17 -14t7 -19q0 -29 -47.5 -51t-111.5 -22q-63 0 -111 22t-48 51q0 14 8.5 22t19.5 16q1 0 2 1t3 1q12 9 22 19t10 28q0 9 0.5 18.5t0.5 18.5v19.5v18.5q0 8 -1 11.5t-5 4.5
q-1 1 -4.5 1h-13.5q-46 0 -62 -3t-27 -15q-1 -2 -2.5 -4t-3.5 -4q-3 -4 -5.5 -8.5t-6.5 -9.5q-8 -12 -18 -21.5t-25 -9.5q-25 0 -42.5 30.5t-17.5 77.5q0 54 16.5 85.5t44.5 31.5q14 0 23.5 -7t18.5 -15q9 -9 18.5 -16t23.5 -7h13.5t13.5 1h13.5h13.5q23 0 30.5 2t7.5 9v127
q-1 7 -8 9t-40 2l-41 1q-14 -1 -24 -8t-19 -15l-0.5 -0.5l-0.5 -0.5q-9 -8 -18 -14.5t-22 -6.5q-29 0 -46.5 29.5t-17.5 78.5q0 52 16.5 84.5t41.5 32.5q17 0 27.5 -11t20.5 -25v-0.5v-0.5q9 -13 19.5 -24.5t27.5 -12.5q8 0 15.5 -0.5t15.5 -0.5q7 -1 15 -1h15q14 0 17 3
t3 17v18.5v18.5t-0.5 18.5t-0.5 18.5q0 18 -10 28t-22 18q-2 1 -3 2l-2 2q-11 7 -19.5 15t-8.5 21q0 29 48 51.5t111 22.5q64 0 111.5 -22.5t47.5 -51.5q0 -14 -9 -22t-19 -14q-2 -1 -3.5 -2t-3.5 -2q-14 -8 -21.5 -20t-8.5 -26v-19.5v-18.5q-1 -10 -1 -19.5v-19.5
q0 -9 2.5 -13t8.5 -4l35 2q30 -1 43 1.5t22 12.5q2 2 4.5 5t4.5 6l20 28q2 2 4 4.5t4 4.5q6 7 12.5 10t13.5 3q26 0 43 -31t17 -78q0 -54 -16 -85.5t-45 -31.5q-16 0 -25 6.5t-16 15.5q-8 8 -17.5 15t-25.5 7l-2 1h-52q-23 -1 -30.5 -3t-7.5 -10v-19v0z" />
    <glyph glyph-name="glyph287" unicode="&#x2022;" horiz-adv-x="600" 
d="M198 286q0 39 28 67t68 28q41 0 69.5 -28t28.5 -68t-28.5 -68t-69.5 -28q-40 0 -68 28t-28 68v1z" />
    <glyph glyph-name="ellipsis" unicode="&#x2026;" horiz-adv-x="900" 
d="M265 102q0 -48 -34 -81.5t-81 -33.5t-81 33.5t-34 80.5q0 48 34 82t81 34t81 -34t34 -82v1zM565 102q0 -48 -34 -81.5t-81 -33.5t-81 33.5t-34 80.5q0 48 34 82t81 34t81 -34t34 -82v1zM865 102q0 -48 -34 -81.5t-81 -33.5t-81 33.5t-34 80.5q0 48 34 82t81 34t81 -34
t34 -82v1z" />
    <glyph glyph-name="perthousand" unicode="&#x2030;" horiz-adv-x="1249" 
d="M320 243l148 250q24 40 44.5 77t34.5 67q3 6 6 11t6 9q9 13 19 17.5t26 4.5q24 0 35.5 -6t11.5 -18q0 -7 -18 -38t-41 -66q-1 -2 -1.5 -3.5t-1.5 -2.5q-18 -28 -33.5 -52.5t-23.5 -37.5l-151 -255q-8 -16 -16.5 -30.5t-16.5 -29.5t-16.5 -29.5t-16.5 -29.5
q-4 -7 -8 -16.5t-9 -18.5q-10 -20 -22.5 -35.5t-32.5 -15.5q-25 0 -40.5 7t-15.5 19q0 4 20 38t45 74q0 1 1 2t1 2q22 35 41.5 65.5t24.5 39.5v1zM638 334q5 -1 10 -1.5t10 -0.5q63 -7 114.5 -49.5t51.5 -110.5q0 -73 -60.5 -125t-146.5 -52q-78 0 -128.5 44t-50.5 112
q0 77 56 127.5t144 54.5v1zM614 258q-13 -1 -21.5 -10.5t-8.5 -26.5q0 -10 2.5 -28.5t7.5 -38.5q7 -28 19.5 -51.5t30.5 -23.5q14 0 21 9.5t7 28.5q0 55 -17.5 97.5t-40.5 42.5v1zM1050 334q5 -1 10 -1.5t10 -0.5q63 -7 114.5 -49.5t51.5 -110.5q0 -73 -60.5 -125
t-146.5 -52q-78 0 -128.5 44t-50.5 112q0 77 56 127.5t144 54.5v1zM1026 258q-13 -1 -21.5 -10.5t-8.5 -26.5q0 -12 2 -26t5 -28q4 -19 10.5 -37.5t14.5 -31.5q5 -10 12 -14.5t16 -4.5q14 0 21 9.5t7 28.5q0 55 -17.5 97.5t-40.5 42.5v1zM213 676q3 -1 6.5 -1h7.5
q64 -5 117.5 -48.5t53.5 -112.5q0 -73 -60.5 -125.5t-145.5 -52.5q-79 0 -129 44.5t-50 113.5q0 77 56 127t144 54v1zM189 601q-13 -1 -21.5 -11t-8.5 -27q0 -9 2.5 -28t7.5 -40q7 -28 19 -51t31 -23q14 0 21 10t7 28q0 55 -17.5 98t-40.5 43v1z" />
    <glyph glyph-name="guilsinglleft" unicode="&#x2039;" 
d="M214 178q4 -7 9.5 -14.5t11.5 -15.5q4 -7 8.5 -13.5t8.5 -13.5q6 -10 9.5 -20t3.5 -19q0 -14 -11.5 -26t-25.5 -15h-2.5h-2.5q-15 0 -42 17t-55 43q-15 14 -30 29t-28 30q-24 28 -39.5 54t-15.5 43t15 43t38 53q12 15 25.5 29.5t27.5 27.5q29 28 55 46t40 18q20 0 34 -12
t14 -29q0 -19 -13.5 -39.5t-29.5 -42.5q-17 -21 -30.5 -44t-13.5 -47q0 -12 9.5 -32.5t29.5 -50.5v1z" />
    <glyph glyph-name="guilsinglright" unicode="&#x203a;" horiz-adv-x="279" 
d="M23 114q6 9 16 22t20 29l8 12l8 12q12 20 20.5 38.5t8.5 32.5q0 23 -13.5 44.5t-29.5 42.5q-6 7 -11.5 14t-9.5 14q-10 14 -16.5 28t-6.5 28v2q0 16 14 28.5t33 12.5q14 0 40 -17.5t54 -44.5q14 -12 27.5 -26.5t25.5 -28.5q24 -28 39.5 -54t15.5 -43t-15.5 -43.5
t-38.5 -54.5q-14 -16 -29 -32t-31 -30q-28 -26 -54 -42.5t-42 -16.5h-2.5h-2.5q-14 3 -25.5 15t-11.5 26q0 8 2.5 16t6.5 15v1z" />
    <glyph glyph-name="exclamdbl" unicode="&#x203c;" 
 />
    <glyph glyph-name="nsuperior" unicode="&#x207f;" 
 />
    <glyph glyph-name="franc" unicode="&#x20a3;" 
 />
    <glyph glyph-name="peseta" unicode="&#x20a7;" 
 />
    <glyph glyph-name="trademark" unicode="&#x2122;" horiz-adv-x="951" 
d="M137 667h154q5 -1 8.5 -1t7.5 1q7 1 14 2.5t16 3.5q1 0 2.5 0.5t2.5 0.5q3 0 5.5 0.5t4.5 0.5q20 0 35.5 -20t23.5 -43q5 -13 7.5 -25t2.5 -21q0 -20 -12 -32t-32 -12q-16 0 -27 8.5t-22 28.5q-6 10 -10 16t-7 9q-3 2 -6 3t-7 1q-10 0 -14.5 -9.5t-4.5 -29.5v-163
q0 -26 5 -37.5t20 -17.5q4 -2 7.5 -3.5t6.5 -3.5q7 -4 10 -9t3 -13q0 -22 -28.5 -32t-87.5 -10q-70 0 -103.5 11t-33.5 33q0 8 4.5 13.5t11.5 7.5q27 9 32.5 22t5.5 36q1 3 1 6.5v6.5q0 8 0.5 16t1.5 16q1 24 2 48.5t1 48.5q0 38 -3.5 50.5t-14.5 12.5q-7 0 -12.5 -5
t-10.5 -13q-2 -3 -4.5 -7t-5.5 -8q-8 -13 -19.5 -23.5t-30.5 -10.5q-16 0 -26.5 11.5t-10.5 29.5q0 8 1.5 17t4.5 18q8 24 23 44.5t31 28.5q4 1 7.5 2t6.5 1q8 0 16 -1l16 -2q7 -2 15 -3t16 -1v1zM722 388q-1 -2 -8 -19.5t-16 -37.5q-3 -5 -5 -10t-5 -10q-8 -15 -15 -25.5
t-12 -10.5q-8 0 -18 15t-28 56q-3 7 -8.5 21t-12.5 29q-2 5 -4.5 10t-5.5 10q-7 15 -13.5 25t-11.5 10q-7 0 -9.5 -14.5t-2.5 -63.5q0 -31 3 -41.5t13 -15.5q1 0 1.5 -0.5t1.5 -0.5q0 -1 0.5 -1.5t1.5 -0.5q6 -3 11 -7.5t5 -13.5q0 -16 -21.5 -24t-62.5 -8q-36 0 -54 8
t-18 24q0 9 5.5 13t11.5 7q1 1 1.5 1t1.5 1q1 0 1.5 0.5t1.5 0.5q15 7 20.5 54t5.5 159q0 42 -7.5 57t-15.5 21q-3 1 -5.5 2t-4.5 2q-6 2 -10 6t-4 16q0 19 26.5 29.5t70.5 10.5q36 0 50 -3.5t23 -18.5q2 -3 3.5 -6t3.5 -6l61 -112q6 -12 9.5 -17.5t6.5 -7.5q1 -1 3 -1.5
t5 -0.5t6 1t5 3t5 6.5t6 10.5l41 81l9.5 19t8.5 16q14 23 31.5 29.5t51.5 6.5q44 0 64.5 -8.5t20.5 -28.5q0 -5 -1 -9t-3 -7t-5 -5.5t-7 -5.5q-13 -10 -18.5 -37t-5.5 -90q0 -75 5 -113t15 -45q1 -1 2 -1.5l1 -0.5q1 0 1 -0.5v-0.5q7 -4 12.5 -9.5t5.5 -14.5
q0 -19 -24 -27.5t-79 -8.5t-78.5 8t-23.5 25q0 9 5.5 15t11.5 11q1 0 1 0.5v0.5l1.5 1.5t1.5 0.5q8 7 10.5 24t2.5 60q0 23 -2 30.5t-9 7.5q-2 0 -3.5 -0.5t-3.5 -1.5q-6 -3 -13 -15.5t-19 -39.5v1z" />
    <glyph glyph-name="arrowleft" unicode="&#x2190;" 
 />
    <glyph glyph-name="arrowup" unicode="&#x2191;" 
 />
    <glyph glyph-name="arrowright" unicode="&#x2192;" horiz-adv-x="600" 
d="M-19 216v46h509q-4 4 -10 13t-12 20q-2 4 -4.5 7.5t-4.5 7.5q-7 12 -12 24t-5 20q0 6 4 9.5t9 3.5q4 0 6 -0.5t4 -2.5q2 -1 3 -2t2 -3q26 -31 56.5 -54.5t64.5 -43.5q2 -1 5 -3t6 -3q6 -4 11 -8t5 -10q0 -1 -0.5 -2.5t-1.5 -2.5q-2 -3 -6.5 -6t-12.5 -8
q-19 -10 -37.5 -22t-33.5 -24q-4 -3 -7.5 -6t-6.5 -6q-2 -2 -9 -9.5t-15 -15.5q-1 -2 -2.5 -3t-2.5 -2q-8 -9 -15.5 -15t-11.5 -6q-6 0 -10 3.5t-4 8.5q0 8 4.5 19.5t10.5 23.5q3 6 6 11.5t7 10.5q5 9 10.5 16.5t9.5 12.5l-509 1v0z" />
    <glyph glyph-name="arrowdown" unicode="&#x2193;" 
 />
    <glyph glyph-name="arrowboth" unicode="&#x2194;" 
 />
    <glyph glyph-name="arrowupdn" unicode="&#x2195;" 
 />
    <glyph glyph-name="arrowupdnbase" unicode="&#x21a8;" 
 />
    <glyph glyph-name="partialdiff" unicode="&#x2202;" horiz-adv-x="500" 
d="M57 551l16 113q100 -11 167.5 -36t120.5 -71q63 -54 95 -128t32 -166q0 -122 -68 -197t-178 -75q-97 0 -164.5 66t-67.5 162q0 90 59.5 151t147.5 61q37 0 67.5 -11t53.5 -34q-35 79 -108 115.5t-154 46.5q-5 1 -9.5 1.5t-9.5 0.5v1zM234 323q-40 -5 -65 -34.5t-25 -72.5
q0 -47 29 -78t72 -31q44 0 73 31t29 78q0 50 -33 78t-80 28v1z" />
    <glyph glyph-name="Delta" unicode="&#x2206;" horiz-adv-x="674" 
d="M6 0l258 667h141l262 -667h-661v0zM192 118h286l-143 390l-143 -390v0z" />
    <glyph glyph-name="product" unicode="&#x220f;" horiz-adv-x="733" 
d="M40 750h653v-117h-82v-766h82v-117h-293v117h80v766h-226v-766h78v-117h-292v117h83v766h-83v117v0z" />
    <glyph glyph-name="minus" unicode="&#x2212;" horiz-adv-x="600" 
d="M19 0v281h561v-281h-561v0z" />
    <glyph glyph-name="fraction" unicode="&#x2215;" horiz-adv-x="133" 
d="M-36 180l148 250q24 40 44.5 77t35.5 67q2 5 4.5 9t4.5 7q9 15 19.5 20.5t28.5 5.5q23 0 34.5 -6t11.5 -18q0 -9 -17 -39t-39 -64q-1 -2 -2.5 -4t-3.5 -5q-18 -27 -34 -51.5t-23 -36.5l-151 -255q-8 -16 -16.5 -30.5t-15.5 -29.5q-8 -15 -16.5 -29.5t-16.5 -29.5
q-4 -7 -7.5 -15.5t-8.5 -18.5q-10 -19 -23 -35.5t-33 -16.5q-25 0 -40.5 7.5t-15.5 19.5q0 5 20 38.5t45 72.5q1 1 1.5 2t1.5 2q21 35 40 65t25 40z" />
    <glyph glyph-name="periodcentered" unicode="&#x2219;" horiz-adv-x="500" 
d="M273 685q47 -1 74 -17t27 -45q0 -34 -45 -57.5t-112 -23.5q-39 0 -65 17t-26 42q0 40 38.5 61.5t108.5 21.5v1z" />
    <glyph glyph-name="radical" unicode="&#x221a;" horiz-adv-x="667" 
d="M667 827v-117h-179l-165 -710h-172l-57 271h-94v116h202q9 -43 16.5 -86.5t11.5 -86.5q1 -15 2 -29.5t1 -28.5l11 1q1 17 2.5 35.5t3.5 36.5q6 55 15.5 109.5t21.5 107.5l88 381h292v0z" />
    <glyph glyph-name="infinity" unicode="&#x221e;" horiz-adv-x="667" 
d="M337 255q-9 -11 -17.5 -19t-17.5 -15q-29 -24 -59 -35t-63 -11q-72 0 -117.5 46t-45.5 119q0 68 45.5 114.5t110.5 46.5q29 0 52 -6t46 -20q14 -9 29 -22t31 -30q35 39 74 58.5t83 19.5q71 0 116.5 -46t45.5 -117q0 -72 -46 -117.5t-118 -45.5q-40 0 -77 19.5t-72 59.5v1
zM270 339q-10 13 -19.5 22t-19.5 15q-7 4 -14.5 6t-15.5 2q-22 0 -36 -13.5t-14 -35.5q0 -17 15.5 -30t34.5 -13q9 0 17.5 2.5t17.5 8.5q8 6 16.5 14.5t17.5 20.5v1zM398 339q9 -13 17.5 -22t16.5 -14q8 -6 16.5 -8.5t17.5 -2.5q23 0 36.5 13.5t13.5 35.5q0 17 -15 30
t-35 13q-11 0 -21 -4t-20 -12q-7 -5 -13.5 -12.5t-13.5 -17.5v1z" />
    <glyph glyph-name="orthogonal" unicode="&#x221f;" 
 />
    <glyph glyph-name="intersection" unicode="&#x2229;" 
 />
    <glyph glyph-name="integral" unicode="&#x222b;" horiz-adv-x="500" 
d="M46 -240l24 116q15 -5 23.5 -7t16.5 -2q3 -1 7 -1h8q31 0 44.5 16.5t13.5 54.5v62v476q0 100 4.5 138.5t21.5 63.5q3 3 5 6.5t5 6.5q24 30 59 44.5t84 14.5h11t10 -1q14 0 29.5 -2.5t40.5 -6.5l-23 -115q-15 3 -23.5 5.5t-15.5 2.5q-4 1 -8 1h-9q-30 0 -44 -16.5
t-14 -54.5v-128v-409q0 -101 -4.5 -139.5t-22.5 -64.5l-4 -6t-5 -6q-24 -30 -58.5 -44.5t-81.5 -14.5h-12t-12 1q-15 1 -31.5 3t-38.5 6v0z" />
    <glyph glyph-name="approxequal" unicode="&#x2248;" horiz-adv-x="369" 
 />
    <glyph glyph-name="notequal" unicode="&#x2260;" horiz-adv-x="500" 
d="M261 470l55 107l82 -42l-34 -65h102v-117h-154l-34 -67h188v-116h-241l-49 -96l-82 42l28 54h-89v116h141l35 67h-176v117h228v0z" />
    <glyph glyph-name="equivalence" unicode="&#x2261;" 
 />
    <glyph glyph-name="lessequal" unicode="&#x2264;" horiz-adv-x="500" 
d="M466 117v-117h-433v117h433v0zM466 669v-121l-296 -141l296 -141v-121l-433 208v109l433 207v0z" />
    <glyph glyph-name="greaterequal" unicode="&#x2265;" horiz-adv-x="500" 
d="M33 0v117h433v-117h-433v0zM33 145v121l296 141l-295 141l-1 121l433 -207v-109l-433 -208v0z" />
    <glyph glyph-name="house" unicode="&#x2302;" horiz-adv-x="600" 
d="M19 0v281h561v-281h-561v0z" />
    <glyph glyph-name="revlogicalnot" unicode="&#x2310;" 
 />
    <glyph glyph-name="integraltp" unicode="&#x2320;" 
 />
    <glyph glyph-name="integralbt" unicode="&#x2321;" 
 />
    <glyph glyph-name="2500" unicode="&#x2500;" 
 />
    <glyph glyph-name="2502" unicode="&#x2502;" 
 />
    <glyph glyph-name="250c" unicode="&#x250c;" 
 />
    <glyph glyph-name="2510" unicode="&#x2510;" 
 />
    <glyph glyph-name="2514" unicode="&#x2514;" 
 />
    <glyph glyph-name="2518" unicode="&#x2518;" 
 />
    <glyph glyph-name="251c" unicode="&#x251c;" 
 />
    <glyph glyph-name="2524" unicode="&#x2524;" 
 />
    <glyph glyph-name="252c" unicode="&#x252c;" 
 />
    <glyph glyph-name="2534" unicode="&#x2534;" 
 />
    <glyph glyph-name="253c" unicode="&#x253c;" 
 />
    <glyph glyph-name="2550" unicode="&#x2550;" 
 />
    <glyph glyph-name="2551" unicode="&#x2551;" 
 />
    <glyph glyph-name="2552" unicode="&#x2552;" 
 />
    <glyph glyph-name="2553" unicode="&#x2553;" 
 />
    <glyph glyph-name="2554" unicode="&#x2554;" 
 />
    <glyph glyph-name="2555" unicode="&#x2555;" 
 />
    <glyph glyph-name="2556" unicode="&#x2556;" 
 />
    <glyph glyph-name="2557" unicode="&#x2557;" 
 />
    <glyph glyph-name="2558" unicode="&#x2558;" 
 />
    <glyph glyph-name="2559" unicode="&#x2559;" 
 />
    <glyph glyph-name="255a" unicode="&#x255a;" 
 />
    <glyph glyph-name="255b" unicode="&#x255b;" 
 />
    <glyph glyph-name="255c" unicode="&#x255c;" 
 />
    <glyph glyph-name="255d" unicode="&#x255d;" 
 />
    <glyph glyph-name="255e" unicode="&#x255e;" 
 />
    <glyph glyph-name="255f" unicode="&#x255f;" 
 />
    <glyph glyph-name="2560" unicode="&#x2560;" 
 />
    <glyph glyph-name="2561" unicode="&#x2561;" 
 />
    <glyph glyph-name="2562" unicode="&#x2562;" 
 />
    <glyph glyph-name="2563" unicode="&#x2563;" 
 />
    <glyph glyph-name="2564" unicode="&#x2564;" 
 />
    <glyph glyph-name="2565" unicode="&#x2565;" 
 />
    <glyph glyph-name="2566" unicode="&#x2566;" 
 />
    <glyph glyph-name="2567" unicode="&#x2567;" 
 />
    <glyph glyph-name="2568" unicode="&#x2568;" 
 />
    <glyph glyph-name="2569" unicode="&#x2569;" 
 />
    <glyph glyph-name="256a" unicode="&#x256a;" 
 />
    <glyph glyph-name="256b" unicode="&#x256b;" 
 />
    <glyph glyph-name="256c" unicode="&#x256c;" 
 />
    <glyph glyph-name="upblock" unicode="&#x2580;" 
 />
    <glyph glyph-name="dnblock" unicode="&#x2584;" 
 />
    <glyph glyph-name="block" unicode="&#x2588;" 
 />
    <glyph glyph-name="lfblock" unicode="&#x258c;" 
 />
    <glyph glyph-name="rtblock" unicode="&#x2590;" 
 />
    <glyph glyph-name="ltshade" unicode="&#x2591;" 
 />
    <glyph glyph-name="shade" unicode="&#x2592;" 
 />
    <glyph glyph-name="dkshade" unicode="&#x2593;" 
 />
    <glyph glyph-name="filledbox" unicode="&#x25a0;" horiz-adv-x="751" 
d="M84 0v401l291 328l292 -328v-401h-583v0zM135 51h481v328l-241 270l-240 -270v-328v0z" />
    <glyph glyph-name="filledrect" unicode="&#x25ac;" 
 />
    <glyph glyph-name="triagup" unicode="&#x25b2;" 
 />
    <glyph glyph-name="triagrt" unicode="&#x25ba;" 
 />
    <glyph glyph-name="triagdn" unicode="&#x25bc;" 
 />
    <glyph glyph-name="triaglf" unicode="&#x25c4;" 
 />
    <glyph glyph-name="lozenge" unicode="&#x25ca;" horiz-adv-x="667" 
d="M334 693l259 -360l-259 -359l-260 359l260 360v0zM334 604l-197 -271l197 -270l197 270l-197 271v0z" />
    <glyph glyph-name="circle" unicode="&#x25cb;" 
 />
    <glyph glyph-name="invbullet" unicode="&#x25d8;" 
 />
    <glyph glyph-name="invcircle" unicode="&#x25d9;" 
 />
    <glyph glyph-name="smileface" unicode="&#x263a;" 
 />
    <glyph glyph-name="invsmileface" unicode="&#x263b;" 
 />
    <glyph glyph-name="sun" unicode="&#x263c;" 
 />
    <glyph glyph-name="female" unicode="&#x2640;" 
 />
    <glyph glyph-name="male" unicode="&#x2642;" 
 />
    <glyph glyph-name="spade" unicode="&#x2660;" 
 />
    <glyph glyph-name="club" unicode="&#x2663;" 
 />
    <glyph glyph-name="heart" unicode="&#x2665;" 
 />
    <glyph glyph-name="diamond" unicode="&#x2666;" 
 />
    <glyph glyph-name="musicalnote" unicode="&#x266a;" 
 />
    <glyph glyph-name="musicalnotedbl" unicode="&#x266b;" 
 />
    <glyph glyph-name="apple" unicode="&#xf000;" 
 />
    <glyph glyph-name="fi" unicode="&#xf001;" 
 />
    <glyph glyph-name="fl" unicode="&#xf002;" 
 />
    <glyph glyph-name="degree" horiz-adv-x="381" 
d="M191 683q68 -1 116.5 -47.5t48.5 -112.5q0 -65 -48.5 -111.5t-116.5 -46.5t-116.5 46.5t-48.5 111.5q0 66 48.5 112.5t116.5 46.5v1zM190 606q-34 -1 -57.5 -25t-23.5 -58q0 -33 23.5 -57t57.5 -24t58 24t24 57q0 35 -24 58.5t-58 23.5v1z" />
    <glyph glyph-name="bullet" horiz-adv-x="600" 
d="M198 286q0 39 28 67t68 28q41 0 69.5 -28t28.5 -68t-28.5 -68t-69.5 -28q-40 0 -68 28t-28 68v1z" />
    <glyph glyph-name="endash" horiz-adv-x="369" 
 />
  </font>
</defs>
</svg>
